{"glyphs":{"0":{"ha":572,"x_min":6,"x_max":572,"o":"m 561 649 q 553 433 572 526 q 504 274 535 340 q 463 198 485 229 q 422 144 442 167 l 422 143 q 411 129 417 136 q 398 115 406 122 q 381 100 390 108 q 375 95 378 97 q 369 90 372 93 q 232 13 294 31 q 123 12 169 -4 q 48 72 76 28 q 13 181 19 117 q 20 325 6 246 q 76 489 35 404 q 164 635 119 578 q 251 726 208 692 q 332 774 294 760 q 399 793 369 789 q 444 786 424 796 q 476 756 461 778 q 489 690 490 735 q 490 695 490 693 q 492 700 490 697 q 511 714 499 714 q 515 713 514 714 q 518 713 517 713 q 520 712 519 713 q 522 711 521 711 q 524 710 522 711 q 526 708 526 710 q 535 700 531 706 q 544 688 539 694 q 551 676 547 682 q 557 664 554 671 q 561 649 560 657 m 311 715 l 310 715 q 303 714 307 715 q 299 710 300 713 l 299 707 q 300 706 299 707 q 306 708 303 706 q 311 713 310 711 q 313 714 311 713 l 311 715 m 160 607 l 160 604 l 161 604 q 174 619 163 604 q 175 622 174 621 q 193 646 186 636 q 206 662 200 654 q 219 676 213 669 q 232 687 226 682 q 244 699 238 692 q 250 704 250 700 q 247 707 250 707 q 239 703 243 707 q 217 681 228 692 q 194 656 206 669 l 194 654 q 184 641 189 647 q 172 626 179 635 q 171 624 172 625 q 167 618 168 621 q 160 608 164 608 l 160 607 m 150 593 q 147 589 147 590 q 149 588 147 588 q 153 589 151 588 q 154 592 153 590 q 155 593 154 593 q 156 594 156 593 q 155 596 156 596 q 154 597 154 596 l 154 599 q 150 594 151 599 l 150 593 m 138 574 q 139 571 138 571 q 140 572 140 571 q 142 572 140 572 l 142 575 l 143 575 q 142 576 143 575 q 140 579 142 579 q 139 578 139 579 q 138 576 139 576 l 138 575 l 138 574 m 32 240 q 31 242 32 240 q 28 240 28 242 l 28 239 l 28 238 l 28 236 l 28 235 l 29 235 q 32 236 29 235 l 32 240 m 36 260 q 38 265 38 261 l 38 267 q 33 268 36 268 l 33 267 q 32 264 33 265 l 32 263 l 32 257 l 33 257 q 36 260 33 257 m 39 278 q 40 285 42 282 q 39 286 40 285 l 39 285 q 38 283 38 286 q 38 282 38 283 q 36 281 36 282 l 36 279 l 38 279 l 38 278 l 39 278 m 47 310 q 46 314 47 314 q 44 313 46 314 q 43 310 43 311 l 43 308 l 43 307 q 44 306 43 306 q 47 307 46 306 l 47 308 l 47 310 m 53 333 q 50 333 50 336 q 47 324 47 331 q 49 322 47 322 q 51 326 51 322 q 53 331 51 329 l 53 332 l 53 333 m 60 360 q 58 361 60 361 l 57 361 q 53 354 54 358 q 53 347 53 350 q 54 343 53 343 q 58 351 56 343 q 59 356 58 354 q 60 358 60 357 l 60 360 m 69 388 l 69 389 l 69 390 q 69 392 69 392 q 68 393 68 392 q 67 392 68 393 q 65 389 65 390 l 65 388 l 64 388 q 65 385 64 386 l 67 385 q 68 386 68 385 l 68 388 l 69 388 m 76 411 q 80 417 78 413 q 86 432 82 421 q 87 434 86 433 q 88 436 88 435 q 92 445 90 440 q 96 454 93 450 q 103 472 100 464 q 110 489 107 481 q 116 501 113 496 q 122 513 119 507 q 126 519 125 518 q 129 525 126 522 q 134 534 132 529 q 139 542 136 539 q 157 565 147 549 q 158 568 158 567 q 160 571 158 569 q 169 585 165 578 q 179 599 174 592 l 188 611 q 211 642 199 626 q 238 671 224 658 q 242 676 240 674 q 253 686 249 683 q 264 694 257 689 q 275 704 271 700 q 289 715 283 710 q 296 720 292 718 q 303 725 300 722 q 307 728 304 726 q 311 733 311 732 q 310 735 311 735 l 307 735 q 301 733 304 733 q 296 729 299 732 q 294 728 296 729 q 283 721 288 725 q 272 713 278 717 l 268 708 q 246 689 257 699 q 225 668 235 679 q 218 663 221 664 q 213 658 215 660 q 210 653 211 656 q 179 617 196 640 q 174 610 176 614 q 168 603 171 606 q 158 589 163 597 q 149 572 153 581 q 145 567 146 569 q 142 563 144 565 q 133 549 138 556 q 126 535 129 542 q 121 526 124 532 q 117 515 118 519 q 115 513 115 514 q 114 511 115 513 q 111 506 113 508 q 108 501 110 504 q 102 488 106 496 q 97 475 99 481 q 89 455 93 464 q 81 435 85 446 l 81 433 q 79 431 81 433 q 74 411 74 417 q 71 406 71 408 q 71 403 68 403 l 71 401 l 72 401 l 74 401 l 74 404 l 75 404 l 75 406 q 76 408 75 407 l 76 410 l 76 411 m 293 703 q 290 703 292 704 q 289 701 290 703 q 285 699 285 701 l 285 697 q 286 696 285 697 l 288 696 l 289 697 l 290 697 q 292 699 290 699 q 292 700 292 700 q 293 701 293 700 l 293 703 m 278 688 q 278 690 278 689 q 279 692 279 690 q 275 692 278 693 q 274 690 275 692 l 274 688 l 275 686 l 276 686 l 276 688 l 278 688 m 260 675 q 258 676 260 675 q 256 676 257 676 q 254 675 256 675 q 251 672 254 672 l 251 671 q 247 665 247 668 q 249 664 247 665 q 255 667 251 664 q 260 674 258 669 l 260 675 m 243 658 l 242 660 q 240 658 240 660 l 239 657 q 238 656 238 657 q 236 654 236 656 q 235 653 235 654 l 235 651 q 236 651 236 651 q 238 650 236 650 l 239 651 q 240 653 240 651 q 242 656 240 653 q 243 657 243 656 l 243 658 m 229 640 q 230 642 229 642 q 231 644 231 643 q 226 644 231 646 l 225 643 l 225 640 l 226 639 l 228 639 q 229 640 228 640 m 211 625 q 210 622 210 625 q 211 621 210 621 q 213 622 213 621 l 214 622 q 215 624 214 624 l 215 626 l 214 626 q 213 628 214 626 l 211 626 l 211 625 m 199 607 q 200 606 199 607 q 202 607 201 606 q 204 608 203 608 q 205 610 204 610 q 206 611 206 610 l 206 613 l 206 614 q 204 617 206 614 q 201 615 203 617 l 201 614 l 200 614 l 200 613 q 199 608 199 611 l 199 607 m 193 594 q 192 597 193 596 l 190 597 q 189 596 190 597 q 188 594 189 594 l 188 592 l 188 590 l 189 589 q 192 594 192 589 l 193 594 m 215 26 q 215 32 218 29 q 214 33 215 33 q 213 32 214 33 q 211 32 213 33 l 210 32 q 208 31 210 32 l 208 26 q 211 26 210 25 q 213 25 213 26 q 214 26 214 25 q 215 26 214 26 m 244 40 q 243 43 244 42 q 240 42 242 43 l 239 42 q 238 40 239 40 q 232 36 233 40 l 232 33 l 233 33 q 244 39 243 33 l 244 40 m 389 126 q 397 135 396 133 q 397 140 399 138 q 396 140 397 142 q 382 126 389 136 l 374 118 q 365 111 368 113 q 361 108 363 110 q 357 106 360 107 l 346 94 q 340 90 343 92 q 317 71 329 79 l 308 67 q 301 62 306 64 q 294 57 297 60 l 294 56 q 296 53 294 53 q 306 58 299 53 q 314 63 313 63 q 319 65 317 64 q 325 69 322 67 q 331 74 326 74 q 345 85 338 79 q 361 97 353 90 q 367 103 363 99 q 374 111 372 108 l 388 125 q 389 126 388 125 m 410 175 q 408 176 410 176 q 394 165 404 176 q 372 139 385 154 q 365 131 369 135 q 339 104 353 117 q 308 81 325 92 q 293 69 300 76 q 282 63 285 64 q 272 58 276 61 q 260 50 264 54 l 258 49 q 257 46 257 47 q 258 45 258 46 q 260 44 258 44 q 274 50 264 44 q 294 63 283 56 q 313 76 304 69 q 321 82 321 82 q 335 94 328 88 q 350 107 343 100 q 357 115 353 111 q 365 122 361 118 q 378 131 372 125 q 388 143 383 136 q 390 147 389 146 q 393 150 392 147 q 410 174 403 160 l 410 175 m 464 326 q 486 399 478 364 q 499 465 494 435 q 505 517 503 494 q 507 553 507 540 q 507 628 510 583 q 504 649 506 639 q 503 668 503 658 q 501 679 503 678 q 496 678 499 681 q 492 676 494 675 q 489 683 489 676 l 489 685 q 474 638 485 657 q 450 608 463 619 q 425 590 438 596 q 407 583 413 585 l 403 583 q 403 587 400 585 q 403 592 406 589 q 403 596 400 594 q 404 600 407 597 q 403 604 399 600 l 406 607 l 408 608 q 412 611 410 610 q 417 615 414 613 q 438 640 426 624 q 450 682 449 657 q 444 724 451 714 q 433 738 438 735 q 432 739 433 738 q 422 740 429 739 q 403 739 415 742 l 399 739 q 338 715 374 733 q 264 660 303 697 q 185 563 225 622 q 110 417 144 504 q 66 235 68 311 q 87 114 64 160 q 152 53 110 68 q 242 56 194 39 q 263 64 251 57 q 282 74 272 68 q 365 145 331 103 q 422 227 400 188 q 453 295 443 267 q 465 326 464 324 l 464 326 z "},"1":{"ha":326,"x_min":14,"x_max":328,"o":"m 260 597 q 213 467 238 543 q 165 318 188 390 q 138 228 153 278 q 103 103 122 178 q 101 99 101 101 q 99 86 99 90 q 91 60 94 72 q 85 33 88 47 q 82 15 85 18 q 83 13 82 11 q 85 17 83 14 q 88 22 86 19 q 89 21 89 24 q 90 10 89 15 q 83 1 90 6 q 76 -1 81 -1 q 69 -1 72 -1 q 63 0 65 -1 q 58 6 60 3 q 53 11 56 8 q 35 56 39 35 q 32 93 31 76 q 37 122 33 110 q 42 140 40 133 q 47 163 44 153 q 51 183 49 174 q 54 194 54 193 q 57 207 54 196 q 85 303 69 254 q 115 397 100 351 q 142 483 129 443 q 165 554 156 524 q 190 624 178 594 q 218 686 203 654 q 143 651 178 667 q 92 625 108 635 q 85 622 89 624 q 78 619 82 621 q 71 615 75 617 q 67 610 68 613 q 61 601 65 607 q 41 603 56 596 q 22 615 26 610 q 16 629 18 621 q 17 640 14 638 l 17 642 q 17 644 14 642 q 24 649 19 647 q 31 654 28 651 q 38 660 35 657 q 111 706 72 682 q 186 748 144 725 q 271 790 228 771 q 272 791 272 790 q 274 792 272 792 q 276 792 275 792 q 279 793 276 793 q 304 786 303 793 q 308 780 307 782 q 314 771 310 778 q 323 756 318 765 q 325 740 328 747 q 323 735 324 738 q 321 731 322 733 q 318 722 318 722 q 308 701 315 715 q 294 675 300 686 q 290 662 290 665 q 288 656 289 658 q 284 649 286 653 q 276 633 282 644 q 268 616 272 625 q 260 597 264 607 m 90 672 q 93 669 90 669 q 110 678 99 669 q 119 683 114 678 q 122 685 121 685 q 124 686 122 685 l 128 686 q 133 688 131 688 q 136 690 135 689 l 139 693 q 137 698 139 696 q 132 699 135 700 q 125 697 129 699 q 118 692 121 694 q 110 685 113 686 l 107 683 q 98 678 103 681 q 90 674 93 676 l 90 672 m 83 668 q 86 665 86 665 l 88 665 q 90 667 90 665 l 90 669 q 89 671 90 671 l 89 672 l 86 672 q 85 671 85 672 l 83 671 l 83 668 m 78 667 q 76 666 76 667 q 78 665 76 665 l 78 664 l 79 663 l 81 661 q 83 663 82 663 l 83 664 l 83 665 l 81 668 q 79 668 81 668 l 78 668 l 78 667 m 147 679 q 149 683 150 682 q 146 685 149 683 q 138 681 146 685 q 134 678 135 679 q 131 676 133 678 q 125 674 128 675 q 119 671 122 672 q 117 669 118 669 q 113 669 113 669 q 106 665 107 667 l 104 665 q 100 663 101 663 q 94 658 97 660 q 88 656 92 657 q 78 649 86 654 q 63 640 67 642 q 60 635 60 638 l 61 635 q 63 633 61 633 q 71 635 65 633 q 79 640 76 638 l 82 643 l 90 647 q 109 657 100 651 q 128 667 118 663 q 133 671 131 669 q 140 675 135 672 q 142 676 140 675 q 147 679 147 678 m 160 453 q 158 446 158 449 q 161 444 158 446 q 164 447 163 444 q 167 453 165 450 l 171 469 q 174 478 174 474 q 178 488 175 483 q 192 528 188 510 q 190 529 192 529 q 189 531 190 529 q 187 529 189 531 q 182 521 185 528 q 174 499 179 514 q 160 456 168 483 l 160 453 m 96 278 q 97 275 96 276 l 99 275 l 103 275 q 104 281 104 276 l 104 282 q 107 289 107 285 l 106 290 l 104 290 l 103 290 q 99 286 100 290 q 97 283 97 285 q 96 278 96 282 m 93 264 q 92 258 92 263 q 93 257 92 257 l 96 257 l 97 257 q 99 258 97 257 l 99 260 l 99 261 q 99 263 99 261 q 100 265 100 264 l 99 267 q 94 267 96 268 q 93 264 93 267 m 89 247 q 88 246 88 247 q 92 242 88 243 q 94 243 93 242 l 94 244 l 94 246 l 94 247 q 93 249 94 249 q 89 249 90 250 l 89 247 m 78 211 q 78 208 76 210 q 81 207 78 207 q 83 208 83 207 q 86 213 86 208 l 86 214 q 88 221 88 215 l 88 222 q 85 222 86 224 l 83 222 q 79 218 79 222 q 78 215 78 217 l 78 211 m 74 196 q 74 192 74 192 q 76 189 74 189 l 78 189 q 79 190 79 189 q 80 192 79 192 q 81 193 81 192 l 81 194 q 81 197 82 196 q 78 199 81 199 q 74 197 75 199 l 74 196 m 71 179 q 69 178 69 179 q 72 175 69 175 q 74 174 74 175 q 76 175 75 174 l 76 176 l 76 178 l 76 179 q 75 181 76 181 q 71 181 72 182 l 71 179 m 63 153 l 64 151 l 65 151 l 67 151 q 68 153 67 151 q 69 154 69 153 l 69 156 q 65 158 69 158 l 64 158 l 64 157 q 63 156 63 157 l 63 154 l 63 153 m 57 138 l 57 136 l 57 135 q 63 132 63 132 q 65 135 63 132 q 67 136 65 135 l 67 139 l 67 140 l 67 142 l 65 142 q 63 142 64 142 q 61 143 63 143 q 60 144 61 144 q 58 143 58 144 l 58 142 l 58 140 l 57 140 l 57 139 l 57 138 m 56 115 l 57 114 q 58 115 58 114 q 60 115 58 115 q 61 118 60 117 q 56 122 61 122 l 54 121 l 54 119 l 53 119 l 53 118 l 53 117 q 54 115 53 115 l 56 115 m 96 181 q 106 220 101 201 q 110 242 110 239 q 122 294 115 268 q 135 343 128 319 q 138 354 135 343 q 150 396 146 381 q 156 418 154 411 q 157 426 157 425 q 156 428 157 428 l 154 428 q 153 426 154 428 q 151 419 153 425 q 144 399 149 413 q 132 358 140 385 l 132 357 q 131 351 131 356 q 129 350 129 351 l 128 349 q 129 347 128 347 q 126 339 126 339 l 125 339 l 125 336 q 123 329 124 333 q 121 322 122 325 q 119 314 119 319 l 121 313 l 119 311 q 94 203 103 242 q 81 148 85 165 q 76 126 76 131 q 76 122 76 122 l 78 122 q 78 123 78 122 q 81 129 79 124 q 87 147 83 135 q 96 181 90 158 m 161 378 q 163 381 161 379 q 168 408 171 403 q 167 410 168 408 l 165 408 q 159 393 161 401 q 154 376 157 385 q 153 369 153 372 q 151 364 153 367 q 147 348 149 356 q 143 333 146 340 l 135 304 q 128 281 132 293 q 122 256 125 268 q 110 206 115 235 q 108 199 108 203 q 107 193 107 196 l 107 190 l 108 190 l 110 190 q 115 201 111 190 q 120 219 118 210 q 125 236 122 228 q 127 245 126 240 q 129 254 128 250 q 133 272 132 264 q 138 289 135 281 q 140 299 139 294 q 142 308 140 303 l 143 311 q 149 337 146 324 q 157 363 153 350 q 158 367 157 365 q 158 371 158 368 q 160 374 160 374 q 161 378 160 375 z "},"2":{"ha":579,"x_min":4,"x_max":575,"o":"m 51 7 q 22 10 32 6 q 10 19 13 14 q 7 33 4 25 q 15 61 7 49 q 25 76 22 74 q 26 78 25 78 q 35 89 32 85 q 42 96 39 93 q 71 129 58 114 q 88 148 78 136 q 107 167 99 160 q 176 238 140 203 q 248 307 213 274 q 314 369 283 340 q 368 421 344 399 q 379 433 374 428 q 390 443 385 438 q 407 463 397 451 q 419 479 417 475 q 469 558 449 519 q 499 629 489 597 q 505 684 508 661 q 483 715 501 707 q 444 713 468 721 q 392 687 419 704 q 333 646 364 669 q 276 597 303 622 q 229 549 250 572 q 199 508 208 525 q 179 462 183 482 q 175 426 175 442 q 178 401 175 411 q 183 388 182 392 q 179 379 188 379 q 171 381 175 379 q 148 395 156 386 q 136 415 140 404 q 131 440 131 426 q 180 588 122 514 q 338 733 238 663 q 417 781 386 769 q 464 793 447 793 q 492 781 483 793 q 542 754 524 772 q 567 710 560 736 q 572 653 575 685 q 558 588 569 622 q 501 471 539 529 q 417 368 464 413 l 406 357 q 387 340 396 349 q 368 322 378 331 q 312 269 340 297 q 254 214 283 242 q 194 155 231 190 q 118 78 158 119 q 213 77 167 78 q 296 76 258 76 q 360 77 333 76 q 400 79 388 78 q 438 88 426 82 q 451 99 449 93 q 451 113 454 106 q 446 128 447 121 q 453 149 442 142 q 483 133 464 157 q 494 107 493 121 q 493 81 496 93 q 482 53 489 65 q 432 23 474 33 q 330 8 390 13 q 197 3 269 3 q 51 7 124 4 m 207 26 q 208 32 210 29 l 208 33 l 207 33 l 206 33 l 204 33 l 203 33 q 201 32 203 33 l 201 31 l 201 29 q 204 28 203 28 q 206 26 204 26 l 207 26 m 233 31 l 233 32 l 232 32 l 231 32 l 228 32 l 226 32 l 225 32 q 222 29 222 29 q 226 25 222 26 l 228 25 l 229 25 q 233 29 233 25 l 233 31 m 394 38 q 385 42 393 42 q 368 40 378 42 q 353 38 358 39 q 349 37 350 38 q 347 36 349 36 q 335 36 340 36 q 322 35 329 36 q 306 35 314 35 q 289 32 297 35 l 275 32 l 268 32 q 257 32 263 32 q 246 31 251 32 l 244 31 l 244 28 q 257 26 246 26 q 269 25 268 25 q 283 25 276 25 q 300 26 290 25 l 306 26 q 326 28 319 26 q 335 28 331 28 q 344 29 340 29 q 353 28 347 28 q 360 28 356 28 q 367 29 364 29 q 375 31 371 31 l 378 31 q 394 36 392 33 l 394 38 m 139 54 q 143 52 139 53 q 151 51 147 51 q 163 50 157 50 q 177 49 169 49 q 192 49 185 49 l 193 49 l 210 49 l 219 49 l 238 49 q 262 47 250 47 q 286 46 274 46 q 308 46 297 46 q 329 47 318 46 q 335 48 332 47 q 342 49 339 49 q 360 49 351 49 q 375 51 368 49 q 397 54 386 53 q 418 58 407 56 q 424 60 418 58 q 438 63 431 61 q 450 67 444 65 q 457 72 456 69 q 457 75 458 74 q 456 76 457 76 l 454 75 q 446 73 453 75 q 431 69 439 71 q 416 65 424 67 q 407 63 408 63 q 395 61 401 61 q 382 60 389 61 q 375 59 379 60 q 367 58 371 58 q 363 58 364 58 q 358 57 361 57 q 346 58 350 57 l 331 58 q 321 57 328 57 l 317 57 l 306 57 l 304 57 l 297 57 l 288 57 q 276 56 279 57 l 258 56 l 236 56 q 220 55 228 56 q 206 56 213 54 q 185 57 192 56 q 171 58 178 57 q 157 58 164 58 q 147 58 151 58 q 140 57 143 57 q 139 56 139 57 l 139 54 m 246 631 l 247 629 q 259 636 250 629 q 271 646 268 643 l 275 650 q 288 660 279 654 q 290 661 289 661 q 292 663 290 661 q 304 671 297 664 q 307 676 310 671 l 306 676 q 304 677 304 676 q 303 678 304 678 q 297 676 299 678 q 289 670 293 674 q 279 663 285 667 q 274 658 276 660 q 269 654 272 657 q 267 652 268 653 q 264 650 265 651 q 253 642 258 646 q 246 632 249 638 l 246 631 m 238 626 q 238 624 236 625 q 239 621 238 622 l 240 621 q 243 622 242 621 q 244 624 243 622 q 244 626 246 625 q 243 628 244 628 l 243 629 l 240 629 l 240 628 l 239 628 l 238 626 m 229 617 q 233 614 232 614 q 235 615 233 615 q 233 614 233 615 q 235 615 233 615 q 236 617 236 615 l 236 618 l 233 621 q 231 621 232 622 l 229 619 l 229 618 l 229 617 m 338 671 q 343 679 346 676 q 342 681 343 679 q 340 679 342 679 q 338 678 339 678 q 336 676 338 678 q 326 670 331 674 q 318 664 322 667 q 314 661 315 661 q 310 658 313 658 q 306 654 308 657 q 294 646 297 649 q 292 644 293 644 q 290 643 292 644 q 283 638 285 640 q 276 632 281 636 l 272 628 l 260 615 q 253 608 257 611 q 246 600 249 604 q 243 599 246 600 l 243 597 q 235 590 239 594 q 228 583 232 586 q 225 579 228 582 q 224 578 225 579 q 218 571 218 572 l 218 568 l 219 568 q 224 569 222 568 l 225 571 q 239 585 231 574 q 242 588 242 586 q 246 590 243 589 q 251 597 250 594 l 253 599 q 267 610 261 607 q 272 615 269 613 q 278 621 275 618 l 303 642 q 306 644 303 642 q 310 649 308 647 q 315 653 313 650 q 321 658 318 653 q 322 659 322 658 q 324 660 322 660 q 328 663 324 658 q 338 671 332 665 m 311 339 q 314 336 311 336 q 315 338 315 336 l 317 338 q 322 347 322 340 q 321 350 322 350 q 314 346 315 350 q 311 339 311 343 m 364 386 l 363 386 q 360 385 361 386 q 363 379 360 381 l 364 379 l 365 379 l 365 381 l 367 381 l 367 382 l 368 382 q 367 385 368 383 l 367 386 l 364 386 m 349 367 q 349 369 350 368 l 347 369 q 346 372 347 371 q 344 371 346 372 l 343 371 q 342 369 343 371 l 342 368 q 342 367 342 368 q 346 364 342 364 q 347 365 346 364 q 349 367 349 365 m 328 356 q 329 354 328 356 q 331 351 329 351 q 332 353 331 351 q 335 354 333 353 l 336 354 l 336 357 l 338 357 l 338 360 q 335 363 338 360 q 333 361 335 363 q 332 360 332 361 q 331 360 332 360 l 329 358 q 328 356 328 357 m 444 428 q 446 431 446 428 q 443 432 446 431 q 439 429 442 432 q 438 428 438 429 q 436 428 438 428 q 435 426 436 426 q 429 419 431 422 q 428 418 428 419 q 414 404 422 415 q 408 397 413 401 q 403 392 406 394 q 399 388 401 390 q 388 378 393 383 q 379 368 382 374 q 376 366 378 367 q 374 364 375 365 q 363 357 368 361 q 353 349 358 353 l 353 347 q 346 340 347 343 q 347 339 346 339 q 347 338 347 339 q 350 336 347 338 q 358 340 354 336 q 372 353 363 347 l 374 354 q 383 364 378 356 q 386 365 385 364 l 397 376 l 406 385 q 444 428 425 404 m 458 447 q 456 449 457 449 q 451 446 454 449 q 449 442 449 443 q 451 438 449 440 l 453 438 q 454 439 454 438 l 456 440 q 457 442 457 440 q 458 443 457 443 q 458 444 458 443 l 458 447 m 471 460 l 469 461 q 465 461 465 465 q 463 460 464 461 q 465 456 463 456 l 465 454 l 467 454 q 468 456 468 454 l 469 456 l 469 457 q 471 458 469 458 l 471 460 m 451 486 q 448 480 449 483 q 444 474 447 476 q 431 459 438 467 q 418 444 425 451 l 415 440 q 410 436 413 438 q 400 422 401 428 q 392 415 396 419 q 385 407 389 411 q 383 406 383 407 q 382 406 383 406 q 381 403 381 404 q 379 401 381 403 l 376 399 q 369 393 371 396 q 374 389 369 390 l 374 388 l 375 388 l 376 388 q 378 389 376 389 q 379 390 378 389 l 381 392 l 382 393 l 382 394 q 385 400 382 397 q 390 404 388 403 q 392 403 390 403 l 393 404 l 394 404 l 394 406 l 394 407 q 396 408 396 407 q 399 412 397 410 q 401 414 400 414 q 410 424 404 418 q 413 426 411 425 q 415 429 414 426 q 428 440 419 432 q 463 493 447 464 q 472 513 467 499 l 472 514 q 471 515 472 515 q 465 511 469 515 q 463 507 463 511 q 457 497 460 506 q 456 494 456 496 l 456 493 q 453 490 454 490 q 451 486 453 489 m 289 322 q 294 318 293 318 l 296 319 q 297 322 297 321 l 297 324 l 297 325 q 296 326 296 325 q 294 326 296 326 l 293 326 q 292 325 292 326 l 290 325 l 290 324 l 289 322 m 278 314 q 276 311 276 313 q 281 307 276 307 q 282 308 282 307 q 283 308 282 308 l 286 311 l 286 314 l 286 315 q 285 316 285 315 q 283 317 285 317 l 282 317 l 281 317 q 279 315 281 315 l 279 314 l 278 314 m 268 304 q 263 299 267 303 q 260 293 258 296 q 261 292 260 292 q 267 293 264 292 q 270 297 268 294 q 272 303 272 300 q 268 304 272 306 z "},"3":{"ha":593,"x_min":3,"x_max":585,"o":"m 501 781 q 551 754 533 772 q 577 710 569 736 q 582 653 585 685 q 568 588 579 622 q 533 506 556 547 q 479 426 510 464 q 531 344 515 399 q 532 218 547 290 q 481 115 519 157 q 392 47 443 72 q 285 13 342 22 q 176 8 228 4 q 96 39 128 13 q 45 99 64 65 q 18 163 26 132 q 8 206 10 194 l 8 210 l 8 211 q 5 240 6 225 q 3 269 4 254 l 3 286 q 6 303 3 294 q 10 317 8 310 q 17 329 13 324 q 27 344 24 338 q 35 354 31 351 q 39 357 38 357 l 40 358 q 42 360 42 360 q 44 361 43 360 q 53 364 50 364 q 66 365 60 367 q 78 356 72 364 q 84 336 89 342 q 76 333 79 331 q 71 334 74 336 q 69 324 68 332 q 70 303 71 314 q 71 282 69 293 q 72 268 71 275 q 72 254 72 261 q 74 246 74 251 l 74 243 q 74 238 74 240 q 75 233 75 236 q 116 123 83 167 q 204 76 149 79 q 265 81 224 75 q 347 106 306 88 q 422 160 389 125 q 461 253 456 196 q 453 324 464 296 q 428 369 443 351 q 424 375 426 372 q 379 352 399 358 q 353 343 360 346 q 328 341 342 340 q 306 349 315 342 q 304 360 299 354 q 311 365 307 363 q 369 408 340 379 q 405 448 390 429 q 422 471 419 467 q 426 476 425 474 q 429 479 428 478 q 478 558 458 519 q 508 629 499 597 q 515 684 518 661 q 493 715 511 707 q 453 713 478 721 q 401 687 429 704 q 343 646 374 669 q 286 597 313 622 q 239 549 260 572 q 208 508 218 525 q 189 462 193 482 q 185 426 185 442 q 188 401 185 411 q 194 388 192 392 q 189 379 196 379 q 181 381 185 379 q 158 395 165 386 q 146 415 150 404 q 140 440 140 426 q 190 588 132 514 q 347 733 247 663 q 426 781 396 769 q 474 793 457 793 q 501 781 493 793 m 253 632 q 251 631 251 632 q 253 631 251 631 q 254 629 253 631 q 266 636 257 629 q 278 646 275 643 l 282 650 q 294 660 286 654 q 297 661 296 661 q 299 663 297 661 q 311 671 304 664 l 313 672 q 313 674 313 674 q 314 676 314 675 q 312 677 313 676 q 308 678 311 678 q 304 676 306 678 q 286 663 293 669 q 281 658 283 660 q 275 654 278 657 l 271 650 q 260 642 265 646 q 253 632 256 638 m 243 626 q 244 624 243 624 q 247 621 244 621 q 249 622 247 621 q 251 624 250 622 q 250 626 251 626 l 250 628 l 250 629 l 249 629 l 246 629 l 246 628 q 244 626 244 628 l 243 626 m 236 617 q 239 614 239 614 l 240 614 l 240 615 l 240 614 l 240 615 l 242 615 q 243 617 242 615 q 242 618 243 618 q 239 621 239 621 q 238 622 239 622 q 238 621 238 622 l 236 621 l 236 619 l 236 618 l 236 617 m 343 671 q 350 676 350 675 q 350 679 350 678 l 349 681 q 342 676 347 681 q 333 670 338 674 q 325 664 329 667 q 321 661 322 661 q 317 658 318 658 q 313 654 315 657 q 301 646 304 649 q 299 644 300 644 q 297 643 299 644 q 289 638 292 640 q 282 632 285 633 q 281 630 281 631 q 279 628 281 629 q 265 615 274 624 q 259 608 263 611 q 253 600 256 604 q 251 599 251 600 q 250 599 251 599 l 249 597 q 241 590 244 594 q 235 583 238 586 q 232 579 232 581 q 231 578 231 579 q 224 571 224 571 q 225 568 224 571 l 226 568 q 231 569 229 568 l 231 571 l 232 571 q 246 585 239 575 l 251 590 q 255 593 254 592 q 258 597 256 594 q 260 599 258 597 q 274 610 268 607 q 279 615 276 613 q 285 621 282 618 q 297 631 292 626 q 308 642 303 636 q 310 643 310 643 q 313 644 311 643 q 317 649 315 647 q 321 653 319 650 q 328 658 322 653 l 329 660 q 335 663 329 660 q 340 667 338 665 q 343 671 342 668 m 533 640 q 538 638 533 638 l 539 638 l 540 638 l 540 639 l 540 640 l 540 642 l 540 643 q 538 644 540 643 q 533 643 535 644 l 533 642 l 533 640 m 526 621 q 528 619 526 621 q 532 618 528 618 q 533 617 532 617 q 535 618 535 617 l 535 619 l 536 621 l 536 622 l 536 624 l 536 625 l 536 626 q 529 626 532 631 q 528 625 528 626 q 526 624 526 625 l 526 622 l 526 621 m 524 610 q 522 608 522 610 q 526 604 522 606 l 528 604 l 529 606 l 529 607 l 529 608 l 531 608 l 531 610 q 529 611 531 610 q 526 613 528 611 q 525 612 525 613 q 524 611 525 611 l 524 610 m 514 586 q 517 585 515 585 l 518 585 q 519 586 519 585 q 521 588 521 586 q 522 589 522 588 l 521 590 q 517 592 519 592 q 515 590 517 592 l 515 589 q 514 588 514 589 l 514 586 m 508 571 l 511 568 q 514 569 513 568 l 514 572 q 517 575 517 572 q 513 579 517 576 l 511 579 l 511 578 l 510 578 l 510 575 q 508 574 508 575 l 508 572 l 508 571 m 499 554 q 500 549 499 550 l 503 549 q 508 554 507 549 q 510 563 511 560 q 507 564 508 563 q 501 560 504 564 q 499 554 499 557 m 440 461 q 439 458 440 460 q 438 454 435 454 q 439 453 438 453 q 443 456 440 453 q 452 464 446 457 q 460 475 458 471 q 464 479 460 476 q 469 488 469 482 q 474 494 472 490 q 479 501 476 499 q 485 511 481 503 q 485 513 485 513 q 486 515 486 514 q 488 518 488 517 q 490 523 489 521 q 493 528 492 525 q 494 529 493 528 l 494 531 q 497 536 497 533 l 497 538 l 497 539 q 494 540 496 540 q 483 525 489 536 l 478 514 q 471 505 475 510 q 464 494 467 500 q 458 487 461 490 q 453 479 456 483 q 447 472 449 475 q 444 467 447 469 l 443 465 q 440 461 440 463 m 408 74 q 413 79 413 78 q 408 82 410 82 q 401 79 404 82 q 399 76 399 79 q 404 71 399 71 q 406 72 404 71 q 408 74 407 74 m 424 88 l 421 90 l 419 90 l 418 90 l 418 89 q 415 88 417 89 l 414 86 l 414 85 q 418 82 417 82 q 421 83 419 82 q 424 86 421 83 l 424 88 m 432 94 q 431 96 432 94 l 429 97 l 428 97 l 426 96 q 425 94 426 96 l 425 93 l 425 92 l 426 92 l 426 90 l 429 90 l 431 90 q 432 92 432 90 l 432 94 m 433 124 q 440 129 436 126 q 444 135 443 132 q 454 147 450 143 l 456 149 q 468 169 463 160 q 476 185 472 178 q 479 196 479 193 q 478 197 479 197 l 478 199 q 475 196 476 199 q 464 178 474 193 q 451 158 457 168 q 444 146 446 147 q 431 132 436 140 q 420 122 425 126 q 410 113 415 117 q 405 110 407 111 q 400 108 403 110 q 387 100 393 104 q 374 93 381 96 q 365 86 365 89 q 371 83 368 83 q 381 86 375 83 q 403 100 393 93 q 429 121 415 107 q 433 124 431 121 m 451 110 q 451 113 454 113 l 451 114 q 449 115 451 114 q 442 111 446 115 q 440 108 440 110 q 446 101 440 101 l 447 103 l 447 104 q 450 107 447 104 q 451 110 450 108 m 460 118 q 460 120 460 119 q 461 122 461 121 l 461 124 q 457 125 460 125 q 456 125 457 126 l 456 124 q 454 122 454 124 l 453 122 l 453 121 l 453 119 q 457 117 456 117 q 458 118 458 117 l 460 118 m 493 196 q 486 174 488 183 q 485 172 486 174 l 483 171 l 483 169 l 483 168 q 483 166 483 167 q 482 164 482 165 q 481 163 482 163 q 481 161 481 163 l 479 161 l 478 160 q 476 158 478 158 l 476 157 l 476 156 l 476 154 l 476 153 q 474 149 476 151 l 474 147 q 472 146 472 147 q 472 144 471 146 q 469 142 469 144 q 467 138 468 139 q 465 136 465 138 l 464 135 q 463 133 464 135 q 461 132 461 133 l 461 131 q 463 129 461 129 q 465 128 463 128 q 468 131 468 128 q 476 139 471 133 q 483 151 481 144 q 485 153 483 151 l 485 154 l 486 154 l 486 156 l 486 157 q 494 169 486 161 q 499 179 497 174 q 504 192 501 185 q 507 213 504 199 q 510 227 510 219 q 513 242 511 235 l 513 244 q 511 254 513 251 q 508 257 511 257 l 507 257 q 506 254 506 257 l 506 250 q 504 243 504 249 l 504 239 q 504 230 504 235 q 503 221 504 225 q 500 213 503 218 q 499 209 500 210 q 499 206 499 208 q 493 196 496 200 m 485 238 l 485 236 q 486 235 485 235 l 489 235 l 490 235 l 490 236 q 492 238 492 236 l 490 238 l 492 238 l 492 239 l 492 240 q 490 242 492 242 l 490 243 l 489 243 q 485 240 486 243 l 485 238 m 481 218 q 479 210 476 214 q 482 208 479 210 l 483 208 q 485 210 485 208 q 486 213 485 213 l 486 214 l 486 215 q 486 219 490 219 l 486 221 l 485 221 q 481 218 481 221 m 510 511 q 522 535 517 521 q 531 558 528 549 l 531 561 l 528 561 q 518 549 522 558 q 511 532 514 540 q 507 521 510 526 q 503 514 504 518 q 499 506 501 510 q 489 490 493 494 q 486 486 488 488 q 483 482 485 485 q 469 467 475 471 q 465 458 465 463 q 467 458 467 458 q 469 457 468 457 q 478 461 474 457 q 482 467 481 464 q 486 474 483 471 q 489 476 489 476 q 495 487 492 482 q 501 499 499 492 q 504 501 501 499 q 510 511 510 510 m 538 574 l 538 575 q 538 576 539 575 q 535 579 535 579 q 532 575 532 579 q 531 571 529 572 q 533 568 531 568 l 535 568 q 536 569 536 568 l 536 571 l 538 571 l 538 574 m 544 592 l 543 592 l 543 593 q 539 593 539 593 l 539 592 q 538 590 538 592 q 542 586 538 588 q 544 588 543 586 l 544 589 l 544 590 l 544 592 z "},"4":{"ha":604,"x_min":11,"x_max":596,"o":"m 589 394 q 560 374 572 368 q 551 394 549 379 q 553 409 551 401 q 551 423 556 417 q 535 433 547 429 q 497 435 524 436 q 474 432 488 433 q 442 428 460 431 q 424 373 432 400 q 407 318 415 346 q 379 228 394 278 q 344 103 364 178 q 344 101 344 101 q 343 99 343 100 q 342 92 342 96 q 340 86 342 89 q 334 60 338 72 q 326 33 331 47 q 326 20 326 24 q 325 15 325 17 q 325 13 325 11 q 326 17 325 14 q 329 22 328 19 q 331 21 331 24 q 332 10 331 15 q 326 1 333 6 q 319 -1 322 -1 q 313 -1 315 -1 q 306 0 308 -1 q 296 11 301 3 q 277 56 281 35 q 274 93 274 76 q 279 122 275 110 q 283 140 283 133 l 285 140 q 294 183 289 168 q 297 194 297 193 q 300 207 296 196 q 331 314 314 260 q 363 418 347 368 q 278 406 322 413 q 197 394 235 400 q 128 384 158 389 q 83 376 97 379 l 82 376 q 81 376 81 376 q 79 375 81 375 q 63 372 74 375 q 56 368 58 371 q 49 363 54 365 q 30 369 42 358 q 15 386 18 379 q 14 404 11 393 q 15 409 14 407 q 15 413 15 411 l 17 413 q 18 415 15 414 q 19 416 19 415 q 21 417 19 417 q 78 508 49 461 q 140 597 108 554 q 152 614 146 607 q 164 629 158 621 q 185 661 174 646 q 208 690 197 676 q 228 712 219 703 q 239 725 236 721 q 240 726 239 726 q 243 733 240 728 q 256 748 244 736 q 281 757 268 760 q 285 756 283 757 q 288 754 285 756 l 289 754 l 289 753 q 285 747 289 750 q 279 740 282 744 q 274 735 276 738 q 269 731 272 733 q 267 725 267 728 q 272 725 268 722 q 279 733 275 728 q 286 740 283 738 q 288 743 288 742 q 292 746 289 744 q 294 747 293 746 q 297 744 294 747 q 299 738 301 742 q 294 734 299 735 q 289 731 289 733 q 290 731 288 729 q 294 731 292 732 q 296 729 294 729 q 299 724 297 728 q 293 714 300 721 l 293 713 q 288 706 289 708 q 285 703 286 704 q 283 700 285 701 q 277 685 281 694 q 267 668 274 676 q 240 629 257 654 q 210 589 222 604 q 204 581 207 586 q 199 572 201 576 q 178 538 185 551 q 165 513 171 525 q 150 485 158 500 q 125 446 142 471 q 249 474 178 460 q 389 497 321 489 q 399 527 394 513 q 407 554 404 542 q 433 624 419 594 q 461 686 446 654 q 472 710 467 697 q 485 739 478 724 l 486 740 q 488 749 486 746 q 495 767 489 751 q 513 790 501 783 q 514 791 514 790 q 515 792 514 792 q 518 792 517 792 q 521 793 519 793 q 540 792 535 793 q 547 786 544 790 q 557 771 549 781 q 565 756 561 765 q 567 740 569 747 q 565 735 565 738 q 563 731 564 733 q 560 722 560 722 q 550 701 558 715 q 536 675 542 686 q 531 662 532 665 q 529 656 531 658 q 526 649 528 653 q 519 633 525 644 q 511 616 515 625 q 503 597 507 607 q 485 553 494 576 q 467 503 476 529 q 535 497 507 503 q 574 474 563 490 q 589 447 583 461 q 595 422 594 436 q 589 394 596 407 m 375 332 q 378 341 376 335 q 381 350 381 347 q 381 353 381 353 q 382 357 382 354 l 386 365 q 388 372 386 368 q 389 382 389 376 l 388 383 l 386 383 q 381 372 381 379 q 377 363 378 368 q 375 354 376 358 q 368 332 374 344 l 368 331 q 371 326 368 326 q 375 332 372 326 m 340 288 q 339 283 339 285 q 338 281 338 282 l 338 279 q 342 276 340 276 q 347 283 344 276 q 349 290 349 286 q 347 292 349 292 q 347 293 347 293 q 346 292 346 293 l 344 292 q 340 288 342 292 m 333 267 q 333 264 333 265 q 332 261 332 263 q 336 258 335 258 l 338 258 l 339 260 l 339 263 q 340 264 340 263 l 340 267 l 340 268 q 335 269 336 271 q 333 267 335 268 m 329 250 q 328 247 328 249 l 328 246 q 332 244 328 244 q 335 246 333 244 l 335 247 l 335 249 l 335 250 l 333 251 q 329 251 329 251 l 329 250 m 317 214 q 317 211 315 213 q 319 210 317 210 l 322 210 q 325 215 325 211 l 325 217 q 326 224 326 217 q 326 225 328 224 l 324 225 l 322 225 q 318 221 319 225 q 317 218 317 219 l 317 214 m 313 199 q 312 197 313 197 q 311 193 311 196 q 315 192 313 192 l 317 192 l 318 193 l 318 196 q 319 197 319 196 l 319 200 l 319 201 q 314 201 315 203 q 313 199 314 201 m 308 182 q 307 181 307 182 q 311 176 307 178 l 313 178 q 314 179 313 178 l 314 181 l 314 182 l 314 183 q 313 183 314 183 q 308 183 310 185 l 308 182 m 300 157 q 300 156 300 157 q 301 154 300 154 l 303 154 q 306 156 304 154 q 307 160 307 157 q 306 161 307 160 l 301 161 l 300 161 l 300 160 l 300 158 l 300 157 m 293 138 q 299 136 296 136 q 301 138 299 136 l 303 139 l 303 140 l 303 143 q 304 144 304 143 q 303 144 304 144 l 303 146 l 300 146 q 299 147 299 146 l 297 147 l 296 147 l 294 147 l 294 146 l 294 144 q 293 143 294 143 l 293 142 l 293 140 l 293 138 m 293 118 q 294 119 293 118 q 296 122 296 121 q 294 124 296 124 q 292 125 294 125 l 290 125 q 289 124 289 125 l 289 122 l 289 121 l 289 119 l 289 118 l 290 118 l 293 118 m 343 221 q 347 238 343 231 q 350 247 350 240 q 351 249 350 249 q 351 251 351 250 q 354 258 351 253 q 357 274 357 269 q 360 284 360 279 q 364 294 361 289 l 367 304 q 368 315 369 315 q 367 317 368 317 q 364 315 365 317 q 360 303 363 314 q 358 299 358 300 q 357 294 358 297 q 351 274 354 281 q 350 272 350 272 q 349 269 350 271 q 347 267 349 269 l 349 267 q 344 256 346 261 q 342 247 342 251 l 342 244 l 343 244 q 338 225 340 235 q 332 206 335 215 q 323 172 328 189 q 314 138 318 154 q 313 136 313 138 q 310 132 311 136 q 310 126 308 128 q 311 125 310 125 q 315 132 315 125 l 315 135 q 323 146 321 138 q 328 163 325 154 l 328 168 q 333 188 331 178 q 339 207 336 197 l 340 213 q 342 217 342 215 q 343 221 342 218 m 408 383 q 414 398 411 392 q 415 407 417 404 q 413 408 414 408 l 411 407 q 400 375 406 397 q 396 364 397 367 q 391 348 393 356 q 386 335 389 340 q 381 319 383 326 q 376 304 379 311 q 369 281 374 293 q 363 257 365 268 q 360 252 361 254 q 358 247 360 250 q 353 228 356 238 q 349 208 351 218 q 345 199 347 206 q 344 192 343 193 q 346 190 346 192 l 347 190 q 354 203 349 192 q 359 219 357 211 q 364 238 361 228 q 367 247 365 242 q 369 256 368 251 q 372 266 371 261 q 375 276 374 271 q 379 288 376 279 q 385 308 385 301 l 385 311 q 392 337 389 324 q 400 363 396 350 q 403 369 403 368 q 406 378 406 375 q 408 383 406 378 m 294 468 q 294 465 293 467 q 301 464 296 464 q 317 467 308 464 l 319 467 q 340 469 326 467 q 346 471 343 471 q 351 472 349 471 q 358 473 354 472 q 364 474 361 474 q 379 476 371 475 q 394 478 388 478 l 396 478 q 415 478 406 478 q 435 479 424 478 q 438 478 438 478 q 442 479 439 479 q 443 482 442 479 q 431 488 443 490 q 404 486 417 488 q 378 482 392 485 q 357 479 371 482 q 342 476 353 479 q 319 474 328 474 q 307 471 318 474 q 296 468 299 468 l 294 468 m 271 461 l 272 461 l 274 461 q 278 460 275 460 q 283 464 281 460 q 282 467 283 464 q 281 468 282 468 q 279 467 279 468 q 278 467 279 467 q 275 467 278 467 q 271 463 272 467 l 271 461 m 251 460 l 251 458 q 254 457 251 458 q 258 458 257 457 l 258 463 q 257 464 258 464 l 256 464 l 254 464 l 253 464 q 251 463 251 464 l 251 461 l 251 460 m 242 415 q 242 421 242 415 l 240 421 l 239 421 l 238 421 q 236 419 236 421 l 236 418 l 236 417 l 236 415 l 239 415 l 239 414 l 240 414 q 242 415 240 414 m 258 417 q 261 419 261 417 l 261 421 q 260 422 261 422 q 260 424 260 422 l 260 425 q 258 426 260 426 l 257 426 l 256 426 l 254 426 l 254 425 l 253 425 q 251 424 253 425 l 251 422 l 251 421 l 251 418 q 253 417 253 418 q 254 417 253 417 l 256 417 l 257 417 l 258 417 m 272 421 q 273 424 274 424 q 272 426 272 425 q 271 428 272 426 l 269 428 q 268 426 269 428 l 267 426 l 267 425 q 269 421 267 421 l 271 421 l 272 421 m 293 426 q 292 429 293 428 l 290 429 q 286 429 288 431 l 286 428 q 288 425 286 425 q 289 424 288 424 l 290 424 l 292 424 q 293 425 292 424 l 293 426 m 308 428 q 307 432 308 431 q 304 432 307 432 q 301 433 303 432 q 299 431 299 433 q 300 426 299 428 q 301 425 300 425 q 303 426 301 426 l 306 426 q 308 428 307 426 m 328 432 q 325 438 328 436 l 324 438 q 318 436 321 438 q 315 435 317 436 q 314 433 314 435 q 314 429 314 433 q 319 428 315 428 q 325 428 322 428 q 328 432 328 429 m 349 432 q 350 435 350 433 l 350 438 q 349 438 349 438 q 347 439 349 439 l 346 439 q 343 436 343 439 q 344 433 343 433 q 346 432 344 432 l 347 432 l 349 432 m 363 433 q 364 435 364 433 l 365 435 l 365 439 q 363 440 364 440 l 361 440 l 358 440 q 357 440 357 440 q 356 439 357 439 q 357 433 356 435 l 358 433 l 360 433 l 361 433 l 363 433 m 374 442 q 371 440 372 442 q 371 438 369 439 q 372 436 371 436 q 375 435 374 435 l 378 435 l 381 435 l 382 435 q 386 439 386 435 q 382 443 386 443 q 376 442 378 443 l 374 442 m 532 460 q 551 458 542 458 q 564 456 561 457 q 567 457 565 456 l 567 460 q 556 463 565 461 q 534 467 546 465 q 513 469 522 468 q 503 471 504 471 q 487 470 494 471 q 471 469 479 469 l 463 469 q 429 469 446 469 q 397 467 413 468 l 396 467 l 394 467 q 344 460 372 467 q 333 458 338 458 q 322 456 328 457 q 274 447 299 451 q 226 438 250 442 q 212 435 226 438 q 181 428 197 432 q 149 420 164 424 q 133 415 135 417 l 133 414 q 135 411 133 411 l 136 411 q 149 413 140 411 q 167 417 157 415 q 188 422 178 419 q 204 425 199 424 q 207 426 206 426 q 224 429 215 428 q 240 433 232 431 q 253 436 247 435 q 267 439 260 438 q 288 440 278 438 q 310 444 299 442 q 323 447 317 446 q 335 449 329 449 l 343 449 q 369 453 357 449 q 376 453 372 453 q 382 454 379 454 q 447 463 418 461 q 468 464 458 464 q 489 464 478 464 l 508 464 q 517 462 511 463 q 532 460 524 461 z "},"5":{"ha":583,"x_min":7,"x_max":576,"o":"m 214 793 q 325 799 268 797 q 431 797 382 800 q 516 783 481 793 q 563 751 551 772 q 574 724 569 739 q 576 697 576 711 q 565 671 575 682 q 535 655 546 647 q 529 676 525 663 q 533 691 531 683 q 533 705 536 699 q 519 716 531 711 q 482 722 508 721 q 442 724 467 724 q 385 725 417 725 q 319 724 354 725 q 249 724 283 724 q 247 722 249 724 q 238 701 246 715 q 225 675 231 686 q 219 662 221 665 q 217 656 218 658 q 215 649 217 653 q 207 633 213 644 q 199 616 203 625 q 190 597 194 607 q 176 563 183 581 q 163 525 169 544 q 329 510 260 538 q 441 435 399 483 q 499 328 483 388 q 506 217 515 268 q 494 176 506 197 q 463 137 485 158 q 400 94 440 115 q 296 45 346 67 q 201 13 246 24 q 117 6 156 3 q 47 28 78 8 q 26 42 35 33 q 13 60 19 49 q 8 89 7 72 q 11 97 8 94 q 21 97 14 104 q 31 88 24 94 q 52 74 39 81 q 86 63 65 67 q 136 61 107 58 q 186 72 156 63 q 251 96 217 82 q 318 128 285 110 q 379 165 351 146 q 424 201 407 183 q 442 236 442 219 q 438 277 442 251 q 420 331 433 303 q 385 385 407 358 q 328 431 363 413 q 247 453 294 449 q 135 443 199 458 q 96 449 108 440 q 79 468 83 457 q 77 491 75 479 q 81 507 79 503 q 89 532 85 521 q 96 554 93 543 q 120 624 107 594 q 149 686 133 654 q 157 703 153 694 q 165 722 161 713 q 172 739 171 733 q 174 740 174 739 q 175 744 175 743 q 176 749 175 746 q 183 767 176 751 q 201 790 189 783 q 204 792 201 790 q 206 792 206 792 q 210 793 207 793 l 214 793 m 25 63 q 28 67 28 63 q 26 68 28 67 l 24 71 l 21 71 q 19 69 21 71 l 19 68 q 24 64 24 64 l 25 63 m 58 44 q 61 46 60 44 q 56 51 61 49 q 50 54 53 51 l 49 54 q 44 51 46 53 l 46 50 q 51 46 47 49 q 57 43 54 43 q 58 44 58 43 m 83 39 q 82 42 83 40 l 81 42 q 78 43 79 43 q 74 40 74 43 q 75 39 74 40 q 81 36 78 36 q 82 37 82 36 q 83 38 82 38 l 83 39 m 124 32 q 124 35 124 35 q 122 36 124 35 l 121 35 l 119 36 q 114 35 117 36 l 114 33 l 114 32 q 118 31 115 31 q 121 31 119 31 q 124 32 122 32 m 153 33 q 154 35 154 33 q 153 36 154 36 l 150 36 l 147 36 q 139 35 144 38 l 139 33 l 139 32 q 142 31 140 32 q 143 32 143 31 l 146 32 l 150 32 l 151 33 l 153 33 m 194 42 l 194 43 l 189 43 q 179 42 186 43 q 169 39 172 42 q 169 36 168 38 q 171 35 169 35 l 172 35 q 178 35 175 35 q 183 36 182 36 l 185 36 q 190 38 188 38 q 194 40 192 38 l 194 42 m 236 53 q 236 54 236 53 q 235 56 236 56 q 228 53 228 56 q 228 50 226 51 l 229 50 l 232 50 q 233 51 233 50 q 235 51 233 51 q 236 53 235 53 m 264 64 q 265 67 265 65 q 264 67 264 67 q 263 68 264 68 l 261 67 q 250 63 253 64 l 250 60 q 253 58 250 60 l 254 58 q 257 60 254 58 l 258 60 q 260 61 260 61 q 263 63 261 61 q 264 64 264 63 m 301 83 q 300 85 301 83 q 290 81 297 85 q 279 75 282 78 q 278 74 276 75 q 281 71 278 71 l 283 72 l 292 76 l 293 76 q 301 82 299 79 l 301 83 m 443 326 q 443 329 444 328 q 440 336 440 332 q 436 344 439 340 l 432 357 l 428 365 q 424 376 428 372 l 422 379 q 417 388 419 383 q 410 394 414 392 q 406 400 408 397 q 400 406 403 403 q 396 408 397 408 q 394 410 396 410 q 390 414 392 414 q 375 428 383 424 q 371 429 374 429 q 369 428 369 429 q 371 424 368 426 q 372 421 372 422 l 381 413 q 388 407 386 410 l 392 403 q 394 401 393 403 q 401 394 397 399 q 407 383 404 389 q 410 378 410 381 q 415 371 414 374 l 428 350 q 431 342 431 347 q 434 334 433 338 q 438 328 435 331 l 439 326 q 440 325 439 325 q 442 326 442 325 l 443 326 m 454 353 q 447 363 451 363 q 444 361 447 363 l 444 360 l 444 358 q 446 356 444 358 q 449 352 446 354 q 453 350 451 350 q 454 351 453 350 l 454 353 m 431 421 q 431 417 429 419 q 440 401 432 415 q 453 382 450 385 q 460 367 457 375 q 467 351 464 358 q 469 342 467 347 q 474 326 469 332 l 474 325 q 478 317 475 317 l 479 317 q 482 319 482 317 q 483 324 485 322 l 483 325 q 477 345 481 336 q 468 364 474 354 q 466 369 467 367 q 464 375 465 372 q 460 383 464 375 q 450 399 456 390 q 440 414 444 407 q 432 421 435 421 l 431 421 m 435 390 q 428 400 435 390 q 422 403 425 403 q 421 401 422 403 l 421 400 q 424 394 421 400 q 426 392 425 393 q 429 388 426 390 q 435 378 432 383 q 439 371 439 374 q 440 369 439 371 l 443 367 q 444 367 444 367 q 446 368 444 368 q 443 378 446 371 q 438 386 440 381 l 435 390 m 422 435 q 418 432 418 435 q 421 429 418 429 q 422 426 421 426 q 424 425 422 425 q 426 426 426 425 q 428 429 428 428 l 428 431 l 426 431 l 426 432 q 425 433 426 432 l 424 433 q 422 435 424 435 m 410 444 q 408 443 408 444 l 408 442 q 410 439 408 439 l 411 439 q 414 440 411 439 q 415 442 415 440 l 415 443 q 414 444 415 443 l 413 446 l 411 446 l 410 446 l 410 444 m 358 460 q 361 455 358 457 q 376 443 364 453 l 379 440 q 390 432 385 436 q 399 422 394 428 q 400 421 400 422 q 404 418 403 418 q 411 413 406 413 q 414 414 413 413 q 410 421 414 417 q 381 449 396 438 q 378 450 381 449 q 367 458 372 454 q 360 461 363 461 l 358 461 l 358 460 m 336 739 q 337 742 336 740 q 338 744 338 743 q 335 746 336 746 l 333 746 l 332 746 q 331 744 331 746 l 331 743 l 331 740 l 332 740 q 335 739 333 739 l 336 739 m 354 739 q 356 744 357 742 q 354 746 356 746 l 353 746 l 351 746 l 350 746 l 349 746 q 346 744 347 746 l 346 740 q 347 740 347 740 q 350 739 347 739 l 353 739 l 354 739 m 478 744 q 465 747 475 747 l 464 747 l 463 747 q 443 747 454 750 q 426 747 436 750 l 418 747 l 415 747 l 411 747 l 404 747 l 397 747 q 369 746 374 746 q 364 744 364 746 q 363 743 363 744 q 369 740 363 740 l 371 740 l 379 740 l 385 740 l 388 740 l 389 740 l 397 740 q 406 739 400 739 q 410 740 408 739 q 414 740 411 740 l 425 740 l 431 740 q 436 741 433 742 q 442 740 439 740 q 451 739 444 739 l 453 739 q 460 738 456 739 q 469 738 465 738 q 478 740 475 738 l 478 744 m 450 776 l 451 775 l 453 775 l 454 775 q 457 776 456 775 l 457 778 q 454 782 457 782 l 453 782 q 450 781 451 782 l 450 779 l 450 776 m 432 779 q 435 778 432 778 l 436 778 l 438 778 l 439 778 q 440 778 439 776 q 442 782 442 779 q 438 783 440 783 q 432 782 435 786 l 432 779 m 313 779 q 324 775 313 775 q 335 776 329 775 q 344 776 340 776 q 347 778 347 776 q 359 778 349 778 q 382 778 369 778 q 406 779 394 779 q 422 779 418 779 l 424 779 q 425 781 425 779 l 425 783 q 412 786 422 786 q 394 786 401 786 l 382 786 q 368 785 372 786 l 349 785 l 344 785 l 332 785 q 313 781 317 785 l 313 779 m 263 757 q 274 754 264 754 q 296 755 283 754 q 311 757 308 756 l 321 757 q 335 759 328 758 q 350 758 343 760 l 371 758 l 386 758 l 401 758 q 416 758 410 758 q 429 757 422 758 l 435 757 l 450 757 l 454 757 q 464 756 458 756 l 465 756 q 501 751 482 756 q 517 749 504 751 q 533 744 531 746 l 535 744 l 536 746 l 536 747 q 488 760 532 756 l 486 761 l 482 761 q 469 763 472 764 q 463 764 467 764 q 454 764 458 764 l 450 764 q 440 767 446 765 q 428 768 435 768 l 425 768 l 406 768 q 373 767 389 768 q 342 765 357 767 q 331 765 336 765 q 319 764 325 764 l 318 764 q 271 760 282 763 l 264 758 l 263 757 z "},"6":{"ha":635,"x_min":6,"x_max":624,"o":"m 615 669 q 613 567 624 624 q 612 565 613 565 q 611 564 611 565 l 611 563 q 608 549 610 556 q 606 538 607 543 q 603 530 604 533 q 600 522 601 526 l 600 521 q 592 507 597 518 q 578 489 588 496 q 565 479 569 483 q 554 472 560 475 q 552 472 553 472 q 550 471 551 471 l 549 471 q 547 470 547 471 q 544 469 546 469 l 536 469 q 519 478 525 469 q 517 483 517 481 q 517 501 513 499 q 525 501 522 504 q 528 499 528 499 q 533 508 532 500 q 538 526 536 517 q 543 544 540 535 q 544 549 544 546 q 549 564 547 560 l 549 565 q 551 657 557 617 q 531 719 547 692 q 474 744 514 746 q 465 744 469 744 q 454 743 460 744 q 450 742 451 743 q 384 723 421 738 q 308 679 347 708 q 230 605 269 650 q 156 493 190 560 q 204 510 175 501 q 269 515 233 518 q 324 508 294 514 q 381 491 353 503 q 435 460 410 479 q 479 415 461 442 q 492 392 486 404 q 503 367 499 381 q 506 353 504 360 q 508 340 507 347 q 503 239 515 292 q 464 139 492 186 q 387 53 433 89 q 278 10 340 18 q 274 8 276 8 q 126 35 188 -1 q 35 140 64 72 q 13 300 6 208 q 71 492 19 392 q 152 621 110 568 q 238 708 194 674 q 322 762 281 743 q 399 789 363 781 q 432 796 415 793 q 465 799 447 799 q 499 797 482 800 q 533 788 515 794 q 568 766 551 781 q 597 728 585 751 q 615 669 610 704 m 381 75 q 382 78 382 76 q 379 81 382 81 q 372 78 375 81 q 371 75 372 78 q 375 69 371 69 q 378 71 376 69 q 379 72 379 71 q 381 75 379 72 m 392 86 q 389 88 390 88 l 389 89 l 388 89 q 386 88 388 88 l 385 86 q 383 85 383 86 l 383 83 q 385 82 383 83 q 386 81 385 82 l 389 81 q 392 85 392 83 l 392 86 m 399 90 q 400 91 400 90 q 399 92 400 92 q 397 93 399 93 q 396 94 397 94 q 395 96 396 96 q 394 94 394 96 l 393 94 l 393 93 q 392 92 393 93 l 393 90 q 396 88 393 88 q 397 89 397 88 q 399 90 399 89 m 415 110 q 411 111 414 111 q 406 107 407 111 q 404 106 404 107 q 410 100 404 100 l 411 100 q 413 101 413 100 q 414 104 413 101 q 415 107 414 106 l 415 110 m 421 114 q 424 117 421 114 q 422 119 424 118 q 419 121 421 121 l 418 121 q 417 119 417 121 l 415 118 l 415 117 l 415 115 q 417 114 415 115 q 418 113 417 114 q 419 113 419 113 q 421 114 419 114 m 476 253 q 474 235 476 246 q 461 199 467 215 q 449 169 456 183 l 447 168 q 440 154 446 163 l 440 153 q 439 151 439 153 q 438 150 438 151 l 436 150 l 436 149 l 436 147 q 434 144 435 146 q 432 140 433 142 q 431 139 432 140 q 429 136 429 138 q 428 135 429 135 q 426 131 426 132 l 426 129 l 426 128 q 425 129 426 129 q 424 128 425 129 q 422 126 422 128 l 422 125 q 424 124 422 125 q 426 122 424 122 q 428 124 428 122 l 429 124 l 429 125 l 429 126 l 428 128 q 435 133 429 128 q 436 135 435 133 l 438 135 l 438 136 q 439 138 438 136 q 442 143 442 143 q 443 142 442 142 q 444 143 443 142 l 444 144 q 446 146 444 144 l 446 147 l 446 149 q 450 156 446 153 l 450 157 l 450 158 l 451 158 q 454 163 453 161 q 456 168 456 165 q 461 175 457 171 q 468 192 468 185 q 477 222 474 207 q 483 256 481 236 q 485 267 485 260 q 486 279 485 275 q 483 283 486 283 q 481 282 482 283 q 478 274 478 279 l 478 267 l 478 258 q 476 253 476 257 m 443 171 q 446 169 443 171 l 447 171 q 446 172 447 172 q 443 171 443 172 m 456 264 q 456 261 453 264 q 457 260 456 260 l 460 260 q 461 261 461 260 q 463 262 463 261 q 461 263 463 263 l 463 263 l 463 264 l 463 265 q 461 267 463 267 l 460 267 l 458 267 q 456 265 457 267 l 456 264 m 451 244 q 450 239 450 243 q 454 236 453 236 q 456 238 456 236 q 457 239 457 238 l 457 240 l 457 242 q 458 242 458 242 q 457 243 458 243 q 458 246 458 244 q 457 247 458 246 q 453 247 454 249 q 451 244 451 247 m 450 228 q 445 222 447 228 q 431 185 443 217 q 428 176 428 176 q 421 167 424 172 q 415 156 418 161 q 406 139 410 144 q 399 130 403 135 q 392 121 394 125 q 388 116 389 118 q 383 111 386 114 q 379 103 378 106 l 379 101 l 382 101 q 392 107 388 101 q 412 136 403 121 q 431 167 421 151 q 442 192 438 179 q 450 215 446 204 l 451 222 q 451 226 453 224 l 450 226 l 450 228 m 428 363 q 376 426 413 403 q 295 458 339 450 q 207 462 251 467 q 129 440 163 457 q 121 421 124 426 q 83 275 88 339 q 96 165 79 211 q 147 90 113 118 q 224 54 181 63 q 249 52 231 53 q 286 58 268 51 q 289 60 288 60 q 292 61 290 60 l 293 61 q 329 85 308 69 q 370 125 350 100 q 408 187 390 150 q 433 275 425 224 q 436 294 436 285 q 436 311 436 303 q 428 363 436 339 m 192 626 q 192 628 193 626 q 188 629 190 629 q 185 626 188 629 q 183 625 185 626 q 182 624 183 625 q 179 617 179 621 q 179 613 178 613 q 181 611 179 611 q 182 613 181 611 l 182 614 l 183 614 l 185 614 l 185 617 q 187 619 186 618 q 189 622 188 621 q 192 626 192 625 m 207 647 q 213 651 210 649 q 214 656 215 653 q 210 658 213 658 q 208 657 210 658 l 207 656 l 206 656 q 204 651 204 654 l 204 649 l 204 647 l 206 646 l 207 647 m 278 683 q 294 697 292 694 q 296 700 296 699 q 293 701 296 700 q 285 699 290 701 q 267 685 281 696 l 265 683 q 260 678 263 681 q 254 674 257 676 q 243 663 250 667 q 235 656 238 657 q 230 650 232 653 q 225 644 228 647 q 221 640 222 643 q 219 635 219 638 q 224 632 219 632 l 226 632 q 230 635 228 633 q 236 643 232 636 l 238 644 l 238 647 q 247 658 239 650 q 258 668 256 667 q 265 674 260 671 q 278 683 271 678 m 308 704 q 308 707 310 706 l 308 708 q 307 709 307 708 q 306 710 307 710 l 304 708 q 301 707 301 708 q 300 704 300 707 l 301 703 l 301 701 l 303 701 l 304 701 l 306 701 l 307 703 l 308 703 l 308 704 m 303 722 q 315 728 314 726 q 315 731 315 729 q 313 732 315 731 q 276 715 306 732 q 275 714 276 714 q 267 708 271 711 q 260 703 264 706 l 247 694 q 238 688 242 692 q 229 682 233 685 q 226 678 229 681 q 217 667 218 672 q 215 663 214 664 q 219 660 215 660 l 221 660 q 228 667 224 661 l 229 667 q 247 683 243 679 q 253 689 251 688 q 256 691 254 690 q 260 694 257 692 q 278 707 276 704 q 281 710 278 708 q 285 712 283 711 q 294 715 288 713 q 297 716 296 715 q 299 717 297 717 l 300 718 q 303 719 301 718 l 303 722 m 322 711 q 318 714 318 714 l 315 714 q 317 708 315 710 q 318 707 317 707 l 319 707 l 319 708 l 321 708 l 321 710 q 322 711 322 710 m 329 732 q 331 735 329 732 q 329 738 331 738 q 326 738 329 740 q 321 736 324 739 l 321 735 l 321 733 q 318 728 318 731 l 318 726 l 319 725 l 321 725 l 322 725 q 325 726 324 726 l 326 726 l 326 728 q 329 732 329 731 m 344 738 q 346 739 346 738 q 344 740 344 739 q 342 743 342 743 l 340 743 l 339 742 l 339 740 l 339 736 l 340 736 l 342 736 l 343 736 l 344 736 l 344 738 z "},"7":{"ha":560,"x_min":7,"x_max":556,"o":"m 443 718 q 305 712 376 714 q 173 713 233 710 q 71 724 113 715 q 21 749 29 732 q 10 776 14 761 q 7 803 7 789 q 17 829 7 817 q 47 847 36 854 q 54 825 57 839 q 49 810 51 818 q 50 797 47 803 q 64 785 53 790 q 101 779 75 781 q 160 779 117 778 q 261 783 203 781 q 385 788 319 785 q 514 793 451 790 q 522 793 518 794 q 525 792 524 793 q 528 792 526 792 q 544 781 544 786 q 547 773 546 776 q 550 763 547 769 q 554 745 553 756 q 551 731 556 735 q 549 726 549 728 l 544 722 q 539 715 540 715 q 524 697 536 708 q 504 676 513 686 q 495 665 497 668 q 492 660 493 663 q 487 655 490 658 q 475 642 483 651 q 462 627 468 635 q 449 611 456 619 q 371 506 413 565 q 289 382 329 446 q 266 349 276 364 q 244 317 256 335 q 218 278 232 300 q 185 222 204 256 q 183 220 183 221 q 182 218 183 219 l 149 160 q 143 150 146 154 q 138 140 140 146 q 121 99 126 115 q 111 69 115 83 q 108 58 108 63 q 106 50 107 53 q 104 44 104 46 q 106 28 101 35 q 110 15 111 21 q 108 5 108 10 q 100 -3 108 0 q 85 1 93 -7 q 79 10 81 6 q 74 24 76 15 q 71 63 69 42 q 74 94 72 79 q 82 129 76 110 q 98 179 89 154 q 115 224 107 204 q 128 258 122 244 q 136 275 135 271 q 138 276 138 275 l 138 275 q 158 314 147 296 q 174 340 161 318 q 203 385 188 361 q 232 431 218 410 q 249 457 246 453 q 275 496 263 479 q 299 528 288 513 q 324 563 311 544 q 356 608 338 582 q 390 656 375 638 q 419 692 404 674 q 431 705 425 699 q 443 718 436 711 m 199 342 q 188 326 190 329 q 186 319 186 322 q 188 319 188 319 q 189 318 188 318 q 193 322 190 318 q 210 344 196 325 l 210 346 l 214 354 q 219 361 217 357 q 224 368 221 365 q 226 370 225 369 q 229 374 228 371 q 235 382 232 378 q 242 392 239 386 q 240 393 242 392 q 238 394 239 394 q 221 376 231 394 q 220 375 221 375 q 219 374 219 375 q 215 366 217 369 q 210 358 213 363 q 205 351 207 356 q 200 344 203 347 q 199 342 200 344 m 179 310 l 179 308 q 182 307 181 307 q 185 308 185 307 q 188 311 188 311 l 188 314 l 186 314 q 182 315 183 317 l 181 315 l 181 314 q 179 313 181 313 l 179 311 l 179 310 m 172 299 l 174 297 q 175 297 175 297 q 176 296 175 296 l 178 297 q 179 300 179 299 l 179 301 l 178 301 q 175 303 176 303 l 174 303 l 174 301 l 172 301 l 172 300 l 172 299 m 288 418 q 286 419 288 419 q 283 422 283 422 q 281 421 282 422 l 281 419 l 279 419 l 279 418 l 279 417 q 278 415 278 417 l 275 413 q 269 406 274 410 q 267 400 268 403 q 263 394 265 397 q 251 379 258 386 q 247 372 250 378 q 246 370 246 371 q 244 368 246 369 q 239 361 242 365 q 233 354 236 357 q 222 340 226 347 q 211 325 217 332 q 202 311 207 319 q 193 296 197 303 l 190 292 q 185 283 188 286 q 181 277 185 283 q 174 264 178 271 q 167 251 171 257 q 164 243 164 244 l 165 243 l 167 243 q 173 249 169 243 q 186 271 176 256 q 189 276 189 276 q 192 281 190 279 q 194 286 193 283 q 200 293 197 288 q 201 296 201 294 q 203 299 201 297 l 210 306 q 215 313 214 310 q 238 343 229 329 q 243 353 239 344 q 249 360 246 360 l 249 361 q 250 363 250 361 q 251 365 250 363 q 254 371 251 368 l 256 372 q 257 374 257 372 l 258 374 l 258 376 q 263 383 261 379 q 267 389 264 386 q 269 392 268 392 q 272 394 271 393 q 275 399 274 397 q 278 403 276 400 q 283 411 281 408 q 286 417 286 417 l 288 418 m 294 429 q 294 432 294 429 l 293 432 q 292 433 293 433 l 289 433 l 289 432 q 288 431 288 432 l 288 429 l 288 428 l 289 428 q 290 426 289 426 l 293 426 l 293 428 q 294 429 294 428 m 308 450 q 303 451 303 456 q 301 450 301 451 q 303 446 300 449 q 304 444 303 444 l 306 444 q 307 446 306 444 l 307 447 l 308 447 l 308 449 l 308 450 m 318 463 q 319 463 319 463 q 318 464 319 464 q 314 467 317 467 l 311 467 l 310 465 q 308 464 310 465 l 308 463 l 308 461 q 307 460 307 461 q 308 460 307 460 q 313 457 308 457 q 314 456 313 456 q 315 457 315 456 q 317 458 315 457 q 318 460 317 460 l 318 461 l 318 463 m 328 478 q 326 481 328 481 q 322 481 322 485 q 321 479 321 481 q 324 475 317 475 l 324 474 l 325 474 l 325 475 l 326 475 l 326 476 q 328 478 328 476 m 58 742 q 61 743 60 742 q 63 746 61 744 l 63 747 l 61 747 l 60 747 l 60 749 l 58 749 q 57 750 58 749 l 56 749 l 56 747 q 53 746 53 747 q 56 743 53 746 q 57 742 56 742 l 58 742 m 89 735 q 92 738 92 735 q 88 742 93 742 l 86 742 l 85 742 l 82 742 q 78 739 78 742 q 83 735 78 738 l 88 735 l 89 735 m 294 735 l 294 736 l 294 738 q 293 739 294 738 l 292 739 l 292 738 l 290 738 q 289 739 290 739 l 289 738 q 279 740 283 740 q 275 740 276 740 q 271 739 274 739 l 264 739 q 251 739 257 739 q 239 738 246 739 q 228 738 233 738 q 217 736 222 738 q 192 737 213 736 q 151 738 172 738 q 124 738 136 738 q 108 739 113 739 q 106 736 106 739 q 107 735 106 736 q 108 734 107 735 q 117 733 110 733 q 138 731 124 732 q 175 731 151 731 l 176 731 q 196 729 182 729 l 218 729 q 226 730 222 729 q 233 731 231 731 l 242 731 l 247 731 l 253 731 q 263 729 258 731 l 267 729 l 274 729 l 275 729 l 276 729 q 280 730 279 729 q 282 731 281 731 q 285 730 285 731 q 288 729 286 729 l 290 729 l 290 728 q 292 729 292 728 l 293 729 q 294 731 294 729 l 294 735 m 306 736 q 304 738 306 736 l 303 738 l 301 738 l 300 738 l 300 736 l 300 735 l 300 732 l 301 732 q 303 731 301 731 l 304 731 q 306 732 304 731 l 306 736 m 322 732 q 324 733 324 732 l 324 735 l 324 736 l 322 738 l 321 738 l 319 738 q 318 736 318 738 l 318 735 l 318 732 q 319 731 318 731 l 321 731 l 322 731 l 322 732 m 338 738 l 335 738 l 333 738 q 332 739 333 739 q 329 738 331 739 l 329 736 l 329 732 l 331 732 l 332 732 l 335 732 l 336 732 l 338 733 l 338 738 m 353 732 q 356 736 356 732 q 353 740 356 740 q 349 741 350 742 q 347 740 349 740 q 344 739 344 740 l 342 739 q 341 737 342 738 q 343 733 340 736 q 346 732 344 732 l 349 732 l 350 732 l 353 732 m 375 733 q 376 735 375 735 q 376 738 376 736 q 375 739 376 738 q 374 740 375 740 l 371 740 q 369 738 369 739 l 369 736 l 369 735 l 371 733 l 372 733 l 374 733 l 375 733 m 390 738 q 389 740 390 739 q 385 740 385 740 q 381 740 385 740 l 381 736 l 381 735 l 382 735 l 383 735 l 385 735 q 386 735 385 733 l 388 735 l 389 735 l 389 738 l 390 738 m 408 739 q 400 743 406 743 q 394 740 396 743 q 396 739 394 740 q 400 735 396 735 l 401 735 l 403 735 q 408 739 408 735 m 39 769 q 50 764 40 767 q 70 758 60 761 q 90 754 81 756 q 99 753 99 753 q 118 751 104 751 l 132 751 l 149 751 q 155 751 151 751 q 163 750 158 750 l 168 750 l 174 750 q 188 751 178 751 l 194 751 l 201 751 l 213 751 l 250 751 q 259 753 254 753 q 268 753 264 753 q 279 751 272 751 q 301 754 288 751 l 311 754 l 329 754 l 336 754 l 340 754 q 353 756 349 754 l 364 756 l 368 756 l 376 756 l 385 756 q 397 758 396 756 l 399 760 q 396 761 399 761 q 392 762 394 761 q 382 763 389 763 l 360 763 l 353 763 q 344 762 349 763 q 335 761 339 761 l 313 761 l 290 761 l 286 761 q 278 760 282 760 q 272 761 275 761 q 261 763 268 763 l 258 763 l 239 763 q 228 761 236 761 q 219 763 222 761 l 210 763 q 197 760 203 763 q 181 761 192 761 q 167 760 174 761 q 153 760 160 760 q 140 759 146 760 q 126 758 133 758 l 114 758 q 101 760 111 758 q 78 765 90 763 q 54 770 65 768 q 42 772 43 772 l 40 772 q 39 772 40 774 l 39 769 z "},"8":{"ha":625,"x_min":4,"x_max":617,"o":"m 188 14 q 106 49 142 24 q 47 114 69 75 q 14 203 24 153 q 11 310 4 253 q 49 412 25 378 q 90 458 74 446 q 153 490 124 481 q 165 494 160 493 q 178 497 171 496 q 215 504 197 503 q 249 506 232 506 q 229 562 232 531 q 250 629 226 593 l 251 629 q 342 730 292 686 q 440 792 392 774 q 506 801 475 804 q 561 774 538 799 q 576 767 569 772 q 590 749 583 761 q 600 714 596 738 q 603 679 603 699 q 603 633 604 660 q 601 617 603 622 q 601 607 601 611 q 600 597 600 603 q 599 591 600 594 q 599 583 599 588 q 592 548 597 569 q 578 503 588 526 q 552 457 568 479 q 513 421 536 435 q 533 408 524 414 q 551 393 543 401 q 589 350 574 374 q 611 289 606 322 q 603 214 617 256 q 598 201 600 207 q 593 189 596 196 q 538 109 568 142 q 476 56 508 76 q 409 23 443 35 q 343 7 375 11 q 189 13 268 -4 l 188 14 m 456 67 q 469 76 463 72 q 475 82 475 81 q 475 83 475 82 l 474 83 q 453 74 468 83 q 436 61 439 64 l 435 60 q 420 52 428 56 q 406 46 413 49 l 401 46 q 378 38 379 42 q 372 33 372 36 q 379 28 372 28 q 385 31 382 28 q 409 39 397 33 q 433 51 421 44 l 436 53 l 456 67 m 489 93 q 486 94 489 94 q 483 93 483 94 q 481 90 481 93 q 482 86 479 89 l 483 85 l 485 85 l 485 86 q 486 88 485 86 q 488 89 488 88 q 489 90 488 89 l 489 93 m 501 103 q 497 104 500 104 l 496 104 q 494 103 494 104 q 496 97 494 100 l 497 97 l 499 97 l 500 99 l 501 100 l 501 101 l 501 103 m 504 132 q 524 158 528 154 q 522 160 524 160 q 503 140 514 156 q 498 135 500 138 q 494 131 496 132 q 485 121 489 125 q 475 113 481 117 q 465 104 469 107 q 463 102 464 103 q 460 100 461 101 q 450 96 456 96 q 439 89 443 93 q 419 76 429 82 q 400 67 408 71 q 370 54 385 60 q 342 44 356 49 q 324 42 339 44 q 299 36 310 39 q 286 33 288 33 q 285 31 285 32 q 290 28 285 28 q 315 31 300 28 q 333 36 331 35 q 349 39 340 36 q 364 44 357 42 q 368 46 367 46 q 372 47 369 46 q 397 55 386 50 q 417 65 407 60 q 432 72 424 68 q 444 81 440 75 q 460 92 453 85 q 462 93 461 93 q 464 94 463 93 q 467 96 464 94 q 472 99 469 99 q 475 103 474 100 q 490 116 483 110 q 503 129 496 122 q 503 131 503 131 q 504 132 504 131 m 567 557 q 567 556 565 557 q 568 554 567 556 l 571 554 l 572 554 l 574 556 l 574 557 l 574 558 l 572 558 q 571 560 572 560 l 569 560 q 567 558 567 560 l 567 557 m 565 549 q 564 546 564 547 q 569 543 567 543 l 571 543 l 571 544 l 571 546 l 571 547 q 571 549 572 549 l 571 550 l 569 550 l 568 550 q 565 549 567 550 m 567 540 q 561 533 563 538 q 558 522 560 528 q 557 518 557 519 q 556 515 557 517 q 555 513 556 514 q 554 511 554 513 q 551 503 551 507 q 547 497 550 500 l 543 493 q 535 485 538 490 q 532 481 532 483 q 539 475 532 475 q 542 476 540 475 q 543 479 543 478 q 545 482 544 481 q 547 485 546 483 q 549 488 547 488 q 551 492 549 489 q 560 510 561 504 q 561 514 560 511 q 564 519 563 517 l 567 525 l 567 526 q 568 532 567 531 q 569 535 568 535 q 569 538 569 536 q 568 539 569 539 q 567 540 568 540 m 549 574 q 535 532 544 551 q 529 521 532 529 q 528 518 528 519 q 526 515 528 517 q 525 514 526 515 q 521 504 521 507 q 517 500 518 501 q 514 496 517 499 l 513 494 q 506 485 510 489 q 496 474 501 481 l 494 474 q 491 471 492 472 q 489 468 490 469 q 490 465 489 465 l 492 464 q 495 465 493 464 q 504 474 497 467 q 512 482 508 478 q 518 489 515 486 q 521 493 518 490 q 525 501 522 496 q 531 506 528 506 l 532 506 q 533 507 532 507 q 536 510 533 507 q 540 519 539 514 q 544 529 542 524 q 547 536 544 533 q 551 553 550 544 q 554 571 553 563 l 556 572 q 556 599 557 586 q 553 606 556 606 q 550 599 550 606 q 549 588 549 596 l 549 574 m 503 736 q 466 732 488 742 q 419 703 444 722 q 394 681 411 697 q 363 650 378 665 q 332 610 347 635 q 321 578 325 596 q 320 543 317 561 q 336 508 324 525 q 375 479 349 492 q 431 470 404 465 q 480 492 458 475 q 515 538 501 510 q 532 596 529 565 l 532 599 l 532 604 l 532 607 q 530 686 535 651 q 510 732 525 721 q 506 734 507 733 q 503 736 506 735 m 321 650 q 322 649 321 650 q 326 647 324 647 q 333 651 329 647 q 340 660 338 656 q 343 663 343 663 l 349 668 q 356 676 350 671 q 358 677 357 676 q 360 678 358 678 q 365 685 365 683 q 368 688 365 685 q 381 697 378 694 q 383 703 383 700 q 381 704 383 703 q 374 701 378 704 q 367 694 371 697 q 357 686 361 690 l 353 682 q 346 676 350 679 q 339 669 342 672 l 338 668 q 328 660 333 664 q 321 650 324 656 m 385 708 q 386 706 386 707 q 388 704 386 706 l 389 704 q 390 706 389 704 q 392 707 392 706 l 393 708 l 393 710 q 392 711 393 710 q 389 713 392 711 l 388 713 l 386 711 q 385 710 385 711 l 385 708 m 396 717 q 396 715 394 717 q 397 713 396 715 l 399 713 l 400 713 q 401 714 401 713 l 401 715 l 401 717 q 399 719 401 719 l 397 719 q 396 718 396 719 l 396 717 m 283 633 q 282 628 282 631 l 283 628 q 286 629 285 628 q 294 640 288 631 l 296 642 l 297 644 q 310 660 306 656 q 313 663 310 660 q 318 669 317 667 q 324 674 321 672 q 326 675 325 675 q 328 676 326 675 q 338 685 332 679 q 349 699 346 693 q 374 722 361 711 q 401 743 388 732 l 403 744 q 410 751 410 750 l 408 753 q 403 751 406 753 q 393 744 399 750 l 392 744 q 385 740 390 743 q 376 733 381 736 q 368 725 371 729 l 356 717 q 340 703 344 708 q 333 699 339 701 q 322 688 328 693 q 314 676 317 682 q 313 675 314 675 l 313 674 q 303 664 308 669 q 296 651 299 658 q 292 646 293 649 q 283 633 285 639 m 85 307 q 83 199 74 246 q 115 119 92 151 q 172 68 138 86 q 244 47 206 50 q 320 58 278 46 q 403 92 363 69 q 481 147 446 114 q 532 222 517 181 q 535 231 535 228 q 535 281 543 257 q 508 325 526 304 q 467 361 488 346 q 405 399 436 385 q 358 419 374 414 q 349 424 353 422 q 239 432 285 436 q 194 425 214 431 q 160 411 175 419 q 108 365 124 392 q 89 322 93 339 q 87 315 88 318 q 85 307 86 311 z "},"9":{"ha":632,"x_min":7,"x_max":631,"o":"m 67 43 q 25 98 38 67 q 10 159 13 129 q 10 213 7 189 q 15 249 13 238 q 19 263 18 257 q 24 274 21 268 q 31 288 29 282 q 32 289 31 288 q 41 301 35 292 q 58 317 47 311 q 72 326 67 322 q 83 331 78 329 q 85 331 85 331 q 88 332 86 332 l 89 332 l 93 332 l 101 332 q 117 321 113 329 q 119 315 119 315 q 117 297 122 300 q 108 299 111 294 q 106 300 108 303 q 99 292 103 300 q 92 276 96 283 q 85 258 88 268 q 82 253 85 258 q 81 250 82 253 q 79 244 79 247 q 78 238 79 240 q 74 143 63 178 q 106 90 85 108 q 126 75 115 81 q 146 67 138 69 q 165 61 156 63 q 289 83 235 53 q 383 156 343 113 q 446 243 422 200 q 476 303 469 286 l 481 311 l 481 313 q 433 296 461 303 q 368 290 404 289 q 314 297 343 292 q 256 315 285 303 q 202 345 228 326 q 158 392 176 364 q 135 440 143 414 q 132 453 133 447 q 129 465 131 458 q 134 567 122 514 q 174 667 146 619 q 251 752 204 717 q 360 797 297 788 l 364 797 q 510 772 449 807 q 601 670 571 736 q 626 515 631 604 q 574 326 621 425 q 503 198 544 261 q 407 87 461 135 q 288 15 353 39 q 150 6 224 -10 q 141 8 146 7 q 132 10 136 8 q 99 20 117 13 q 67 43 82 28 m 299 767 q 297 765 297 767 l 299 765 l 299 764 q 299 763 299 763 q 300 761 300 763 l 301 761 l 303 761 q 304 763 303 763 l 306 764 q 301 768 306 768 l 300 768 q 299 767 299 768 m 281 749 l 283 746 l 285 746 q 288 747 286 747 q 289 749 289 747 q 290 750 289 749 q 292 751 292 750 l 292 754 q 290 756 292 756 q 292 757 292 756 q 289 761 292 761 q 288 760 288 761 q 286 760 288 760 q 283 757 283 760 q 282 756 282 757 q 283 753 283 756 l 282 753 l 282 751 l 281 751 l 281 749 m 285 728 l 286 728 l 288 728 q 289 729 288 729 l 289 731 l 289 732 q 286 735 289 735 l 285 735 q 282 733 283 735 q 285 729 282 731 l 285 728 m 185 618 q 183 619 185 618 q 181 621 182 621 q 178 617 178 621 l 176 615 l 176 613 q 174 606 174 610 q 176 600 174 600 q 178 601 178 600 l 178 603 q 179 604 178 603 q 181 606 179 604 l 179 607 q 182 613 182 610 q 185 618 185 618 m 197 646 q 199 649 199 646 q 197 651 199 651 q 194 654 197 654 q 193 653 193 654 q 192 650 193 651 q 190 647 190 649 q 189 646 189 647 l 189 643 q 190 642 190 643 q 192 642 190 642 l 193 642 q 196 644 196 642 q 197 646 196 644 m 199 658 q 201 657 200 657 q 206 660 204 657 q 210 667 208 664 q 213 672 211 669 q 215 676 214 674 l 217 678 q 224 688 222 686 q 229 697 226 693 l 231 699 q 234 703 233 701 q 236 706 235 704 l 238 706 l 238 707 q 240 711 240 710 l 242 711 l 243 713 q 247 715 244 714 q 251 719 249 717 q 258 726 254 722 q 263 731 261 731 l 264 732 q 268 736 268 732 l 268 738 l 268 739 q 277 746 275 744 q 278 750 279 747 l 276 750 q 249 728 269 750 q 246 726 247 726 q 242 722 244 725 q 231 712 236 717 q 225 701 226 707 l 219 696 q 206 680 213 689 q 199 663 199 671 l 199 658 m 278 722 q 278 724 278 722 l 278 725 q 276 726 276 725 q 275 726 276 726 q 272 725 272 726 q 269 724 269 725 q 271 718 269 719 l 272 718 l 274 718 q 275 719 274 718 q 276 721 276 719 q 278 722 278 721 m 219 638 q 224 649 219 638 l 225 650 q 233 665 228 654 q 237 672 236 668 q 240 679 238 676 l 242 679 q 253 696 247 688 q 267 711 260 704 q 267 714 267 711 q 265 715 267 714 l 263 714 q 258 711 258 710 q 253 707 257 711 l 253 706 q 242 693 250 704 q 239 689 242 692 q 232 675 235 682 l 224 663 q 222 660 222 661 q 219 657 221 658 q 213 649 217 653 q 211 640 210 644 l 210 640 q 208 632 208 638 q 210 631 210 632 q 211 631 210 631 l 213 631 q 219 638 219 631 m 450 347 q 462 351 451 347 q 485 364 472 356 q 510 386 497 372 q 531 422 522 400 q 555 553 556 496 q 537 652 554 611 q 487 718 519 693 q 414 751 454 743 q 388 753 407 753 q 351 747 369 754 q 346 744 349 747 l 344 744 q 308 721 329 736 q 267 681 288 706 q 230 619 247 656 q 204 531 213 582 q 201 512 201 521 q 201 494 201 503 q 210 444 201 467 q 249 390 222 411 q 308 356 275 368 q 379 342 342 344 q 450 347 417 340 m 443 156 l 442 156 l 440 156 l 440 154 q 431 146 438 153 q 410 124 425 139 l 408 121 q 401 115 404 118 q 394 108 397 111 q 381 94 386 97 q 371 88 376 90 l 354 75 q 349 68 349 71 q 353 65 349 65 q 361 68 356 65 q 367 74 364 71 q 374 79 371 76 q 376 82 374 79 q 392 96 388 90 l 396 100 q 400 103 397 100 q 405 107 403 106 q 408 111 407 108 q 418 122 410 117 q 431 136 426 129 q 433 140 431 138 q 443 153 438 144 l 443 156 m 456 169 q 454 171 456 171 q 451 172 453 172 q 449 169 449 172 q 446 165 446 169 q 449 163 446 163 q 450 161 449 161 q 451 163 451 161 q 453 164 451 163 l 453 165 l 454 165 l 454 167 q 456 168 454 167 l 456 169 m 465 185 q 460 185 461 189 q 458 183 458 185 q 461 179 458 181 l 463 179 l 464 179 l 464 181 q 465 182 465 181 l 465 183 l 465 185 m 301 68 q 291 63 292 64 q 290 60 290 61 l 292 58 q 301 61 294 58 q 356 94 331 75 q 367 101 358 96 q 388 118 382 110 l 392 122 q 403 135 401 129 q 407 138 404 135 q 413 146 410 142 q 418 153 417 150 l 426 165 q 438 181 431 174 q 444 190 440 183 q 450 199 449 196 q 452 202 451 201 q 454 206 453 203 q 463 218 458 213 q 468 231 467 224 q 469 233 468 232 l 469 235 l 469 236 q 468 238 469 238 q 459 228 464 236 q 447 208 454 219 l 443 200 q 441 197 442 199 q 439 194 440 196 q 424 171 433 182 l 419 167 q 397 143 408 156 q 374 119 386 131 q 368 115 371 117 q 363 110 365 113 q 347 96 351 101 q 331 85 339 89 q 317 76 324 81 q 311 74 317 76 q 306 72 308 72 q 301 68 304 71 z "},"A":{"ha":829,"x_min":1,"x_max":850,"o":"m 38 6 q 13 47 22 24 q 1 103 4 71 q 1 126 1 114 q 4 153 1 139 q 18 209 8 185 q 43 253 28 233 q 72 283 58 272 q 125 316 97 304 q 177 333 153 328 q 217 340 201 339 q 235 342 233 342 l 236 342 q 331 341 281 342 q 432 340 381 340 q 476 404 456 375 q 513 453 497 433 q 570 521 538 483 q 637 597 603 558 q 703 672 671 636 q 760 733 735 707 l 760 735 l 768 746 q 778 760 776 757 q 783 779 778 768 q 790 787 786 782 q 803 792 793 792 q 810 792 810 793 q 813 788 810 790 q 832 785 826 788 q 850 761 850 775 q 849 745 850 753 q 846 731 849 738 q 840 717 843 726 q 833 700 836 708 q 812 622 826 668 q 779 528 797 576 q 752 453 768 500 q 717 350 736 406 q 753 356 736 353 q 782 361 769 358 q 810 369 797 367 q 828 371 821 372 q 832 363 835 369 q 829 357 832 360 q 831 351 832 354 q 822 338 831 346 q 808 326 813 329 q 803 324 807 325 q 796 321 800 324 q 778 313 788 317 q 754 307 768 310 q 729 304 743 306 q 700 301 715 303 q 666 205 682 251 q 636 124 650 158 q 622 63 626 94 q 619 21 618 32 q 623 0 621 11 q 618 -10 625 -11 q 610 2 613 -7 q 606 17 607 11 q 607 4 607 11 q 604 -4 607 -3 q 599 0 600 -4 q 597 7 597 4 q 592 3 597 6 q 589 4 590 1 q 588 7 588 6 q 582 34 583 21 q 581 60 581 47 q 583 94 581 79 q 586 118 585 110 q 589 125 588 124 q 608 203 596 158 q 633 296 621 249 q 566 292 601 293 q 493 289 531 290 q 363 128 428 204 q 243 3 299 51 q 221 -21 233 -12 q 197 -33 208 -29 q 171 -40 183 -39 l 172 -40 q 103 -37 140 -47 q 38 6 65 -26 m 594 75 l 594 74 q 597 71 597 71 q 601 75 599 71 l 601 76 l 601 81 q 596 82 600 82 q 594 79 594 82 l 594 76 l 594 75 m 603 46 q 600 58 601 57 q 597 60 599 60 q 594 56 594 60 l 594 54 q 596 43 594 44 q 600 42 597 42 q 603 43 603 42 l 603 46 m 603 96 q 603 99 604 97 q 599 100 601 100 q 597 99 597 100 q 596 99 597 99 q 597 97 596 99 l 596 97 l 596 96 l 596 94 q 597 93 596 93 q 598 92 597 92 q 599 93 599 92 q 600 92 599 92 q 603 94 600 92 l 603 96 m 611 140 q 607 143 608 143 q 604 142 607 143 q 601 131 601 136 q 601 125 600 126 q 606 124 603 124 q 608 124 607 124 q 610 125 608 125 l 610 126 q 611 133 611 129 l 611 139 l 611 140 m 614 156 q 615 161 615 157 l 615 163 q 610 164 611 165 l 610 163 q 608 160 610 163 l 608 157 l 608 156 q 611 153 608 153 q 614 156 611 153 m 619 175 q 621 179 621 176 l 619 181 q 615 182 618 182 q 614 179 614 182 q 613 178 614 178 l 614 178 q 613 176 613 178 q 614 175 613 175 q 615 174 614 174 l 617 174 q 619 175 618 174 m 629 207 q 628 208 629 207 q 624 208 625 210 l 622 207 q 622 204 622 204 q 626 201 622 201 q 628 203 628 201 l 629 204 l 629 206 l 629 207 m 636 226 q 638 227 638 226 q 636 228 638 228 q 629 229 632 232 q 628 226 628 228 q 626 224 626 225 q 626 219 626 224 q 632 218 628 218 l 633 218 q 635 219 635 218 l 635 221 l 636 222 l 636 224 l 636 225 l 636 226 m 643 250 q 639 251 642 251 l 638 251 l 638 250 q 636 247 636 249 q 640 243 636 244 q 642 246 642 243 l 643 246 l 643 247 l 643 249 l 643 250 m 532 340 q 592 342 564 342 q 647 344 621 342 q 668 411 657 379 q 706 523 683 458 q 747 646 728 588 q 711 592 733 625 q 661 520 689 560 q 600 434 633 481 q 532 340 567 388 m 631 533 q 620 518 625 526 q 608 503 615 510 q 600 492 604 497 q 592 481 596 488 q 588 474 590 479 q 585 475 586 475 l 583 475 q 582 472 582 474 l 582 471 l 583 469 q 581 466 582 467 q 579 463 581 465 q 576 465 576 465 q 575 464 575 465 l 574 464 l 572 463 q 571 461 571 463 l 571 460 l 571 458 q 572 457 572 458 q 574 456 574 457 l 572 454 q 572 453 572 453 q 571 451 571 453 q 567 453 569 456 q 565 451 565 453 l 565 450 l 565 449 l 567 447 q 564 442 565 444 q 561 438 563 440 q 558 440 558 440 q 556 439 557 440 l 554 438 l 554 436 q 556 433 554 433 q 558 432 557 432 l 560 433 l 560 432 l 561 432 q 571 441 564 432 q 586 461 578 450 q 607 490 596 474 q 613 498 610 494 q 618 506 615 501 q 630 522 625 514 q 642 538 635 531 q 652 546 647 540 q 660 557 657 551 q 665 565 665 565 l 669 569 q 681 588 675 578 l 681 590 l 678 590 q 642 549 669 590 l 639 546 l 631 533 m 547 454 q 549 453 549 454 l 550 453 q 560 461 554 453 l 563 464 q 568 471 567 468 q 571 474 568 474 q 581 486 576 481 q 590 499 585 492 l 594 503 q 597 506 596 504 q 601 513 599 507 q 603 515 603 514 q 607 518 604 515 q 608 521 608 519 q 607 525 608 525 q 606 526 607 526 q 600 521 604 526 l 599 519 l 596 517 q 588 506 590 508 q 585 503 586 504 q 582 501 583 503 l 581 501 q 579 499 579 500 q 578 497 579 499 q 576 494 578 497 q 571 488 574 492 q 565 481 568 485 q 563 478 564 479 q 560 474 563 476 q 549 457 551 463 q 547 456 549 457 l 547 454 m 546 424 q 550 422 547 422 q 553 424 550 422 l 554 425 q 553 428 554 428 l 553 429 q 551 431 553 429 l 550 431 q 549 429 549 431 q 547 428 547 429 l 547 426 q 546 425 546 426 l 546 424 m 535 410 q 536 408 536 410 q 538 408 538 408 q 540 407 539 407 q 543 410 543 407 q 547 410 546 408 q 549 411 547 411 l 549 413 l 550 413 q 551 415 550 414 q 553 418 553 417 q 550 422 553 422 q 546 418 550 422 q 543 419 546 418 q 536 415 538 419 q 535 413 536 414 q 535 411 535 413 l 535 410 m 524 394 l 524 393 l 525 393 l 525 392 l 525 390 q 525 389 524 390 q 528 386 528 386 q 531 389 528 386 q 533 392 533 389 l 533 393 q 531 394 533 393 l 531 396 l 531 397 q 528 399 529 399 l 525 399 l 525 397 l 524 397 l 524 396 l 524 394 m 515 385 q 517 383 515 383 q 519 381 517 381 q 522 383 519 381 q 524 386 524 383 q 522 389 524 386 l 521 390 l 519 390 q 518 389 518 390 l 518 388 q 517 386 517 388 l 515 385 m 513 379 q 508 376 510 379 q 506 369 506 372 l 506 368 q 508 367 507 367 q 515 371 511 367 q 517 376 517 372 q 513 379 514 379 m 38 106 q 40 103 38 103 q 43 104 42 103 l 44 104 q 43 106 44 106 l 43 107 l 44 107 q 43 108 44 108 l 43 110 q 42 111 43 111 l 40 111 q 38 110 39 111 l 38 108 q 38 106 38 108 m 68 28 q 65 32 68 31 q 64 33 64 32 l 64 36 q 57 43 60 43 l 56 43 q 53 39 53 40 q 58 26 53 32 q 60 25 58 26 q 63 24 60 24 q 68 28 65 24 m 78 203 l 78 204 q 78 207 78 204 q 75 208 76 207 l 74 208 q 72 207 74 208 q 71 206 71 207 q 72 204 71 204 q 74 203 72 204 q 76 201 74 203 l 76 203 l 78 203 m 96 244 q 94 243 96 244 l 94 242 q 100 239 96 239 q 103 240 100 239 q 104 243 103 240 q 100 249 104 246 l 99 249 q 97 247 99 249 l 96 246 l 96 244 m 96 238 q 94 239 96 238 l 93 239 q 90 238 92 239 l 90 236 l 90 235 q 92 233 90 235 q 93 232 92 233 l 94 232 l 96 232 l 96 233 l 97 233 l 97 235 l 97 236 q 96 238 97 238 m 92 231 q 89 232 90 232 l 88 232 l 86 232 l 86 231 l 86 229 q 88 228 86 228 q 90 226 89 226 l 92 226 l 93 228 l 93 229 q 92 231 93 231 m 86 222 q 83 224 85 222 q 81 222 81 224 l 79 222 l 79 221 q 81 219 79 219 q 83 217 83 217 l 85 217 l 85 218 l 86 218 l 86 219 l 86 221 l 86 222 m 79 218 l 78 218 q 75 217 76 218 l 75 215 l 75 213 l 76 211 q 81 210 78 210 l 82 210 q 83 211 82 210 q 85 213 83 213 l 83 213 q 85 214 85 213 l 83 215 q 79 217 82 217 l 79 218 m 88 0 q 89 1 88 0 q 88 3 89 3 q 88 4 88 3 l 85 7 q 83 6 83 7 q 82 6 83 6 q 81 4 82 4 l 81 3 q 81 1 79 3 q 82 0 81 1 l 83 -1 l 85 -1 l 86 -1 q 88 0 86 -1 m 106 -14 q 107 -10 107 -12 q 104 -6 107 -7 q 100 -4 101 -4 l 99 -4 q 96 -8 96 -4 q 97 -11 96 -10 l 99 -11 q 100 -12 99 -11 l 101 -12 q 103 -14 101 -12 l 104 -14 l 106 -14 m 133 -24 q 136 -21 136 -24 l 136 -19 q 131 -15 136 -15 q 126 -15 128 -15 q 122 -14 125 -14 q 118 -15 118 -14 q 117 -18 117 -15 q 124 -22 118 -21 q 132 -24 129 -24 l 133 -24 m 153 0 q 201 28 172 1 q 261 95 229 54 q 328 186 293 136 q 396 286 363 236 q 307 285 350 285 q 225 283 264 285 q 176 275 201 283 q 131 249 151 267 q 95 203 110 231 q 78 133 81 175 q 86 61 76 88 q 110 19 96 38 q 132 3 121 8 q 153 0 146 0 m 113 254 q 110 257 113 257 l 108 257 l 107 256 l 107 253 l 108 253 q 110 251 108 251 l 110 250 l 111 250 l 113 250 q 114 251 113 251 l 114 253 l 114 254 l 113 254 m 113 258 q 114 256 113 256 l 115 256 l 115 254 l 117 254 l 117 256 l 118 256 q 119 257 119 256 l 119 258 q 115 263 119 263 q 114 261 115 263 q 113 260 114 261 l 113 258 m 121 264 q 122 261 121 263 q 124 260 122 260 q 128 261 126 260 l 128 265 q 125 269 128 269 q 124 267 124 269 l 121 264 m 265 315 q 263 311 263 315 l 263 310 l 264 308 l 265 308 l 267 308 l 268 308 l 268 310 l 269 310 l 269 311 l 269 314 q 267 315 269 315 l 265 315 m 386 315 q 375 310 376 315 l 375 308 q 383 306 378 306 q 390 306 386 306 q 394 310 393 307 q 389 314 394 314 q 386 315 388 315 m 356 310 q 357 308 356 308 q 358 307 357 307 q 360 307 358 307 l 361 307 l 363 307 q 367 311 367 307 q 365 313 367 313 q 363 314 365 314 l 360 314 q 356 311 356 314 l 356 310 m 340 315 q 339 311 339 315 l 339 310 q 340 308 339 310 l 342 308 l 343 308 l 344 308 q 346 310 346 308 q 346 311 346 310 q 346 313 346 311 q 344 314 346 314 q 342 315 343 315 l 340 315 m 308 318 q 302 317 306 318 q 299 313 299 315 l 299 311 q 307 308 301 308 q 313 309 310 308 q 317 313 317 310 q 313 317 318 317 q 308 318 311 318 m 279 311 l 279 310 q 282 308 281 308 q 283 310 282 310 l 285 308 q 286 310 285 308 q 289 310 288 308 q 290 313 290 311 q 289 315 290 314 l 286 315 q 283 317 285 315 q 279 313 279 317 l 279 311 m 236 310 q 239 308 236 310 l 240 308 q 243 313 243 308 l 243 314 l 243 315 l 240 315 l 239 315 l 238 315 q 235 313 235 315 l 235 311 l 236 310 m 215 310 l 215 308 q 218 307 217 307 l 219 307 q 222 306 221 306 q 226 308 226 306 l 226 314 l 226 315 l 225 315 q 224 317 225 317 q 224 315 224 317 l 222 315 l 221 315 l 219 315 l 218 315 l 217 315 l 215 314 l 215 310 m 194 307 q 197 306 194 307 l 199 306 q 201 307 200 306 l 201 308 l 201 311 q 200 313 201 313 l 199 313 l 197 313 l 196 313 q 194 310 194 311 l 194 307 m 60 244 q 61 243 60 244 l 63 243 q 67 245 65 243 q 71 250 68 247 q 74 254 71 251 q 75 257 74 254 q 78 260 76 258 q 81 263 79 263 q 93 274 86 264 q 97 276 96 275 q 100 279 97 278 q 107 285 101 282 l 108 286 q 113 289 111 288 q 118 292 115 290 l 119 292 q 122 293 121 293 q 124 294 122 293 l 125 294 l 125 297 q 119 299 125 299 q 113 296 118 299 q 107 293 110 294 q 101 290 104 292 q 101 289 101 289 q 100 288 100 289 l 96 288 q 92 285 93 286 q 88 282 90 285 q 76 269 79 274 q 68 260 75 268 q 67 257 67 258 q 60 247 65 257 l 60 246 l 60 244 m 49 178 l 49 176 l 50 176 l 51 176 q 63 200 56 178 q 65 207 63 204 q 71 219 68 211 q 74 226 74 222 q 78 232 75 229 q 105 261 90 247 q 138 285 119 275 q 150 290 144 288 q 161 294 156 293 q 164 296 163 296 q 167 297 165 296 q 171 298 169 297 q 174 299 172 299 l 175 299 q 185 304 185 301 l 185 306 l 182 306 q 178 305 179 306 q 174 304 176 304 l 169 304 q 129 288 146 297 q 122 285 124 285 q 113 279 117 282 q 103 272 108 276 q 97 268 100 269 q 94 265 96 265 q 90 261 93 264 q 88 258 90 261 q 82 251 85 254 q 78 246 79 249 q 60 216 68 233 q 49 182 51 199 l 49 178 m 46 63 l 44 63 l 44 60 q 45 58 44 58 q 46 57 46 58 l 46 54 l 47 54 q 50 51 50 51 q 51 53 50 51 q 53 57 53 53 q 47 64 53 61 l 46 63 m 47 79 q 43 82 46 81 q 42 81 42 82 l 40 81 l 40 79 q 40 78 39 79 l 40 76 l 40 75 l 40 74 l 42 74 l 43 74 l 44 74 q 46 75 46 74 q 47 76 47 75 q 46 76 47 76 q 47 79 47 78 m 38 154 q 39 151 38 153 q 42 150 39 150 l 43 150 q 44 151 44 150 l 44 153 q 44 154 46 154 l 44 156 l 44 157 q 43 157 43 158 l 42 158 q 39 156 39 158 l 38 154 m 35 126 q 36 122 35 124 l 40 122 l 43 122 q 44 124 44 122 l 44 125 l 44 126 l 44 128 l 44 129 l 44 131 l 44 132 q 43 133 44 132 q 38 133 40 136 q 36 132 36 133 q 35 129 36 132 l 36 129 l 35 129 l 35 126 z "},"B":{"ha":707,"x_min":-7,"x_max":672,"o":"m 128 15 q 125 21 125 17 q 126 29 125 25 q 127 36 126 33 q 126 36 128 39 q 122 24 124 29 q 117 14 119 19 q 114 18 114 10 q 115 26 114 22 q 131 127 122 79 q 150 222 139 175 q 174 315 161 268 q 203 411 188 361 q 217 458 211 439 q 230 496 224 478 q 244 533 236 514 q 264 579 253 551 l 265 581 q 266 585 265 583 q 267 589 267 586 q 269 597 267 590 q 276 613 272 604 q 286 627 281 621 q 300 633 292 633 q 319 632 314 633 q 326 626 324 631 q 330 621 329 624 q 336 611 331 618 q 344 597 340 606 q 346 581 349 588 q 342 571 344 576 q 339 563 339 563 q 329 541 338 556 q 315 515 321 526 q 310 502 311 506 q 308 497 310 499 q 306 490 307 494 q 299 474 304 485 q 251 356 271 415 q 214 240 231 297 q 181 128 197 182 q 147 25 165 74 q 143 22 144 18 q 138 19 142 25 q 133 14 135 14 q 128 15 132 14 m 222 322 q 221 325 222 324 q 219 324 221 325 q 211 306 213 317 q 206 290 208 294 q 200 273 203 282 q 194 254 197 264 q 193 248 193 251 q 192 242 193 244 l 192 240 q 190 239 190 240 l 190 236 q 189 231 189 235 q 188 228 189 229 q 188 225 188 226 l 186 222 l 186 221 q 185 210 182 213 l 186 210 q 190 212 188 210 q 194 226 192 214 q 195 229 194 228 q 196 232 196 231 q 198 239 197 235 q 200 246 199 243 q 201 248 200 247 q 201 250 201 249 q 207 263 204 253 q 213 283 207 264 l 213 286 q 218 304 215 297 l 218 308 q 219 311 219 310 q 221 315 219 313 q 222 322 221 319 m 243 399 l 242 399 q 239 400 240 400 q 238 399 238 400 q 237 397 238 397 q 236 394 236 396 l 236 393 l 236 392 l 235 392 l 235 390 l 235 388 q 238 386 235 386 q 242 390 238 386 q 244 397 242 390 l 243 399 m 249 413 q 250 417 250 414 l 250 418 q 248 419 249 418 q 246 419 247 419 q 244 418 246 419 l 244 417 l 243 417 l 243 415 l 243 414 l 243 413 l 243 411 l 244 411 q 246 410 246 411 q 247 410 246 410 q 249 413 249 410 m 271 489 q 272 488 271 488 q 274 486 272 486 l 275 485 q 276 486 276 485 q 278 488 278 486 l 278 489 q 279 490 278 489 l 279 492 l 278 493 q 274 494 276 494 q 272 492 272 493 q 271 490 272 490 l 271 489 m 264 474 q 265 472 264 472 q 268 471 267 471 q 271 472 271 471 l 271 474 q 272 475 272 474 l 272 476 q 271 478 272 476 q 268 479 269 479 q 267 478 265 479 l 265 478 l 265 476 l 265 475 l 265 474 l 264 474 m 258 454 q 260 450 258 450 q 264 454 261 450 q 267 461 264 454 q 265 463 267 461 l 264 463 q 261 464 264 464 l 260 463 l 260 460 l 258 458 l 258 457 l 258 456 l 258 454 m 256 440 q 249 435 251 440 q 247 428 247 429 q 249 421 247 422 l 251 421 q 254 422 254 421 q 256 424 256 422 q 258 436 256 428 q 258 439 260 438 q 256 440 257 440 m 183 275 q 182 268 182 271 q 182 261 182 261 l 183 261 l 185 261 q 186 262 186 261 q 189 269 186 263 q 190 275 189 272 q 190 281 190 278 q 192 292 192 288 q 196 300 193 297 q 200 317 200 308 l 204 329 q 209 340 207 335 q 214 353 211 346 q 217 363 214 357 q 221 376 219 371 q 222 382 221 381 q 225 392 222 386 q 228 402 226 397 q 231 413 229 407 q 235 425 233 419 q 240 438 238 431 l 240 439 q 242 442 242 439 q 247 457 247 453 q 248 458 247 458 q 249 460 249 458 l 249 463 l 247 464 q 243 461 249 464 l 239 449 q 234 438 236 443 q 229 428 232 433 q 228 424 229 425 q 228 422 228 424 q 224 413 226 418 q 219 403 224 408 q 217 397 218 400 q 215 389 215 393 q 214 386 214 389 q 208 371 208 375 q 203 351 206 361 q 197 331 200 342 q 194 320 196 325 q 192 311 193 315 q 186 288 189 301 q 183 275 186 283 m -6 440 q -3 459 -7 449 q 4 478 0 469 l 4 479 q 8 486 7 483 q 11 492 10 489 q 83 601 44 554 q 163 680 122 647 q 244 733 204 713 q 322 767 285 754 q 496 789 408 794 q 588 765 554 786 q 639 719 621 743 q 668 656 660 692 q 665 588 672 619 q 643 527 658 556 q 608 474 628 499 q 565 429 588 450 q 444 344 513 382 q 478 340 451 346 q 533 318 506 335 q 575 270 560 301 q 575 189 590 239 q 540 111 561 144 q 494 52 519 78 q 444 8 469 26 q 396 -24 418 -10 q 332 -50 368 -39 q 308 -55 318 -54 q 292 -56 299 -56 q 278 -53 283 -56 q 268 -50 274 -53 q 256 -45 263 -47 q 242 -37 250 -43 q 218 -17 226 -29 q 208 -3 210 -6 q 202 61 197 29 q 219 120 207 93 q 247 168 232 147 q 274 197 263 189 q 339 225 313 229 q 349 224 340 225 q 357 217 358 222 q 356 213 357 214 q 356 211 356 211 q 357 210 357 211 q 367 210 365 213 q 360 204 367 207 q 369 199 369 201 q 365 195 369 196 q 354 193 360 194 q 338 186 344 190 q 325 179 331 182 q 314 171 319 175 q 260 106 276 136 q 242 53 244 76 q 244 15 239 29 q 256 -4 250 0 q 303 0 271 -12 q 365 33 335 13 q 399 60 381 44 q 438 96 418 75 q 474 144 457 117 q 503 204 492 171 q 506 256 514 236 q 481 288 497 276 q 444 302 464 299 q 414 303 425 306 q 388 292 403 300 q 358 277 372 285 q 330 264 343 269 q 310 258 317 258 q 287 263 294 258 q 269 274 279 267 q 265 283 264 278 q 268 292 265 288 q 275 303 271 297 q 438 415 378 371 q 530 492 497 460 q 576 550 563 524 q 597 608 589 576 q 601 668 606 640 q 574 713 596 696 q 513 733 553 729 q 413 722 472 736 q 301 678 351 707 q 213 619 251 650 q 149 559 175 588 q 114 517 124 531 q 83 467 100 497 q 50 414 65 438 q 51 400 42 397 q 58 395 56 403 q 44 379 60 388 q 28 376 35 374 q 17 382 22 378 q 13 386 14 385 q 11 389 13 388 q 8 393 8 392 q 6 396 7 394 q 5 398 6 397 q 4 400 4 399 q -1 429 1 408 q -3 435 -3 432 q -6 440 -4 438 m 390 339 q 392 346 392 340 q 389 347 390 347 q 383 343 388 347 q 378 336 375 340 q 381 335 378 335 q 385 336 383 335 l 386 336 q 390 339 388 336 m 408 351 q 407 357 408 354 l 406 357 l 404 357 q 403 356 404 356 l 401 356 l 400 354 q 399 353 400 354 q 399 351 399 353 l 399 350 l 400 349 q 401 347 400 347 q 403 348 403 347 q 404 349 403 349 q 408 351 406 349 m 463 96 q 465 94 463 94 q 468 96 468 94 q 469 97 469 96 l 469 99 q 468 100 468 99 q 467 101 468 100 q 465 101 465 101 q 464 100 465 100 l 464 99 l 463 99 l 463 96 m 456 90 l 457 89 q 460 88 457 88 l 461 88 l 463 89 l 463 90 l 461 92 l 460 93 l 457 93 l 457 92 l 456 90 m 457 57 q 459 58 458 57 q 461 58 460 58 q 465 61 463 58 q 476 75 467 64 l 478 76 q 483 83 481 79 q 488 92 485 88 q 496 105 492 99 q 506 117 500 111 l 506 118 l 507 119 q 508 125 510 122 q 507 126 508 125 q 497 121 503 126 q 494 115 494 118 q 483 100 486 104 q 481 97 483 100 q 474 89 475 92 q 469 84 471 86 q 464 82 467 82 l 464 81 q 456 71 458 75 q 449 63 450 65 q 439 54 444 60 l 433 49 q 429 46 432 49 q 424 42 426 43 q 421 39 422 42 q 419 33 417 35 l 421 32 q 427 35 424 32 q 433 39 431 38 q 442 46 436 40 l 446 50 q 449 52 447 51 q 453 56 450 53 q 457 57 454 57 m 471 53 l 468 56 l 467 56 q 465 54 467 56 l 464 53 l 464 51 q 468 47 464 47 l 469 49 q 471 51 471 50 l 471 53 m 478 58 q 478 60 479 58 q 472 61 474 63 l 471 60 q 474 56 471 56 l 474 54 l 475 54 q 476 56 476 54 q 478 57 478 56 l 478 58 m 486 67 q 486 69 489 69 q 483 72 486 72 q 481 69 483 72 q 478 67 481 69 l 478 65 q 481 63 478 63 l 482 63 l 483 63 q 485 64 483 64 l 486 65 l 486 67 m 504 90 q 503 92 503 90 q 497 92 500 94 l 496 90 q 497 88 496 89 l 496 88 q 490 85 493 88 l 489 83 q 488 78 485 79 q 492 74 489 74 q 497 78 494 74 q 500 85 500 82 l 500 86 l 501 86 q 503 88 501 86 l 503 89 q 504 90 504 89 m 511 104 q 508 106 510 106 q 506 104 506 106 q 503 99 503 101 q 507 96 503 96 q 508 97 508 96 q 510 97 508 97 l 510 99 q 511 101 511 100 l 511 103 l 511 104 m 510 151 q 508 154 510 154 q 507 156 508 156 q 503 153 506 156 q 496 140 501 151 l 483 124 l 481 121 q 480 119 481 119 q 479 118 479 119 q 469 106 472 111 q 468 103 469 104 l 469 101 l 471 101 q 474 103 472 101 q 488 119 476 106 q 496 131 490 122 q 497 133 497 132 q 499 135 497 133 q 501 139 501 138 q 506 144 504 142 q 510 151 507 147 m 449 376 q 453 382 453 376 l 453 385 q 444 383 450 388 q 431 374 442 379 q 424 369 428 371 q 417 365 419 368 l 417 364 l 415 364 q 414 363 415 363 l 414 361 q 415 360 414 361 q 417 358 415 358 l 418 358 l 419 358 l 421 358 q 422 361 421 358 q 427 363 425 361 q 432 365 429 364 q 433 367 432 367 q 440 372 436 368 l 443 372 l 444 372 l 446 374 q 449 376 446 374 m 474 394 q 475 397 478 394 q 472 400 475 400 q 468 397 471 400 q 465 396 467 397 l 464 396 l 463 394 q 461 393 463 394 l 460 393 q 457 390 457 393 q 463 388 458 388 l 464 388 q 466 389 465 389 q 468 390 467 389 q 471 392 469 392 q 474 394 474 394 m 482 400 q 479 406 482 403 l 478 406 l 476 404 l 475 404 l 475 403 q 474 401 474 403 l 475 400 q 478 399 475 399 l 479 399 q 482 400 482 399 m 503 417 q 501 419 503 418 l 500 419 q 499 418 499 419 q 494 417 496 418 l 493 417 l 493 415 q 490 413 490 415 q 491 411 490 411 q 492 410 492 411 l 494 410 q 497 411 494 410 l 499 411 q 500 413 500 411 l 501 413 l 501 414 l 503 414 l 503 415 l 503 417 m 519 425 q 518 428 519 426 q 515 431 518 431 l 514 431 q 511 429 511 431 q 508 428 508 429 q 507 425 507 428 l 508 424 q 511 421 508 421 l 510 421 q 511 419 511 421 l 513 419 l 514 419 l 514 421 l 515 421 l 515 422 q 517 424 517 422 l 518 424 l 519 425 m 535 440 l 533 440 q 531 443 533 443 l 529 442 q 526 440 528 442 q 529 436 526 438 l 529 435 l 531 435 l 532 435 l 532 436 l 533 436 l 533 438 l 535 438 l 535 440 m 543 446 q 551 454 544 447 q 558 464 558 461 l 558 465 q 554 467 557 467 q 547 463 551 467 q 538 453 542 458 q 533 444 533 449 q 538 443 535 443 q 543 446 540 443 m 582 490 q 582 493 583 492 q 579 494 582 493 q 575 492 578 494 q 574 490 575 492 l 572 489 q 569 485 569 486 l 569 481 q 569 479 568 481 l 571 479 q 582 490 578 483 m 592 514 q 594 510 592 510 l 596 510 q 597 511 596 510 q 599 513 599 511 q 600 517 604 513 l 600 518 q 597 519 600 518 q 594 519 597 519 l 594 517 l 593 517 l 593 515 l 592 514 m 631 636 l 631 635 l 631 633 l 631 631 q 633 628 631 631 l 635 628 l 636 628 q 638 631 638 629 l 638 632 l 638 635 l 636 635 l 636 636 q 633 638 635 638 l 632 638 l 631 638 l 631 636 m 628 596 q 626 593 626 594 q 625 585 625 590 q 631 581 629 581 l 632 581 l 632 582 q 633 583 635 582 q 635 584 635 583 q 633 585 635 585 q 635 588 635 586 l 635 589 l 636 589 l 636 590 q 635 592 636 590 q 636 593 635 592 l 636 594 l 636 596 l 636 597 q 632 600 633 600 q 628 596 628 600 m 618 561 q 617 558 618 560 q 617 554 615 556 q 621 551 617 551 q 622 554 622 551 q 624 556 622 554 l 624 558 q 625 560 625 558 l 625 561 l 625 563 q 622 564 624 563 q 618 561 621 564 m 613 518 q 608 511 610 513 q 606 507 607 508 q 603 503 604 506 q 601 500 603 503 q 594 486 593 489 q 596 485 594 486 q 614 507 599 485 q 615 509 615 508 q 617 511 615 510 q 617 513 617 513 q 618 514 618 513 q 621 518 622 518 q 624 521 624 521 q 629 528 628 525 l 629 529 q 635 543 629 535 q 638 549 638 549 q 647 597 647 571 l 647 599 q 646 603 647 603 q 640 596 643 603 l 640 583 l 639 582 q 636 567 639 575 l 636 565 q 633 561 636 564 q 631 556 631 556 l 629 554 q 621 536 621 538 q 619 531 621 533 q 617 526 618 529 l 613 518 m 604 558 q 603 557 604 557 q 601 556 601 556 q 599 553 600 556 q 594 546 597 551 q 593 544 593 544 q 592 542 593 543 q 584 528 588 535 q 575 517 581 522 q 573 514 574 514 q 571 513 572 514 q 565 508 567 513 q 562 506 563 507 q 560 503 561 504 q 557 499 557 500 l 544 486 q 540 481 542 483 q 535 475 538 478 q 513 453 525 463 q 502 444 510 450 q 496 435 494 438 l 497 433 q 508 440 500 433 q 521 451 515 446 q 526 456 524 453 q 532 461 529 458 l 538 467 q 564 492 553 478 q 585 519 575 506 q 586 521 586 519 q 592 528 589 524 q 597 538 594 533 q 599 540 599 539 q 600 542 599 540 q 601 544 600 543 l 606 553 q 607 558 607 556 l 604 558 m 167 603 q 165 607 167 606 q 164 608 165 608 l 163 608 l 161 607 l 160 606 l 160 604 q 158 603 158 604 q 163 600 160 600 l 164 600 q 167 603 167 603 m 178 614 q 179 615 179 614 l 178 617 q 176 617 176 617 q 175 618 176 618 q 174 617 175 618 l 172 617 q 169 614 172 617 l 171 613 l 174 610 l 175 610 l 175 611 l 176 611 q 178 613 176 613 l 178 614 m 190 625 q 192 628 192 626 q 185 629 192 633 l 183 629 q 182 626 183 629 q 182 624 181 625 l 182 622 q 183 622 183 622 q 185 621 183 621 q 186 622 186 621 q 189 624 188 622 q 190 625 190 624 m 215 649 q 211 651 215 651 q 207 650 208 651 q 201 645 204 649 q 199 639 199 642 q 201 636 201 636 l 203 636 q 209 640 204 638 q 215 646 214 643 l 215 649 m 224 653 q 224 654 224 653 l 224 656 q 219 657 222 660 l 218 657 q 215 654 215 657 l 215 653 q 218 650 218 650 l 219 650 l 221 650 l 221 651 l 222 651 q 224 653 222 653 m 242 665 q 243 667 242 667 q 244 668 243 667 q 243 669 243 668 q 242 669 243 669 l 240 669 l 236 669 q 232 665 232 667 q 233 661 232 661 l 235 660 l 236 661 q 239 663 236 661 q 240 664 239 663 q 242 665 240 664 m 175 664 l 176 663 q 183 665 178 663 q 206 682 188 668 q 208 683 207 683 q 213 687 211 686 q 215 689 214 688 q 224 695 219 692 q 233 700 229 699 q 239 703 236 703 q 248 708 243 706 q 257 713 253 710 q 261 718 261 717 l 260 719 q 258 720 258 719 q 256 721 257 721 q 252 720 253 721 q 250 719 251 719 q 244 717 247 719 q 238 713 240 715 q 236 712 236 713 q 235 711 236 711 q 226 705 231 708 q 217 699 221 701 q 207 692 213 694 l 203 689 q 188 678 196 683 q 175 665 181 672 l 175 664 m 163 654 l 164 654 l 163 654 l 164 654 q 167 651 164 651 q 169 653 167 651 l 172 656 q 169 660 172 658 q 167 660 169 663 l 165 660 q 164 658 165 660 l 164 657 l 163 657 l 163 654 m 153 646 q 154 644 153 644 l 156 643 q 157 644 157 643 q 160 646 158 644 q 157 650 160 647 q 154 650 156 651 q 153 649 154 650 l 153 647 l 153 646 m 154 628 q 147 618 147 621 q 150 617 147 617 l 151 617 q 154 618 151 617 q 157 621 154 618 q 165 628 164 624 q 179 640 174 636 q 188 647 185 646 q 200 657 192 651 q 205 659 203 658 q 210 663 207 660 q 228 675 219 669 q 246 688 238 681 q 256 692 251 689 q 267 699 261 696 l 275 703 q 279 706 278 706 q 285 709 282 708 q 292 713 289 710 l 293 713 q 301 717 300 715 q 303 719 303 718 q 300 721 303 719 l 299 721 q 297 720 297 721 q 296 719 297 719 l 294 719 l 293 718 l 290 718 q 278 712 285 715 q 268 707 272 708 q 250 697 260 706 q 244 694 247 694 q 240 693 243 693 q 234 691 238 692 q 228 688 231 690 q 225 685 226 686 q 222 683 224 685 q 219 681 219 682 q 215 679 218 681 q 197 665 206 672 q 179 650 188 657 q 168 640 172 643 l 165 638 q 157 631 158 632 q 154 628 156 629 m 140 615 q 142 611 140 613 l 143 611 l 143 610 q 144 611 144 610 l 146 611 l 146 613 q 147 614 147 613 l 149 614 l 149 617 l 147 617 q 144 619 147 619 l 143 618 q 140 615 140 618 m 126 599 q 125 597 126 599 q 128 596 125 597 q 136 601 132 596 q 140 610 140 607 q 139 611 140 610 q 138 613 139 613 q 135 611 136 613 l 135 610 l 133 610 q 126 599 126 606 m 110 583 q 108 583 108 583 q 110 582 108 582 q 113 578 110 578 q 114 579 114 578 l 117 582 q 118 583 117 582 q 119 586 119 585 q 117 589 119 589 l 115 589 l 114 589 q 113 588 114 588 l 110 585 l 110 583 m 99 569 q 103 567 101 567 l 104 567 l 104 568 l 106 568 l 106 569 l 107 569 l 107 571 l 107 572 q 106 574 107 574 l 104 575 q 101 574 103 575 q 99 571 99 574 l 99 569 m 89 558 l 89 557 q 92 554 92 554 q 93 556 93 554 q 96 557 94 556 l 97 558 q 94 564 97 561 l 93 564 q 92 563 93 564 q 90 561 90 563 l 90 560 l 89 560 l 89 558 z "},"C":{"ha":651,"x_min":-4,"x_max":642,"o":"m 601 119 q 399 -44 494 6 q 228 -93 304 -93 q 98 -50 151 -93 q 20 65 44 -7 q 4 231 -4 138 q 61 426 13 325 q 135 556 96 501 q 213 647 174 610 q 290 706 251 685 q 363 739 328 728 q 521 747 443 764 q 583 704 563 733 q 601 633 601 679 q 556 513 600 588 q 473 425 519 454 q 380 385 426 396 q 294 379 333 375 q 238 392 256 383 l 232 394 l 226 399 q 226 401 225 400 q 232 408 226 400 l 233 408 q 236 411 236 408 l 235 413 l 233 413 q 235 414 235 414 q 238 417 236 414 q 244 421 239 421 l 249 421 q 253 427 247 425 q 265 429 258 429 q 283 428 272 429 q 326 426 301 428 q 379 430 351 424 q 437 454 407 436 q 494 511 467 472 q 531 581 521 549 q 538 639 540 614 q 519 679 535 664 q 476 697 503 694 q 407 688 451 700 q 310 639 363 676 q 206 532 258 601 q 111 350 153 463 q 72 156 68 238 q 110 25 76 74 q 199 -40 144 -24 q 313 -37 254 -56 q 425 17 372 -18 q 518 89 478 53 q 604 179 564 131 q 617 193 611 188 q 636 197 629 204 q 638 188 638 194 q 642 185 642 188 q 631 158 642 176 q 603 121 619 139 l 601 119 m 71 349 q 74 351 74 349 l 74 353 q 75 354 75 353 l 75 356 l 76 357 q 75 358 76 357 q 76 360 76 358 q 78 363 78 361 q 79 365 78 364 q 82 371 81 368 q 83 376 83 374 q 87 383 86 379 q 89 390 88 388 q 106 431 97 410 q 128 471 115 453 l 129 472 q 167 532 147 503 q 210 585 186 561 q 264 641 233 613 q 331 689 294 669 l 332 689 l 340 693 q 346 700 349 696 q 343 701 346 700 q 329 696 339 701 q 309 683 319 690 q 290 670 299 676 q 281 664 281 664 q 265 651 272 657 q 250 638 257 644 q 233 624 244 632 q 215 608 224 618 q 199 588 207 599 l 186 572 q 164 544 176 564 l 157 533 q 133 494 144 514 q 111 456 122 475 l 106 443 l 93 417 l 92 414 q 85 399 89 407 q 79 382 81 390 l 79 381 q 78 379 79 379 q 76 376 78 378 q 72 358 72 365 l 74 358 q 72 357 72 358 q 71 356 72 356 q 69 350 69 353 l 71 349 m 440 424 q 444 431 444 429 q 442 432 443 432 q 426 426 439 432 q 425 424 426 425 l 424 424 q 403 415 413 417 q 385 410 392 410 l 381 410 q 371 409 375 410 q 361 407 367 408 q 353 404 357 406 q 344 403 349 403 q 321 400 331 400 q 305 401 314 400 q 288 403 296 401 q 275 406 279 403 l 271 406 q 267 405 269 406 q 264 401 264 404 q 267 400 264 400 l 267 399 q 269 397 267 399 l 274 397 q 289 395 281 396 q 306 394 297 394 q 310 394 308 394 q 314 393 311 393 l 335 393 q 347 393 342 393 q 358 394 353 393 q 379 398 369 394 q 397 406 389 401 l 407 410 q 427 417 419 413 q 440 424 435 421 m 164 567 q 165 564 164 564 q 182 581 169 564 q 183 583 182 582 q 190 590 186 586 q 196 599 193 594 l 204 607 l 210 614 l 233 640 l 243 647 q 255 655 250 650 q 265 664 260 660 q 269 671 269 669 q 267 672 269 671 q 256 667 261 672 q 228 643 240 656 q 203 617 215 631 l 193 604 l 179 588 q 174 579 176 585 q 169 572 171 576 q 165 568 167 568 l 164 567 m 285 632 q 285 635 285 635 q 286 638 286 636 q 283 640 283 640 q 275 635 281 640 q 269 628 269 629 q 272 626 269 628 q 285 632 279 626 m 257 400 q 260 403 260 400 l 260 406 l 258 407 l 257 407 q 254 404 254 407 q 247 410 253 407 l 243 410 q 240 407 240 407 q 247 401 240 401 l 254 401 q 256 400 254 400 l 257 400 m 493 51 l 493 49 q 494 47 494 49 l 496 47 q 503 51 499 47 q 510 57 508 54 l 510 60 l 507 60 q 500 57 504 60 q 494 51 496 54 l 493 51 m 343 674 q 346 681 346 676 q 343 681 346 681 q 335 677 340 681 q 331 671 331 674 q 333 669 331 671 q 342 672 336 669 l 343 674 m 551 100 q 553 99 551 99 l 554 99 q 561 102 557 99 q 565 108 565 106 l 565 110 q 563 111 564 111 q 556 107 560 111 q 553 101 553 103 l 551 100 m 54 288 q 59 294 57 288 q 61 303 61 300 q 60 304 61 303 q 58 307 60 306 q 57 304 57 307 l 57 303 q 54 297 54 301 q 54 290 54 293 q 53 289 53 290 q 54 288 53 288 m 224 574 q 219 576 221 576 q 218 575 219 576 q 217 574 218 575 q 215 572 215 574 l 214 569 q 213 567 214 569 q 214 566 214 567 q 215 565 214 565 q 221 568 218 565 q 224 572 221 568 l 224 574 m 153 554 q 151 553 151 554 l 151 549 l 151 547 q 153 546 151 546 l 154 546 q 157 547 154 546 q 158 550 157 549 q 159 552 158 551 q 160 554 160 553 q 159 556 160 556 q 158 557 158 556 q 157 558 157 557 q 153 554 157 558 m 39 200 q 38 206 42 203 l 36 206 q 33 201 33 206 l 33 194 q 36 193 35 193 q 39 194 36 193 l 39 200 m 517 68 q 515 65 515 68 l 517 64 l 518 64 q 521 65 519 64 l 525 69 l 525 71 l 525 74 l 524 74 q 519 72 521 74 q 518 71 518 72 q 517 68 518 69 m 571 122 q 570 121 571 121 q 569 118 569 121 q 571 117 571 118 q 572 117 571 117 q 574 118 572 118 q 576 119 575 118 l 579 122 l 579 124 q 579 125 579 124 q 578 126 579 126 q 574 125 576 126 q 571 122 574 125 m 264 618 q 265 619 264 618 l 265 621 l 264 621 q 263 622 264 622 q 261 621 263 622 l 260 619 q 256 617 256 619 l 256 615 q 258 611 256 611 q 261 615 261 611 q 264 618 264 615 m 614 165 q 617 163 617 163 l 618 163 l 621 165 q 624 169 624 168 q 618 171 624 172 l 614 167 l 614 165 m 54 274 q 53 275 53 274 l 51 276 q 50 275 50 276 q 49 272 50 274 q 47 267 46 268 l 47 265 l 50 265 q 53 267 51 265 l 53 268 q 53 271 53 269 q 54 274 54 272 m 321 663 q 324 667 324 663 q 321 668 322 668 l 315 664 q 314 663 314 664 q 315 660 314 660 q 318 661 317 660 l 319 661 q 321 663 319 661 m 139 533 q 140 531 139 532 l 140 528 l 142 528 q 144 531 144 528 q 146 535 146 532 l 146 536 q 142 536 142 538 l 140 536 l 140 533 l 139 533 m 43 221 q 42 222 43 222 q 42 224 42 222 l 42 225 l 39 225 l 38 224 l 38 221 q 39 215 38 218 q 42 218 39 215 q 43 221 42 219 m 603 151 l 604 151 q 606 150 604 151 l 607 150 q 608 151 607 151 l 608 153 q 609 154 608 154 q 610 156 610 154 l 610 157 q 607 158 608 158 q 604 157 607 158 l 603 156 l 603 151 m 586 138 q 585 132 583 135 l 586 131 q 590 133 588 131 q 592 136 592 135 l 592 138 q 589 139 592 138 l 588 139 l 586 138 m 307 651 q 308 657 308 653 l 304 657 l 303 656 l 301 656 l 301 653 l 301 651 q 303 650 301 650 l 306 650 l 307 651 m 207 554 q 206 556 207 556 q 203 556 204 557 l 203 554 q 201 551 201 553 l 201 549 q 203 547 201 547 l 204 547 l 206 549 l 207 551 l 207 554 m 47 253 l 47 254 q 44 253 44 254 q 43 251 43 253 l 43 249 l 43 247 q 46 246 44 246 l 47 246 l 49 247 l 49 251 l 47 253 m 35 172 q 35 176 35 176 q 32 179 35 176 l 31 178 l 31 174 q 32 169 31 169 q 35 172 35 169 m 532 83 q 531 79 531 82 q 533 78 531 78 q 538 81 535 78 l 538 82 q 537 83 538 83 q 536 85 536 83 l 535 85 q 533 83 535 85 l 532 83 m 638 188 l 636 189 q 632 186 635 189 l 631 185 q 633 182 631 182 l 635 182 q 636 183 635 183 l 636 185 q 638 186 638 185 l 638 188 m 69 336 q 68 338 69 338 q 67 339 68 339 q 67 338 67 339 q 64 335 64 335 l 64 332 q 67 331 65 331 l 68 331 q 69 332 69 331 l 69 336 m 250 607 l 247 607 q 244 605 244 606 q 243 603 244 604 l 246 600 q 247 601 247 600 l 249 601 l 249 603 q 250 604 250 603 l 250 607 m 229 588 q 228 586 229 586 q 228 585 228 586 q 228 582 228 585 l 229 581 q 232 582 229 581 l 232 588 l 229 588 z "},"D":{"ha":751,"x_min":-1,"x_max":697,"o":"m 133 15 q 131 21 131 17 q 133 29 132 25 q 133 36 133 33 q 132 36 133 39 q 127 24 129 29 q 122 14 125 19 q 119 18 119 10 q 121 26 119 22 q 136 127 128 79 q 156 222 144 175 q 180 315 167 268 q 208 411 193 361 q 223 458 217 439 q 235 496 229 478 q 250 533 242 514 q 269 579 258 551 q 271 581 271 579 q 272 585 272 583 q 274 589 272 586 q 276 597 274 590 q 282 613 278 604 q 292 627 286 621 q 307 633 299 633 q 324 632 319 633 q 332 626 329 631 q 336 621 335 624 q 342 611 338 618 q 351 597 346 606 q 353 581 356 588 q 347 571 350 576 q 344 563 347 565 q 335 541 343 556 q 322 515 328 526 q 317 502 318 506 q 315 497 315 499 q 312 490 314 494 q 304 474 310 485 q 256 356 276 415 q 219 240 236 297 q 187 128 203 182 q 153 25 171 74 q 149 22 150 18 q 143 19 147 25 q 139 14 140 14 q 133 15 138 14 m 226 322 l 226 324 l 225 325 q 222 324 224 325 q 221 319 221 322 q 217 306 217 313 q 215 300 215 304 q 211 289 214 297 q 206 278 208 283 q 204 268 204 274 q 200 256 201 263 q 197 243 199 250 q 197 240 197 240 q 196 236 196 239 l 194 232 q 190 214 194 224 q 190 210 188 211 l 192 210 q 194 211 192 210 q 196 214 196 213 q 199 221 199 219 q 200 224 199 222 q 201 231 200 228 q 202 233 201 232 q 203 238 203 235 q 204 240 203 238 q 206 244 204 243 q 211 253 208 250 q 214 269 214 261 q 215 272 214 271 q 215 274 215 272 q 216 276 215 275 q 217 281 217 278 q 219 290 218 285 q 222 300 219 294 q 226 318 225 311 l 226 322 m 250 397 q 249 399 250 397 l 247 399 q 244 400 247 400 q 243 399 243 400 l 243 396 q 242 394 242 396 l 242 393 l 242 392 q 244 388 242 388 q 247 392 244 388 q 250 397 250 394 m 256 413 q 257 415 256 413 q 254 418 257 415 q 253 419 253 418 l 251 419 l 250 418 l 250 417 q 249 414 249 415 l 249 411 l 250 411 q 253 410 251 410 l 254 410 l 254 411 q 256 413 254 411 m 278 489 q 276 488 276 489 q 278 488 276 488 q 279 485 278 485 l 282 485 l 283 486 l 283 488 q 285 489 285 488 l 285 490 l 285 492 l 285 493 q 283 494 283 493 q 281 494 282 494 q 279 492 279 494 q 278 490 278 492 l 278 489 m 271 472 l 272 471 q 274 469 274 471 q 276 471 275 469 l 276 472 l 276 474 q 278 476 278 474 l 278 478 q 275 479 278 478 l 274 479 l 272 479 l 272 478 l 272 476 q 271 475 271 476 l 271 474 l 271 472 m 265 458 q 264 457 264 458 l 264 456 q 265 451 264 453 l 267 451 q 271 454 269 451 q 272 456 271 456 q 272 458 272 457 l 272 460 l 272 463 q 267 464 269 464 l 267 463 q 265 458 265 461 m 256 432 l 254 431 q 253 424 251 428 q 251 423 251 424 q 253 422 251 422 q 257 419 253 419 q 260 421 258 419 q 261 424 261 422 q 262 427 261 426 q 263 429 263 428 l 263 432 q 264 433 264 432 l 264 436 l 264 440 l 261 440 q 256 435 258 440 l 256 432 m 189 272 q 188 261 185 264 l 189 260 l 190 260 l 192 263 q 197 279 193 267 q 200 290 197 282 q 203 306 200 294 l 204 308 q 208 321 207 315 q 213 333 210 326 q 223 357 219 344 q 229 383 226 369 q 233 399 232 390 q 238 414 235 407 q 240 419 239 417 q 242 425 240 422 q 250 446 247 435 q 251 450 250 449 q 254 458 254 456 q 254 463 256 461 l 253 464 q 249 462 250 464 q 247 458 249 460 q 246 451 247 454 q 242 443 244 447 q 237 433 239 438 q 235 424 235 429 l 233 424 l 233 422 q 231 415 232 419 q 229 408 229 411 q 226 399 226 403 q 222 390 225 394 q 217 378 219 383 q 213 367 215 372 q 207 350 208 358 q 203 332 206 342 q 201 319 201 325 q 197 307 200 314 q 192 286 194 300 q 189 274 192 282 l 189 272 m 4 429 q 0 440 3 432 q 1 456 -1 447 q 8 472 4 464 q 18 492 13 482 q 121 635 65 579 q 231 723 176 690 q 338 769 286 756 q 428 788 389 783 l 428 789 q 463 792 444 792 q 498 790 478 792 q 540 785 518 789 q 578 772 561 781 q 622 747 600 763 q 662 708 644 732 q 688 649 679 683 q 696 567 697 614 q 678 426 693 493 q 642 301 664 360 q 594 192 621 242 q 540 103 567 142 q 513 67 528 83 q 483 36 499 51 q 458 15 471 24 q 429 -6 443 4 q 401 -24 415 -15 q 339 -50 374 -39 q 315 -55 325 -54 q 299 -56 306 -56 q 285 -53 290 -56 q 275 -50 281 -53 q 263 -45 269 -47 q 249 -37 257 -43 q 224 -17 233 -29 q 215 -3 215 -6 q 208 61 204 29 q 225 120 213 93 q 253 168 238 147 q 279 197 268 189 q 344 225 318 229 q 355 224 346 225 q 363 217 364 222 q 361 213 363 214 l 364 210 q 372 210 372 213 q 365 204 372 207 q 375 199 375 201 q 370 195 375 196 q 361 193 365 194 q 344 186 351 190 q 331 179 336 182 q 319 171 325 175 q 267 106 283 136 q 248 53 251 76 q 250 15 244 29 q 263 -4 256 0 q 309 0 278 -12 q 371 33 340 13 q 394 50 382 40 q 421 72 407 60 l 433 85 q 447 99 439 90 q 465 122 456 108 q 510 190 488 150 q 558 292 532 231 q 596 393 579 339 q 610 442 604 419 q 619 488 617 465 q 597 692 644 636 q 565 719 583 710 q 528 732 547 729 q 508 733 521 733 q 418 722 472 735 q 307 678 357 707 q 219 619 257 650 q 155 559 181 588 q 119 517 129 531 q 88 467 106 497 q 56 414 71 438 q 57 400 47 397 q 63 395 61 403 q 50 379 65 388 q 35 376 42 374 q 22 382 28 378 q 19 386 21 385 q 17 390 18 388 q 13 396 13 392 q 11 398 11 397 q 10 400 11 399 q 7 413 7 406 q 4 429 7 419 m 318 208 q 317 207 317 208 q 318 206 317 206 q 325 208 319 206 q 333 213 331 210 l 333 214 l 333 215 q 332 216 332 215 q 331 217 332 217 q 329 214 331 217 q 324 212 326 213 q 319 210 322 211 l 318 208 m 299 197 q 297 197 297 197 q 299 196 297 196 q 301 194 299 194 q 304 196 304 194 q 307 199 307 196 q 308 200 307 199 l 308 201 q 306 203 308 203 q 299 197 299 199 m 285 183 q 286 183 286 183 q 288 182 286 182 q 289 183 288 182 q 290 185 290 183 l 290 186 q 292 188 292 186 l 292 189 q 289 189 289 189 q 285 186 285 189 l 285 183 m 263 160 q 260 150 257 154 l 261 150 q 267 156 264 150 q 269 164 271 163 q 268 165 269 165 q 263 160 265 165 m 250 138 q 249 132 246 133 q 250 131 249 131 q 253 133 253 131 q 254 135 254 133 q 256 136 254 135 l 256 140 q 254 142 256 142 q 251 140 253 142 q 250 138 251 140 m 232 44 q 232 50 232 50 q 229 51 231 51 q 228 47 228 51 l 228 46 l 228 44 q 231 43 228 43 q 232 44 231 43 m 235 68 q 235 72 235 69 q 235 76 236 75 q 231 78 233 78 q 229 75 229 76 l 229 72 l 229 68 l 229 67 l 231 65 q 235 68 232 65 m 238 90 l 238 93 l 238 94 l 236 94 q 233 92 233 94 q 233 88 233 88 q 235 86 235 88 q 236 87 236 86 q 238 88 236 88 l 238 90 m 247 118 q 247 119 247 119 q 246 121 246 119 q 246 122 246 121 q 243 121 244 122 q 242 118 243 121 l 242 117 q 242 115 240 117 q 244 114 242 114 l 246 114 l 246 115 l 246 117 l 247 118 m 564 211 q 567 217 564 213 q 569 225 569 222 l 569 226 l 568 226 q 562 219 565 226 q 558 211 558 213 q 560 208 558 208 q 564 211 558 208 m 581 244 q 579 246 581 244 q 578 247 579 247 q 575 244 575 247 q 574 243 574 244 q 572 239 572 242 l 572 236 q 574 235 572 235 q 575 236 575 235 l 576 236 q 578 240 576 239 q 581 244 581 243 m 589 263 q 588 264 589 263 l 586 264 q 583 263 585 264 l 583 260 l 582 260 q 583 258 582 258 l 583 257 q 585 256 583 256 q 586 257 585 256 q 589 263 586 257 m 603 290 q 606 297 603 292 q 607 306 608 303 l 606 306 l 606 307 l 604 307 q 599 299 601 307 q 596 290 596 292 q 599 288 596 288 q 603 290 600 288 m 614 321 q 615 323 614 322 q 615 325 615 324 q 614 328 615 326 l 613 328 q 610 325 610 328 l 610 324 q 607 318 607 319 q 610 315 610 315 q 611 317 611 315 q 614 321 611 318 m 678 542 q 676 539 676 542 q 678 536 676 538 l 681 536 l 682 536 l 682 538 l 682 539 l 682 540 q 679 543 682 543 q 678 542 679 543 m 676 522 q 675 519 675 521 q 675 514 675 514 q 678 513 676 513 q 681 517 676 513 l 681 518 l 681 524 l 679 524 q 678 525 679 524 q 676 522 678 525 m 669 482 q 669 476 669 479 q 668 469 668 472 q 665 453 665 458 l 664 449 q 660 431 661 439 q 656 413 658 422 q 651 401 654 410 q 648 390 649 396 q 644 379 647 385 q 644 372 643 372 q 646 371 644 371 q 650 376 649 371 q 653 382 651 381 q 657 396 656 390 q 658 399 657 399 q 658 403 658 400 q 664 425 661 414 q 669 447 667 436 q 674 474 672 460 q 678 503 676 488 q 676 504 678 503 q 675 503 676 504 q 672 495 672 500 q 671 486 671 490 q 670 484 671 485 q 669 482 669 483 m 667 578 q 663 583 664 583 q 661 582 661 583 l 660 582 l 660 569 q 661 568 661 569 q 660 558 661 563 q 660 547 660 553 q 660 538 660 543 q 658 529 660 533 l 658 526 q 657 509 657 517 q 654 492 657 501 q 650 472 651 482 q 646 453 649 463 q 633 399 642 425 q 631 391 632 396 q 629 383 629 386 q 628 381 629 382 q 628 379 628 381 q 625 369 625 374 q 618 356 622 367 q 615 342 614 346 q 618 338 615 338 l 619 338 q 621 341 621 340 q 622 344 621 342 q 623 347 622 346 q 624 350 624 347 q 638 385 631 367 q 647 419 644 403 q 649 423 649 422 q 650 426 649 424 l 654 439 q 657 451 654 443 q 658 458 657 457 q 661 481 660 469 q 664 504 663 493 l 664 514 q 665 526 665 518 q 667 546 667 536 q 667 567 668 556 l 667 576 l 667 578 m 664 594 q 664 600 664 600 l 663 600 l 663 601 q 660 600 661 601 q 660 597 658 599 l 660 596 q 663 590 660 590 l 664 590 l 664 592 l 664 593 l 664 594 m 664 613 q 663 613 663 613 q 661 614 663 614 q 658 614 661 614 l 658 613 l 658 611 l 658 610 q 661 608 658 610 q 664 610 663 608 l 664 613 m 660 635 q 658 636 660 636 q 656 636 657 638 l 656 635 l 656 633 q 658 631 656 633 l 660 631 q 661 633 661 631 q 660 635 661 635 m 654 653 q 651 653 651 653 l 651 651 l 651 650 q 656 644 651 644 l 657 644 l 658 646 l 658 647 l 658 649 l 658 650 l 658 651 q 654 653 657 653 m 646 668 l 646 667 q 649 665 647 665 q 650 664 649 665 q 651 665 650 664 l 651 667 l 651 668 q 650 669 651 668 q 649 671 650 671 q 646 669 646 671 l 646 668 m 632 465 q 631 460 631 464 q 628 452 629 456 q 628 446 626 449 l 628 443 l 629 442 q 633 446 631 442 l 636 451 q 638 465 638 458 q 640 474 639 471 l 644 494 q 647 507 646 501 q 649 519 649 513 l 649 521 l 649 524 q 650 536 650 531 q 650 549 650 542 l 650 553 l 650 558 l 650 563 l 650 565 q 649 572 650 569 l 650 574 q 647 581 650 578 q 644 579 646 581 q 643 574 643 578 l 643 568 q 644 548 646 557 q 640 531 643 539 q 640 524 640 528 q 639 518 639 521 q 636 490 638 503 q 632 465 635 478 m 174 601 q 171 607 176 604 l 169 607 l 169 606 l 168 606 q 167 604 168 606 l 167 603 l 167 601 q 169 599 167 599 q 172 600 171 599 q 174 601 172 600 m 185 613 q 186 614 186 613 q 185 615 186 615 q 182 617 185 615 l 181 617 l 179 615 q 178 613 178 615 l 178 611 l 181 608 q 182 610 182 608 l 183 610 l 183 611 l 185 611 l 185 613 m 197 624 q 199 628 199 625 q 193 628 199 633 q 189 625 192 628 q 189 622 189 622 q 192 619 192 619 l 193 619 l 194 621 l 196 622 q 197 624 197 622 m 221 643 q 224 649 224 646 q 218 651 221 651 l 217 651 q 211 646 213 650 l 210 644 q 207 638 204 639 l 207 636 l 210 636 q 221 643 217 636 m 231 651 q 232 653 231 651 l 231 654 q 228 657 231 657 q 226 656 228 657 l 225 656 q 222 653 225 656 q 224 651 222 653 q 225 649 224 650 l 226 649 q 228 650 228 649 l 229 650 l 229 651 l 231 651 m 249 664 q 249 666 249 665 q 250 668 250 667 q 247 669 250 668 q 244 668 247 669 l 243 668 l 242 667 q 239 664 239 667 q 242 660 239 660 l 243 660 q 246 661 243 660 l 247 663 q 249 664 247 663 m 182 663 l 183 661 q 190 664 185 661 q 214 682 194 667 l 215 682 q 232 694 224 686 q 240 700 238 697 q 250 704 246 703 q 256 708 253 707 q 263 711 260 708 q 268 717 268 714 q 263 719 265 719 q 257 718 258 719 q 247 712 251 715 q 236 706 242 708 q 217 692 226 696 q 198 680 208 689 q 182 664 188 671 l 182 663 m 171 656 q 171 653 169 654 q 174 651 171 651 q 176 653 175 651 l 178 653 q 178 657 179 654 l 178 658 q 175 660 176 660 q 174 658 175 660 l 172 658 l 172 657 q 171 656 171 657 m 160 644 q 163 642 163 642 q 164 643 163 642 q 167 644 167 643 q 164 649 167 646 q 161 649 163 650 l 160 647 l 160 646 l 160 644 m 161 626 q 154 617 154 619 q 156 616 156 617 q 157 615 156 615 q 158 617 157 617 q 161 618 158 617 q 171 625 165 619 l 172 626 q 180 633 176 629 q 188 639 183 636 q 191 643 190 642 q 194 647 192 644 q 213 658 204 651 q 232 671 222 664 q 243 679 238 675 q 256 688 249 683 q 265 692 260 689 q 275 697 269 694 q 283 703 278 700 q 291 707 286 706 q 300 711 296 708 q 308 717 306 714 l 310 718 q 308 719 310 719 q 301 718 306 719 q 288 712 294 715 q 275 706 282 708 q 261 699 269 704 q 251 693 257 696 l 250 693 q 235 687 244 690 q 222 678 226 683 q 204 665 213 672 q 188 650 196 658 q 181 644 185 647 q 175 639 178 642 l 171 635 q 163 628 167 632 l 161 626 m 147 615 q 149 611 147 613 q 150 610 149 610 l 151 611 l 150 610 l 151 610 l 153 610 l 153 611 l 154 611 l 154 613 l 156 613 l 156 615 l 154 615 q 150 617 154 621 q 147 615 150 617 m 136 604 q 132 596 129 600 q 135 594 132 596 q 141 597 138 594 q 146 603 144 600 q 149 607 149 606 q 143 613 149 613 q 139 610 142 613 l 139 608 q 138 607 138 608 q 136 604 138 606 m 117 581 q 117 579 115 581 q 119 576 119 576 q 121 577 121 576 q 122 578 121 578 q 124 581 122 578 q 125 582 125 581 l 126 583 l 126 586 q 125 588 125 586 l 124 589 q 121 588 121 589 q 119 586 121 586 q 117 581 117 583 m 108 572 q 106 568 106 569 q 107 567 106 568 q 110 565 108 565 q 113 567 111 565 l 114 568 l 114 569 l 114 571 q 113 572 114 572 q 111 574 113 572 q 110 573 110 574 q 108 572 110 572 m 96 556 q 100 554 97 554 q 101 556 100 554 l 103 556 q 104 557 103 556 q 103 560 104 560 q 101 561 103 561 l 101 563 q 99 561 99 563 q 97 560 99 561 l 97 558 q 96 557 97 558 l 96 556 z "},"E":{"ha":613,"x_min":49,"x_max":736,"o":"m 54 1 q 55 57 49 19 q 74 144 61 94 q 106 253 88 194 q 146 375 125 313 q 181 483 164 432 q 208 569 197 533 q 229 633 221 610 q 249 683 238 656 q 229 679 235 681 q 206 675 215 676 q 189 674 196 674 q 183 679 182 675 q 181 692 186 689 q 179 701 176 694 q 176 707 179 704 q 168 712 172 710 q 161 715 164 714 q 163 718 158 717 q 178 725 168 722 l 186 728 q 211 735 197 731 q 239 742 222 738 q 275 751 256 746 q 286 775 278 760 q 307 790 294 790 q 333 785 331 790 q 343 769 335 779 l 343 768 q 457 791 397 781 q 569 806 517 801 q 662 805 622 810 q 715 781 701 800 q 731 754 725 768 q 735 728 735 743 q 729 701 736 714 q 714 683 721 688 q 701 681 707 679 q 693 688 696 682 q 692 701 690 694 q 694 716 693 708 q 692 730 696 724 q 677 739 689 736 q 639 740 665 742 q 586 735 621 739 q 509 724 551 731 q 422 711 467 718 q 336 699 376 704 q 329 685 333 692 q 322 674 325 679 q 317 660 318 664 q 315 654 317 657 q 313 647 314 651 q 306 632 311 643 q 289 594 297 615 q 260 509 278 558 q 224 403 243 460 q 346 431 286 422 q 439 443 406 440 q 464 442 453 443 q 481 438 474 440 q 489 428 488 435 l 489 417 q 481 399 486 403 q 466 394 471 393 q 446 392 461 394 q 406 387 438 390 q 336 376 375 383 q 259 357 297 368 q 199 331 221 346 q 166 219 182 274 q 135 117 150 165 q 133 108 133 113 q 132 100 133 104 q 128 86 129 90 q 128 80 128 82 q 126 76 128 78 q 124 65 125 74 l 124 63 q 324 84 258 72 q 406 100 390 96 q 429 111 422 104 q 440 125 436 118 q 444 137 443 132 q 449 143 444 142 q 457 141 453 144 q 464 135 461 138 q 472 125 468 129 q 476 92 479 106 q 465 67 472 78 q 444 46 457 54 q 408 31 433 38 q 348 19 382 25 q 275 9 314 14 q 201 1 236 4 q 136 -3 165 -1 q 92 -7 107 -6 q 81 -10 90 -11 q 78 -7 78 -10 q 74 -6 75 -7 q 71 -6 72 -6 q 69 -8 71 -7 q 65 -8 67 -11 l 64 -8 q 61 -7 64 -8 q 58 -6 61 -7 q 56 -2 57 -3 q 54 1 54 -1 m 446 431 q 444 429 444 431 q 456 426 444 426 q 461 426 458 426 q 465 428 464 426 q 467 429 467 428 q 465 431 467 431 q 454 432 463 432 q 446 431 446 432 m 421 429 q 419 426 419 428 q 424 425 419 425 l 425 425 l 428 425 l 431 425 q 432 426 431 425 l 433 428 l 433 429 l 432 431 l 431 431 q 426 431 431 426 q 421 429 422 431 m 400 425 q 403 424 400 424 l 404 424 l 406 424 q 407 425 407 424 q 408 426 408 425 q 407 428 408 428 l 404 428 q 400 426 401 428 l 400 425 m 351 418 q 356 417 353 417 l 363 417 q 367 418 364 418 l 368 418 q 372 422 372 419 q 368 424 372 424 q 357 422 365 425 q 353 421 354 422 l 351 421 l 351 418 m 328 415 q 326 414 326 415 l 326 413 q 328 412 328 413 q 329 411 328 411 q 331 413 331 411 l 333 413 q 340 415 338 413 l 340 417 q 338 418 339 418 q 333 417 336 417 q 328 415 329 417 m 307 408 q 310 407 307 408 l 311 407 q 314 410 311 407 l 315 410 l 315 411 q 314 413 315 413 q 307 411 310 413 l 307 408 m 275 400 l 276 400 l 278 400 q 279 401 278 401 q 283 403 281 400 l 283 404 q 281 406 283 406 l 279 406 q 275 403 276 406 l 275 400 m 253 397 q 251 394 251 396 q 256 393 253 393 q 263 396 260 393 l 264 396 l 264 397 q 261 401 264 401 l 258 401 l 258 400 l 257 400 q 254 399 256 400 q 253 397 253 399 m 228 389 q 226 388 226 389 q 228 386 226 386 q 235 389 235 386 q 232 392 235 392 l 231 392 q 229 391 229 392 q 228 390 229 390 l 228 389 m 269 383 q 247 376 257 379 q 232 372 239 374 q 224 368 225 369 l 224 365 q 226 364 224 365 q 240 367 231 364 q 260 374 250 371 q 263 374 263 374 q 264 375 263 375 q 274 376 269 375 q 286 379 279 378 q 291 381 289 381 q 296 383 293 382 q 323 387 310 385 q 350 392 336 389 q 372 397 361 394 q 393 400 382 399 l 426 404 q 442 406 429 404 q 456 410 454 407 q 454 411 456 411 q 447 413 454 413 q 431 412 440 413 q 415 410 421 411 q 413 408 414 410 l 411 408 l 406 408 q 397 407 400 408 l 396 407 q 388 407 393 407 q 381 406 383 407 l 368 406 q 358 404 361 406 q 324 397 340 401 q 289 389 307 393 q 280 386 285 388 q 269 383 275 385 m 335 714 q 333 713 333 714 q 335 711 333 713 q 338 713 336 711 q 338 714 338 714 q 339 715 339 714 q 336 718 339 718 q 335 715 335 718 l 335 714 m 388 722 q 389 725 389 724 q 388 726 388 725 l 386 726 q 381 725 385 725 l 378 725 l 375 725 q 365 722 367 725 l 365 719 q 368 717 365 717 q 371 717 369 717 q 374 718 372 718 l 375 718 q 381 719 378 718 q 388 722 385 719 m 454 735 q 447 739 453 739 q 444 738 446 739 q 436 736 442 736 l 431 736 q 424 733 428 733 q 417 732 419 733 l 415 732 q 414 728 410 732 q 419 725 414 725 q 426 726 422 725 q 431 726 429 726 l 432 728 l 438 728 q 440 728 439 728 q 443 729 442 729 q 449 731 446 729 q 454 733 454 731 l 454 735 m 526 747 l 525 747 q 522 748 524 747 q 519 749 521 749 q 513 744 513 749 q 513 742 510 742 q 515 740 513 740 l 518 740 l 519 740 l 521 742 q 526 744 525 742 l 526 747 m 576 753 l 575 754 l 568 754 q 560 753 563 754 q 556 753 557 753 l 553 751 q 551 747 551 750 q 557 746 553 746 l 561 746 q 564 747 561 746 l 572 747 q 575 749 575 749 q 576 751 575 750 l 576 753 m 642 754 q 643 757 643 756 q 640 759 642 758 q 626 760 638 760 q 613 760 619 760 q 603 757 606 760 q 601 754 601 756 q 613 751 603 751 l 622 751 l 624 751 l 625 751 l 628 751 q 642 754 639 751 m 618 781 q 603 779 608 781 q 598 778 600 779 q 593 778 596 778 q 573 776 582 776 q 556 774 564 776 q 504 765 529 769 q 454 757 479 761 q 428 751 440 754 q 403 746 415 749 q 389 743 397 746 q 385 742 386 743 q 381 742 383 742 q 378 741 379 742 q 374 740 376 740 q 347 731 351 738 l 347 728 l 349 728 l 350 728 q 384 735 367 731 q 418 742 401 739 q 453 749 436 746 q 489 756 471 753 q 504 757 496 756 q 521 761 513 758 l 542 765 q 588 769 565 768 q 635 771 611 771 l 640 771 l 647 771 l 654 771 q 663 770 657 771 q 671 769 668 769 q 674 771 674 769 l 674 772 q 643 782 665 782 q 633 781 638 782 q 625 781 628 781 l 624 781 l 618 781 m 369 763 q 358 760 364 761 q 347 757 353 758 l 346 756 l 346 754 q 347 750 347 753 l 347 749 l 349 749 q 350 747 349 747 q 390 758 369 754 q 429 765 410 761 q 443 767 436 767 q 457 771 450 768 q 472 772 464 771 q 486 775 479 774 q 495 777 490 776 q 504 779 500 778 q 538 783 521 782 q 569 788 554 785 q 578 788 574 788 q 588 789 583 789 q 593 790 590 789 q 599 790 596 790 q 610 793 610 790 q 608 795 610 794 q 600 796 607 796 l 596 796 q 585 794 589 796 q 576 794 581 794 q 567 793 571 794 q 524 788 544 790 q 483 782 503 785 q 471 780 476 781 q 458 779 465 779 q 439 776 449 776 q 418 772 429 775 q 409 769 414 769 q 399 768 404 769 q 385 765 393 768 q 377 764 381 764 q 369 763 374 764 m 196 714 q 193 713 193 717 l 194 711 l 199 711 q 214 713 206 711 q 226 718 222 715 q 233 719 229 719 q 239 721 236 719 q 267 729 254 724 l 268 729 q 274 735 271 731 q 272 736 274 735 q 271 738 272 738 q 251 732 263 735 q 238 728 244 729 q 224 724 231 726 q 215 721 221 724 q 204 716 210 718 q 196 714 199 714 m 201 696 q 201 699 203 697 l 199 699 l 196 699 l 194 699 q 190 696 193 699 l 188 693 l 188 692 l 189 692 q 192 690 190 690 q 197 692 194 690 q 201 696 200 693 m 233 693 q 232 700 233 697 l 229 700 l 228 700 q 226 699 226 700 q 224 699 225 699 l 221 699 l 219 699 l 219 697 l 218 697 l 217 697 l 215 697 q 212 694 214 696 q 211 690 210 693 q 214 689 211 689 l 217 689 q 219 690 218 689 l 221 690 q 222 689 221 689 q 228 690 225 689 q 233 693 232 690 m 251 706 q 261 711 260 706 q 261 714 263 713 l 260 714 q 257 713 258 714 q 253 713 256 713 q 251 712 251 713 q 249 711 250 711 l 247 711 l 246 711 q 241 709 244 711 q 238 706 238 707 q 240 703 238 703 q 244 704 243 703 l 247 704 q 249 705 249 704 q 251 706 250 706 m 78 29 l 76 29 q 75 28 76 29 l 75 26 q 78 22 75 22 q 82 28 81 22 l 81 28 l 81 29 l 79 29 l 78 29 m 64 32 q 63 28 61 29 l 64 26 q 68 25 65 25 l 69 25 l 69 26 q 71 29 69 26 l 71 31 q 68 32 69 32 l 67 32 q 65 33 67 32 q 64 32 64 33 m 99 22 q 100 26 100 24 q 94 29 100 29 q 88 26 88 29 q 90 21 85 24 q 92 20 92 21 q 93 19 92 19 q 99 22 96 19 m 114 26 l 114 28 q 113 29 114 28 l 111 29 l 111 28 q 110 29 110 28 l 108 29 l 107 28 l 106 28 q 106 24 106 24 q 107 22 106 22 l 108 22 l 111 22 l 114 22 l 114 26 m 439 86 q 438 83 438 85 q 442 79 438 79 q 447 82 444 79 q 450 88 450 85 l 450 89 q 446 90 449 90 q 440 88 443 90 l 439 86 m 428 81 q 428 76 428 81 l 428 75 q 429 74 428 74 l 431 74 q 432 75 431 74 q 433 75 432 74 q 435 76 435 75 l 435 78 l 435 79 q 431 81 435 85 l 428 81 m 417 75 q 417 72 417 72 q 418 71 418 72 l 419 69 l 421 71 l 422 71 l 424 72 l 424 74 q 421 78 424 75 l 419 76 q 417 76 419 76 l 417 75 m 393 69 q 394 64 393 65 q 397 63 394 64 q 406 67 401 63 q 406 68 406 67 q 400 72 406 72 q 393 69 393 72 m 188 36 q 185 33 185 36 q 193 31 185 31 q 210 32 199 31 q 232 34 221 33 q 251 36 243 35 q 261 38 260 38 q 267 39 264 39 q 274 40 271 39 q 297 43 285 42 q 321 47 310 44 q 335 49 328 47 q 347 50 343 50 q 350 51 350 50 q 353 52 351 51 q 357 53 354 53 q 372 56 365 54 q 382 60 379 57 l 383 60 l 385 60 q 388 61 386 60 l 389 61 q 390 64 390 63 q 389 65 390 65 q 386 67 389 67 l 385 67 q 382 65 382 67 l 376 65 q 353 63 368 65 q 329 57 338 60 q 326 56 328 56 l 325 56 q 294 51 310 53 q 264 46 279 49 q 256 44 260 44 q 247 43 251 44 q 242 42 244 43 q 236 42 239 42 q 226 40 231 40 q 214 39 221 40 l 206 39 q 196 39 201 39 q 188 36 190 39 m 149 32 q 147 31 147 32 l 147 25 l 147 24 l 149 22 l 150 22 l 150 24 l 151 24 l 153 24 l 154 24 q 156 25 154 24 l 156 26 l 156 28 l 156 29 l 157 29 q 158 28 157 28 l 160 28 l 163 28 l 164 28 l 164 26 l 165 26 l 167 26 l 168 26 q 169 28 168 28 q 169 29 169 28 l 169 31 l 169 33 l 169 35 q 167 36 169 35 q 164 35 165 36 l 163 35 l 160 35 q 154 32 154 32 l 153 32 l 153 33 l 151 33 l 151 32 q 149 32 150 33 m 128 28 l 131 28 q 133 26 132 28 q 135 27 135 26 q 136 28 135 28 l 136 24 l 138 24 l 138 22 l 139 22 l 139 24 q 140 24 139 22 l 142 24 l 142 26 l 142 28 l 142 29 q 139 29 142 29 q 136 29 139 29 l 136 32 q 135 33 136 33 q 133 33 135 35 l 132 33 q 131 35 132 35 q 131 33 131 35 l 129 33 q 128 32 128 33 l 128 28 m 125 28 q 122 29 124 29 l 121 29 l 119 29 l 118 28 l 118 26 q 119 22 118 24 l 121 22 l 122 22 q 125 25 124 22 l 125 28 z "},"F":{"ha":476,"x_min":-1,"x_max":735,"o":"m 53 -26 q 33 -11 46 -19 q 7 15 19 -3 q 0 62 1 25 q 6 144 -1 99 q 31 235 14 190 q 79 307 47 281 q 108 328 92 318 q 144 347 125 339 q 179 455 163 404 q 207 542 196 506 q 228 605 219 582 q 247 656 236 628 q 228 651 233 653 q 204 647 214 649 q 188 647 194 646 q 182 651 181 647 q 180 664 185 661 q 178 674 175 667 q 174 679 178 676 q 167 684 171 682 q 160 688 163 686 q 161 690 157 689 q 176 697 167 694 l 185 700 q 210 707 196 703 q 238 714 221 710 q 274 724 254 718 q 285 747 276 732 q 306 763 293 763 q 332 757 329 763 q 342 742 333 751 l 342 740 q 456 763 396 753 q 568 778 515 774 q 660 777 621 782 q 714 753 700 772 q 729 726 724 740 q 734 701 733 715 q 728 674 735 686 q 713 656 719 660 q 700 653 706 651 q 692 660 694 654 q 690 674 689 667 q 693 688 692 681 q 691 702 694 696 q 676 711 688 708 q 638 713 664 714 q 585 707 619 711 q 508 697 550 703 q 420 683 465 690 q 335 671 375 676 q 328 658 332 664 q 321 646 324 651 q 316 633 317 636 q 314 626 315 629 q 311 619 313 624 q 304 604 310 615 q 288 567 296 588 q 259 481 276 531 q 222 375 242 432 q 344 403 285 394 q 438 415 404 413 q 463 414 451 415 q 479 410 472 413 q 488 400 486 407 l 488 389 q 479 371 485 375 q 465 366 469 365 q 444 364 460 367 q 405 359 436 363 q 335 348 374 356 q 258 329 296 340 q 197 303 219 318 q 165 192 181 246 q 133 89 149 138 q 132 81 132 85 q 131 72 132 76 q 127 58 128 63 q 126 52 126 54 q 125 48 126 50 q 122 38 124 46 q 119 14 119 26 q 115 -4 118 1 q 115 -7 115 -6 q 114 -11 114 -8 q 113 -15 113 -14 q 111 -19 113 -17 l 111 -21 q 106 -31 110 -31 q 101 -32 103 -32 l 100 -32 q 97 -28 97 -31 q 94 -28 96 -26 q 92 -31 93 -31 q 90 -35 92 -32 q 79 -37 89 -39 q 75 -33 76 -37 q 76 -31 75 -32 q 76 -26 76 -29 q 77 -17 76 -22 q 78 -6 78 -11 q 76 -3 78 -1 q 74 -8 75 -4 q 72 -15 72 -11 q 71 -21 72 -18 q 68 -36 71 -33 q 64 -36 65 -39 l 63 -36 q 60 -35 63 -36 q 57 -33 60 -35 q 54 -30 56 -31 q 53 -26 53 -29 m 449 403 q 449 401 449 403 q 450 399 449 400 q 460 399 451 399 q 468 400 467 399 q 469 401 469 400 q 468 403 469 403 q 458 404 467 404 q 449 403 449 404 m 424 401 q 422 399 422 400 q 428 397 424 397 l 429 397 l 431 397 l 433 397 q 435 399 433 397 l 436 400 l 436 401 q 435 403 436 403 q 431 403 432 400 q 424 401 425 403 m 403 397 q 406 396 403 396 l 407 396 l 410 396 q 411 397 410 397 l 411 399 q 410 400 411 400 l 407 400 q 403 399 404 400 l 403 397 m 354 393 q 356 390 354 390 q 357 389 356 389 l 358 389 l 365 389 q 369 390 367 390 l 371 390 q 375 394 375 392 q 371 396 375 396 q 361 394 367 397 q 356 393 357 394 l 354 393 m 331 388 q 331 386 331 388 l 331 385 q 333 383 331 385 q 335 385 333 383 l 336 385 q 343 388 340 385 l 343 389 q 342 390 343 390 l 340 390 q 336 389 340 389 q 331 388 332 389 m 311 383 q 310 381 310 383 q 311 380 311 381 q 313 379 311 379 l 314 379 q 318 382 315 379 l 319 383 q 317 385 319 385 q 311 383 313 385 m 278 375 q 279 372 278 375 l 281 372 q 282 374 281 374 q 286 375 286 369 q 288 376 288 375 q 286 376 288 376 q 285 378 286 378 l 283 378 l 282 378 q 278 375 279 378 m 256 369 q 256 367 256 369 q 258 365 256 365 q 265 368 263 365 l 267 368 l 267 369 q 264 374 267 374 l 263 374 l 261 372 l 260 372 q 257 371 260 372 q 256 369 257 371 m 229 360 l 231 358 q 238 361 238 358 q 236 364 238 364 l 235 364 l 233 364 q 229 361 232 364 l 229 360 m 228 340 q 226 338 226 339 q 228 337 228 338 q 231 336 229 336 q 244 340 235 336 q 264 346 253 343 q 267 347 265 346 q 278 349 272 347 q 289 351 283 350 q 294 353 292 353 q 300 356 297 354 q 326 359 314 357 q 353 364 339 361 q 375 369 364 367 q 397 372 386 371 q 413 374 404 374 q 429 376 421 375 q 444 378 432 376 q 458 382 457 379 l 458 383 q 450 385 457 385 q 434 384 443 385 q 418 382 425 383 q 415 381 417 382 l 414 381 l 408 381 q 400 379 403 381 l 399 379 q 391 379 396 379 q 383 378 386 379 l 372 378 q 361 376 364 378 q 326 369 343 374 q 293 361 310 365 q 283 358 288 360 q 272 356 278 357 q 250 349 260 351 q 235 344 242 346 q 228 340 228 342 m 338 686 q 336 685 336 686 q 338 683 336 685 q 340 685 340 683 q 342 688 342 686 q 339 690 342 690 q 338 688 339 690 l 338 686 m 392 697 l 390 699 l 389 699 q 385 697 388 697 l 382 697 l 378 697 q 368 694 371 697 l 368 692 q 372 689 368 689 q 374 690 374 689 q 378 690 375 690 q 384 691 379 690 q 392 694 389 692 l 392 697 m 458 706 q 457 707 458 707 q 454 710 457 710 q 450 711 451 711 q 447 710 450 711 q 439 708 446 708 l 435 708 q 427 706 432 706 q 419 704 422 706 l 418 704 q 417 703 417 704 l 417 700 q 422 697 418 697 q 428 698 425 697 q 435 699 432 699 l 435 700 l 440 700 q 444 701 443 700 q 446 701 444 701 q 451 703 449 701 q 458 706 456 703 m 522 717 q 524 718 524 717 q 522 719 524 719 q 521 718 521 719 q 522 717 521 717 m 579 725 q 578 726 579 725 l 571 726 q 559 725 561 726 q 556 724 557 724 q 556 719 556 724 q 560 718 556 718 l 564 718 q 566 719 565 718 q 568 719 567 719 l 575 719 l 576 719 q 578 722 578 721 q 579 724 578 722 l 579 725 m 646 729 q 631 732 646 732 q 617 732 624 732 q 607 729 610 732 q 606 726 601 726 q 615 724 606 724 l 626 724 l 628 724 l 631 724 q 646 726 640 724 l 646 729 m 621 753 q 606 751 611 753 q 601 751 603 751 q 596 750 599 750 q 577 749 586 749 q 560 746 568 749 q 508 738 533 742 q 457 729 482 733 q 431 724 444 726 q 406 718 418 721 q 392 715 403 718 q 388 715 389 715 q 383 714 386 714 q 381 713 382 714 q 376 713 379 713 q 360 709 367 711 q 351 703 353 707 q 351 700 350 701 l 353 700 q 388 707 371 703 q 422 714 404 711 q 456 722 439 718 q 492 728 474 725 q 568 739 532 735 q 638 743 604 743 l 643 743 l 650 743 l 658 743 q 665 742 660 743 q 674 742 671 742 q 676 743 676 742 q 678 744 678 743 q 676 744 678 744 q 647 754 671 754 q 637 753 642 754 q 628 753 632 753 l 626 753 l 621 753 m 350 728 q 349 727 349 728 q 350 726 349 726 q 351 722 350 724 l 351 721 l 353 719 l 354 719 q 394 730 374 726 q 433 738 414 733 q 447 740 440 739 q 461 743 454 740 q 476 744 468 743 q 490 747 483 746 l 507 751 q 541 756 525 754 q 572 760 557 757 q 582 760 578 760 q 592 761 586 761 q 597 762 594 761 q 603 763 600 763 q 614 765 614 763 q 604 768 614 768 l 599 768 q 588 767 592 768 q 569 765 576 767 q 526 760 547 763 q 486 754 506 757 q 474 752 479 753 q 461 751 468 751 q 442 748 451 749 q 421 744 432 747 q 412 742 417 742 q 401 740 407 742 q 388 738 396 740 q 381 736 385 736 q 372 735 376 736 q 362 732 367 733 q 350 729 357 731 l 350 728 m 206 668 q 201 672 203 672 q 199 671 201 672 q 197 669 197 671 l 197 671 q 196 669 197 671 l 194 669 l 193 669 q 192 665 190 667 q 194 663 192 663 q 197 664 194 663 l 199 664 l 200 664 q 206 668 203 664 m 236 667 q 235 672 238 668 l 233 672 l 232 672 l 231 672 q 228 671 229 672 l 224 671 l 222 671 l 222 669 l 219 669 q 214 663 214 667 q 217 661 214 661 l 219 661 q 224 663 222 661 l 226 663 l 228 663 l 229 663 l 231 663 q 236 667 236 665 m 239 693 q 244 694 242 693 q 249 694 246 694 q 265 699 257 697 q 276 707 274 701 l 276 708 q 275 710 276 710 q 268 708 274 708 q 228 697 242 701 q 207 691 214 693 q 199 688 200 689 q 197 686 197 686 q 197 685 197 686 q 200 683 197 683 q 205 684 201 683 q 211 685 208 685 q 213 685 213 685 q 214 686 213 686 l 215 686 q 224 689 218 686 q 239 693 232 693 m 254 678 q 265 683 263 678 l 265 686 l 263 686 q 260 685 261 686 q 257 685 258 685 q 255 684 256 685 q 253 683 254 683 l 250 683 l 249 683 q 244 681 246 682 l 242 678 q 243 675 242 675 l 244 675 q 249 676 247 675 l 250 676 q 252 677 251 676 q 254 678 253 678 m 26 63 q 29 61 26 61 l 31 61 l 32 61 q 33 63 32 61 l 33 64 q 32 67 33 65 l 32 68 q 31 69 32 68 l 29 69 q 26 68 29 69 l 26 65 l 26 63 m 99 257 q 81 217 92 246 q 63 158 71 189 q 53 99 56 126 q 61 63 51 72 q 65 60 64 60 q 72 103 69 83 q 86 156 75 122 q 92 174 89 164 q 100 193 96 183 q 110 235 106 214 q 122 276 115 256 q 99 257 107 268 m 47 18 q 44 15 44 15 q 43 14 43 15 q 44 13 43 14 q 46 11 44 11 q 47 10 46 10 q 49 11 47 10 l 50 13 l 51 14 q 51 15 51 15 q 50 17 50 15 q 49 18 49 17 l 47 18 m 43 31 q 40 32 43 31 q 38 29 38 29 l 36 29 l 35 29 l 35 26 l 35 25 q 36 24 36 25 l 36 22 l 38 22 l 39 22 q 43 24 42 22 q 44 26 44 25 l 44 28 l 44 29 l 43 31 m 36 40 q 33 39 33 40 q 32 38 32 39 l 32 36 l 33 35 q 35 33 33 35 l 36 33 q 38 35 36 35 q 39 38 39 35 l 39 39 l 38 40 l 36 40 m 33 57 l 32 57 q 28 54 29 57 l 28 51 l 31 51 l 32 51 l 33 51 l 35 51 l 35 54 l 35 56 l 33 57 m 25 126 q 26 124 25 125 q 31 121 29 121 l 32 122 q 33 124 32 124 l 33 129 l 33 132 l 33 133 q 29 135 32 135 l 28 135 q 25 131 25 135 l 25 126 m 25 113 q 25 110 25 113 q 27 109 26 110 q 29 108 28 108 l 31 108 q 32 110 31 108 l 32 111 l 32 113 l 32 114 l 32 115 l 31 117 q 25 115 25 117 l 25 114 l 25 113 m 24 101 q 25 100 24 101 q 28 99 25 99 l 29 99 l 31 99 l 31 100 l 31 101 l 31 103 l 31 104 l 29 104 l 28 104 l 26 104 l 25 104 q 24 103 25 103 l 24 101 m 22 83 q 24 76 22 78 q 28 74 26 74 l 29 74 q 32 81 35 74 q 26 86 32 86 l 25 86 q 22 83 22 86 z "},"G":{"ha":693,"x_min":-12,"x_max":696,"o":"m 418 43 q 425 68 419 56 q 427 78 426 74 q 429 88 428 82 l 429 89 q 442 131 436 111 q 454 171 447 151 q 459 188 457 179 q 464 206 461 197 l 465 206 q 408 135 440 169 q 340 69 376 100 q 319 52 329 60 q 299 38 310 44 q 252 15 275 22 q 210 8 229 8 q 175 8 190 7 q 154 11 160 10 q 151 13 153 13 q 54 74 92 28 q 5 188 17 121 q 10 335 -7 254 q 79 501 28 417 q 166 622 122 572 q 253 706 210 672 q 337 758 296 739 q 414 786 378 776 q 578 789 499 808 q 638 750 619 778 q 649 721 646 738 q 649 683 653 704 q 633 633 646 661 q 593 569 619 604 q 503 488 553 515 q 405 451 453 461 q 318 446 357 442 q 261 457 279 450 q 260 458 260 457 q 258 458 260 458 q 257 460 257 458 q 250 464 251 463 q 250 467 249 465 q 256 472 250 467 q 257 474 257 472 l 257 475 q 260 478 258 478 q 264 481 261 478 q 272 485 265 485 l 276 485 q 281 490 275 489 q 293 492 286 492 q 311 490 300 492 q 354 489 329 490 q 408 493 379 488 q 469 515 438 499 q 532 568 501 532 q 576 633 563 603 q 588 688 589 664 q 571 726 586 711 q 531 743 556 740 q 456 733 504 744 q 349 685 407 721 q 228 583 290 649 q 115 411 167 517 q 69 274 78 335 q 72 169 60 214 q 112 97 83 125 q 178 58 140 69 q 239 65 206 50 q 306 108 272 81 q 373 172 340 136 q 431 240 406 208 q 474 295 457 272 q 492 321 490 318 l 493 321 q 503 326 496 326 q 511 326 510 326 q 515 322 514 324 q 517 322 515 319 q 521 329 518 324 q 532 332 525 333 q 536 328 536 329 q 535 324 536 325 q 535 319 535 322 q 534 312 535 317 q 533 303 533 307 l 532 303 q 526 288 529 301 l 526 283 l 526 281 q 525 275 525 278 l 525 274 l 525 272 l 525 269 q 524 268 525 269 q 523 266 524 267 q 522 264 522 265 q 519 258 519 261 q 518 253 518 256 q 517 250 518 250 l 517 249 q 515 242 517 244 q 514 228 513 229 l 514 225 q 513 222 513 224 l 513 221 l 513 219 q 512 215 513 217 q 511 210 511 213 l 510 210 l 510 208 l 510 207 q 508 206 508 207 l 508 204 l 508 201 q 510 199 510 201 q 510 194 507 196 l 508 194 q 506 193 508 194 q 503 185 503 188 q 507 179 504 179 q 510 181 508 179 l 511 181 q 513 188 513 182 l 513 192 l 513 193 q 516 197 515 193 q 519 213 517 200 l 519 214 l 519 217 q 521 222 521 219 q 522 228 521 225 l 525 231 q 529 238 529 235 l 528 238 q 528 241 528 239 q 529 244 529 243 q 531 246 531 244 q 532 261 532 250 q 533 269 532 267 q 535 278 533 275 q 535 283 535 281 q 536 288 536 285 l 536 290 q 538 299 538 293 q 539 303 538 301 q 540 315 539 310 q 543 331 540 328 l 547 331 l 549 331 q 551 329 550 329 l 554 326 q 560 302 564 319 q 556 282 557 285 q 553 276 556 279 l 553 275 q 544 226 546 244 q 539 188 542 207 q 525 138 535 167 q 522 132 525 138 l 518 119 q 522 122 521 122 q 586 170 563 153 q 625 198 610 188 q 651 215 640 208 q 676 228 661 221 q 685 232 678 228 q 690 232 690 232 q 693 229 693 232 q 688 226 690 229 l 688 225 l 688 224 l 689 222 l 692 222 l 692 224 l 692 222 l 689 219 q 692 217 692 217 l 692 215 l 692 217 l 693 215 l 693 213 l 693 211 l 693 210 l 693 207 q 696 203 696 204 q 694 196 696 199 q 685 183 689 188 q 675 172 682 179 l 674 172 q 668 168 671 171 q 658 161 665 165 q 599 119 631 142 q 524 67 567 97 q 510 56 517 61 q 496 46 503 51 q 493 35 494 40 q 490 25 492 31 q 463 -69 478 -19 q 431 -165 447 -119 q 396 -249 414 -211 q 360 -308 378 -286 q 306 -369 336 -336 q 238 -431 276 -403 q 152 -475 199 -458 q 50 -486 106 -492 q -10 -408 -3 -457 q -6 -360 -12 -387 q 21 -300 0 -333 q 81 -226 42 -267 q 185 -136 121 -185 q 310 -39 253 -83 q 418 43 368 6 m 201 -435 q 200 -433 201 -433 q 191 -436 197 -433 q 177 -442 185 -439 q 163 -448 169 -444 q 157 -451 157 -451 q 154 -453 156 -453 q 151 -454 153 -453 q 139 -458 144 -454 q 136 -459 138 -458 q 133 -460 135 -460 q 126 -462 129 -461 q 118 -462 122 -462 q 116 -463 117 -462 q 114 -464 115 -464 q 99 -465 113 -464 q 82 -471 85 -467 q 83 -474 82 -474 q 90 -476 83 -476 q 95 -476 93 -476 q 100 -475 97 -475 q 168 -454 126 -474 q 185 -447 178 -451 q 201 -436 200 -440 l 201 -435 m 104 -449 q 110 -451 104 -451 l 111 -451 q 119 -449 113 -451 q 126 -444 125 -447 l 126 -442 l 125 -442 q 122 -442 122 -442 q 118 -443 121 -443 q 107 -446 113 -443 q 104 -449 104 -446 m 140 -440 l 142 -440 q 154 -436 153 -437 l 154 -433 q 151 -432 154 -432 q 147 -433 149 -432 l 144 -433 q 140 -436 143 -433 l 140 -439 l 140 -440 m 169 -424 q 167 -428 167 -426 q 169 -429 167 -429 l 172 -429 q 174 -428 172 -429 l 175 -428 q 176 -426 175 -426 q 174 -422 176 -425 l 172 -422 q 171 -424 172 -422 l 169 -424 m 217 -428 q 218 -425 218 -426 q 217 -422 217 -424 l 215 -422 q 211 -424 213 -422 q 208 -425 211 -424 l 208 -429 q 210 -431 208 -431 q 211 -432 210 -431 l 213 -431 l 214 -431 l 214 -429 l 215 -429 l 217 -428 m 215 -407 q 220 -404 218 -407 q 224 -401 222 -401 q 225 -396 226 -397 l 224 -394 q 219 -397 222 -394 q 217 -399 218 -399 q 215 -400 215 -399 l 214 -400 q 210 -403 213 -401 q 204 -407 204 -406 q 204 -410 203 -408 q 207 -411 204 -411 q 214 -408 211 -411 l 215 -407 m 232 -417 q 231 -414 232 -417 q 228 -412 231 -414 l 226 -412 q 225 -414 225 -412 l 225 -415 l 224 -415 q 224 -417 224 -417 q 225 -418 225 -417 l 226 -418 l 226 -419 l 228 -421 q 229 -419 229 -421 l 231 -419 l 231 -418 q 232 -417 232 -418 m 239 -390 q 249 -382 249 -386 l 249 -379 l 247 -379 q 242 -381 244 -378 l 242 -382 q 239 -385 242 -382 l 236 -387 l 236 -389 q 238 -390 236 -390 l 239 -390 m 267 -368 q 267 -365 267 -365 q 264 -364 267 -365 l 263 -364 q 261 -365 263 -364 l 260 -367 q 260 -371 260 -371 q 261 -372 260 -371 q 264 -371 261 -372 l 267 -368 m 281 -321 q 278 -319 279 -319 q 273 -322 276 -319 q 254 -339 269 -325 q 253 -340 254 -340 q 253 -342 253 -340 q 246 -347 250 -343 q 238 -353 242 -350 q 232 -360 236 -356 q 219 -367 225 -362 q 207 -376 214 -372 q 185 -390 196 -383 q 164 -403 175 -397 l 156 -407 q 148 -411 151 -410 q 140 -414 144 -412 q 135 -417 135 -417 q 128 -419 131 -417 l 126 -419 q 117 -425 117 -422 l 117 -426 l 119 -426 q 126 -426 121 -426 q 135 -424 132 -425 q 171 -407 154 -417 q 201 -393 186 -403 q 228 -372 217 -383 q 247 -357 236 -364 q 265 -342 256 -350 q 278 -325 274 -333 q 281 -322 281 -322 l 281 -321 m 293 -343 q 294 -339 294 -342 q 288 -340 292 -336 q 286 -343 286 -342 q 289 -346 286 -346 l 290 -346 q 292 -344 292 -346 q 293 -343 292 -344 m 313 -319 q 314 -319 314 -319 q 313 -318 314 -318 l 313 -317 q 310 -315 311 -315 q 307 -317 308 -315 q 306 -319 306 -317 q 301 -324 301 -319 q 304 -329 301 -326 l 306 -329 q 307 -328 307 -329 q 308 -326 308 -328 q 310 -325 308 -325 q 311 -324 310 -325 l 311 -322 q 313 -319 313 -322 m 329 -296 q 329 -292 329 -292 q 324 -293 326 -289 q 322 -294 322 -293 q 322 -297 322 -297 q 325 -300 322 -300 q 326 -299 326 -300 l 328 -297 l 328 -296 l 329 -296 m 319 -226 q 363 -117 344 -167 q 396 -26 382 -67 q 255 -133 321 -81 q 149 -222 189 -186 q 76 -306 99 -271 q 49 -364 54 -340 q 49 -401 43 -387 q 60 -421 54 -415 q 99 -414 65 -426 q 175 -375 132 -401 q 259 -310 218 -349 q 319 -226 300 -272 m 665 211 q 664 210 664 211 q 665 210 664 210 q 668 207 665 207 l 669 207 l 671 208 q 672 210 672 208 q 674 211 672 210 l 675 211 l 675 215 q 669 215 672 218 q 665 211 665 213 m 271 467 q 275 468 275 467 q 274 472 276 469 q 267 474 272 474 l 265 474 q 263 474 264 475 l 263 469 q 271 467 265 467 m 281 465 q 282 467 281 465 l 282 468 q 278 471 279 471 q 275 468 278 471 l 275 467 l 276 465 l 278 465 l 279 465 l 281 465 m 468 485 q 469 488 468 485 q 467 489 469 488 q 465 488 465 489 q 463 488 464 488 l 460 488 q 454 485 454 485 q 449 483 451 483 q 443 481 446 482 q 440 479 442 479 q 438 478 439 479 q 432 476 435 476 q 426 474 429 475 q 423 473 424 474 q 421 472 422 472 q 417 472 418 472 q 413 471 415 471 q 406 469 411 469 q 397 469 401 471 q 385 469 393 469 q 374 465 378 468 q 363 466 368 467 q 353 465 358 465 q 342 463 347 464 q 331 464 336 463 q 317 465 324 464 q 304 467 311 465 l 301 467 q 299 467 300 467 q 296 468 299 468 q 294 469 294 468 q 292 469 293 469 l 289 469 q 286 467 286 469 q 288 464 286 467 q 290 463 289 463 q 293 461 292 461 l 294 461 q 328 457 313 458 l 332 457 l 336 457 l 340 457 l 346 457 q 350 456 347 456 l 354 456 q 367 457 363 456 q 383 457 376 460 l 389 457 q 411 463 397 457 q 415 463 414 463 q 418 464 417 464 l 419 465 q 432 468 424 465 q 436 469 435 468 q 440 472 438 471 q 442 473 442 472 q 444 474 443 474 q 447 475 446 475 q 451 476 449 475 q 460 480 456 478 q 468 485 465 482 m 228 601 q 226 603 228 601 l 225 603 l 224 601 l 224 600 l 222 600 l 222 597 l 224 596 l 225 596 q 228 600 228 597 l 228 601 m 239 611 q 244 618 244 614 q 242 621 244 621 q 240 621 242 622 q 239 619 240 619 q 238 618 239 618 q 236 613 235 615 q 238 611 236 611 l 239 611 m 254 626 q 256 631 256 628 q 254 632 256 632 l 253 632 l 251 632 l 251 631 q 250 629 250 631 q 249 628 250 629 l 250 626 q 251 625 250 626 q 253 626 253 625 l 254 626 m 274 646 q 275 649 274 646 q 274 649 274 649 q 272 650 274 650 q 269 649 272 650 q 269 647 269 647 q 268 646 268 647 l 268 644 q 271 643 269 643 l 272 643 q 273 644 272 644 q 274 646 274 644 m 289 658 q 290 661 290 660 q 288 663 290 663 l 286 663 l 286 661 q 285 660 286 661 q 281 657 281 660 l 281 656 q 283 653 281 653 l 285 654 q 286 656 285 654 q 289 658 289 658 m 310 672 q 311 676 311 674 q 308 678 311 678 q 300 674 306 678 q 294 668 294 669 q 297 667 294 668 q 310 672 304 667 m 332 689 q 333 693 335 689 q 331 693 333 693 q 328 690 328 693 q 328 689 326 690 q 329 688 328 689 l 331 688 l 332 688 l 332 689 m 350 699 q 351 700 350 699 l 351 701 l 351 703 q 349 703 350 704 q 346 701 349 703 q 342 700 342 701 l 340 699 q 343 696 343 696 l 346 696 l 346 697 l 347 697 q 350 699 349 697 m 374 714 q 372 715 374 714 l 371 715 q 369 715 369 715 q 368 714 369 714 l 367 713 q 364 712 365 713 q 361 711 363 711 q 358 710 360 710 l 358 708 q 363 706 358 706 q 368 707 367 706 q 372 710 369 708 q 374 714 375 711 m 178 611 q 176 610 176 611 q 178 608 176 608 q 194 622 182 608 q 197 625 197 625 q 208 638 203 632 q 218 649 214 643 q 235 665 226 657 q 253 679 244 672 q 257 682 256 681 q 261 685 258 683 q 273 693 268 689 q 285 700 278 697 q 292 707 292 706 q 288 710 289 710 q 283 708 286 710 q 278 706 281 707 q 260 692 268 699 q 243 678 251 685 q 233 669 238 674 q 221 658 228 664 q 197 635 208 647 l 193 631 q 186 622 193 629 q 178 611 181 614 m 165 597 q 161 592 161 597 q 164 590 163 590 l 165 590 l 168 593 q 171 599 172 597 q 169 601 171 600 q 165 597 165 601 m 149 576 q 150 575 149 575 l 151 575 l 153 575 q 156 576 154 575 l 156 579 q 153 582 156 579 q 150 581 151 582 l 150 579 q 149 578 149 579 l 149 576 m 75 419 q 75 414 75 414 q 76 413 75 413 q 79 415 78 413 q 86 428 81 417 q 90 438 88 432 q 94 446 93 442 q 97 453 94 450 l 100 458 q 111 479 106 469 q 124 500 117 489 q 139 525 131 513 q 158 549 147 538 q 173 564 167 556 q 186 581 179 572 q 199 594 193 588 q 211 608 204 601 q 267 664 235 638 q 338 713 299 690 q 346 717 339 713 q 368 726 365 725 q 371 731 371 728 l 369 731 q 368 731 368 731 q 367 732 368 732 q 351 727 363 732 q 329 715 340 722 q 301 699 315 708 q 283 687 292 693 q 268 674 275 681 q 260 666 264 669 q 253 660 256 663 q 231 643 243 656 q 218 632 226 640 q 215 628 217 629 q 213 624 214 626 q 206 617 210 621 q 200 611 203 614 l 189 600 q 178 588 183 593 q 167 575 172 582 l 167 574 q 146 546 156 560 q 129 521 136 532 q 124 514 125 517 q 117 503 121 508 q 111 492 114 497 l 107 485 q 97 467 101 476 q 88 450 93 458 q 85 440 88 446 q 82 431 83 436 q 78 425 81 426 l 76 424 l 76 421 l 76 419 l 75 419 m 69 404 q 71 403 69 404 q 72 401 71 401 l 74 401 q 75 403 74 401 l 75 404 l 75 406 l 75 408 l 74 408 q 71 407 71 408 q 69 406 71 406 l 69 404 m 35 257 q 35 258 35 258 q 36 260 36 258 q 33 261 35 261 q 31 260 32 261 l 31 257 l 31 256 l 31 254 l 32 254 l 32 253 l 33 253 q 35 254 33 253 l 35 257 m 40 279 q 42 282 40 281 q 40 286 43 283 l 39 286 q 38 288 39 288 q 38 286 38 288 q 35 285 35 286 l 35 282 q 34 278 33 279 q 35 276 35 278 l 36 275 q 40 279 38 275 m 43 296 q 44 303 44 299 q 42 304 43 304 q 40 303 40 304 q 39 301 40 301 l 39 300 l 39 299 l 39 297 q 42 296 39 296 l 43 296 m 51 329 q 50 331 51 331 q 47 328 47 331 l 46 328 l 46 326 l 46 325 q 49 324 47 324 l 50 324 l 51 325 l 51 326 l 51 329 m 57 350 l 57 351 l 56 353 q 53 351 54 353 q 51 346 53 347 q 51 344 51 344 q 50 343 50 344 l 51 342 l 53 340 q 56 343 56 340 l 56 344 l 57 346 l 57 349 l 57 350 m 58 361 q 63 367 61 361 q 65 375 65 372 l 65 378 q 63 380 64 381 q 61 378 61 379 l 61 376 l 61 375 q 60 370 60 372 q 58 365 60 368 q 57 364 57 365 q 58 361 57 361 m 496 132 l 496 133 l 494 135 q 490 132 493 135 q 490 128 490 129 q 489 126 489 128 q 490 122 489 124 q 493 118 490 118 q 496 119 494 118 q 494 121 496 121 l 496 122 q 497 126 497 124 q 497 132 496 129 l 496 132 m 489 218 q 486 213 486 218 q 485 210 486 211 q 485 208 485 210 l 485 203 q 484 201 485 201 q 483 197 483 200 l 483 196 q 485 194 483 196 q 486 196 486 194 q 488 197 488 196 q 488 199 488 199 q 489 200 489 199 q 492 206 490 203 q 492 211 493 208 l 493 213 q 492 214 492 213 q 490 215 492 214 l 490 217 l 490 218 l 489 218 m 490 225 q 492 222 490 224 q 494 224 494 222 q 496 228 494 226 l 496 231 q 494 232 496 232 q 493 233 494 233 l 490 231 l 490 229 l 490 226 l 490 225 m 481 179 q 479 179 481 179 l 479 178 l 479 176 q 479 174 476 174 l 481 174 q 483 178 483 174 l 483 179 l 481 179 m 501 144 l 501 147 l 501 149 q 496 150 499 150 l 494 149 l 494 146 l 494 144 l 494 143 q 494 142 493 143 q 497 140 496 140 q 501 143 499 140 l 501 144 m 496 236 q 497 240 497 239 q 499 243 497 242 l 499 246 l 499 249 q 497 249 497 249 q 496 250 497 250 q 493 246 493 250 l 493 244 l 493 238 q 494 235 493 236 q 496 236 496 235 m 468 135 q 467 133 467 135 q 469 132 468 132 q 475 140 472 132 q 476 144 475 143 q 479 157 479 158 l 479 158 q 481 168 482 164 q 479 169 479 168 l 478 171 q 474 167 475 171 q 474 161 474 163 q 472 157 474 158 q 471 151 471 154 q 469 146 471 149 q 468 140 469 143 l 468 135 m 650 199 q 651 198 651 199 q 653 197 651 197 l 654 197 l 657 200 l 657 201 q 657 203 657 201 q 656 204 657 204 q 650 201 650 201 l 650 199 m 629 186 q 626 182 624 186 q 628 181 626 182 q 633 183 631 181 l 633 185 l 633 186 q 632 188 633 188 q 629 186 631 188 m 608 171 q 608 168 608 171 l 610 168 q 618 174 618 171 q 618 176 618 174 l 617 178 q 613 175 615 178 l 611 174 q 608 172 610 174 l 608 171 m 583 153 q 585 151 583 153 l 586 151 q 594 155 589 151 q 600 161 600 158 q 600 163 601 161 q 599 164 600 163 q 591 160 596 164 q 583 154 586 157 l 583 153 m 560 138 q 558 136 560 136 q 558 133 557 136 q 560 132 558 132 q 564 133 563 132 q 565 136 565 135 l 565 138 q 564 139 565 139 q 562 138 563 139 q 560 138 561 138 m 540 119 l 542 119 q 547 121 543 119 q 551 125 550 122 l 551 128 l 549 128 l 547 128 q 546 127 546 128 q 544 126 546 126 l 544 125 l 543 125 q 540 124 542 124 l 540 121 l 540 119 m 525 111 q 518 103 518 107 q 519 101 518 101 q 526 104 522 101 q 533 111 533 107 q 532 114 533 114 q 525 111 529 114 m 506 160 q 503 163 506 163 l 501 163 l 500 163 l 499 163 l 499 161 l 497 161 l 497 160 l 497 158 q 499 157 497 157 l 500 157 l 500 156 l 501 156 q 504 157 503 156 l 504 158 q 506 160 504 158 m 506 303 q 508 301 506 301 l 510 301 l 510 303 l 511 304 q 510 307 511 306 q 508 308 510 308 q 506 306 507 308 l 506 304 l 506 303 m 499 267 l 499 265 q 501 264 499 264 q 503 265 503 264 q 504 265 503 265 l 504 267 l 504 268 l 504 271 q 505 273 504 272 q 506 275 506 274 l 506 276 l 506 279 q 507 281 506 279 l 507 283 q 508 284 508 283 q 507 285 508 285 l 508 286 q 507 289 508 288 l 506 289 q 501 286 501 289 q 501 281 501 281 l 501 279 q 500 276 500 278 l 500 272 l 499 271 l 499 267 m 464 118 q 463 113 460 114 q 464 111 463 111 l 465 111 l 467 113 q 468 125 471 124 q 465 124 467 125 q 464 119 464 124 l 464 118 m 451 75 q 449 65 449 69 l 449 64 l 450 64 l 451 64 q 453 65 451 64 q 456 75 453 67 q 457 78 457 76 q 458 82 457 79 l 458 85 q 457 86 458 86 l 456 86 q 451 79 454 85 l 451 78 l 451 75 z "},"H":{"ha":629,"x_min":-1,"x_max":710,"o":"m 54 0 q 32 14 44 4 q 7 43 19 24 q 0 90 1 53 q 6 172 -1 126 q 31 263 14 218 q 79 335 47 308 q 122 362 94 349 q 186 386 150 375 q 196 417 192 401 q 206 449 200 433 q 220 494 214 478 q 232 523 226 510 q 243 550 238 536 q 256 588 249 564 q 258 597 257 593 q 261 606 260 601 q 267 629 264 625 q 274 650 269 633 q 281 669 276 660 q 288 683 285 678 q 289 690 288 688 q 290 699 290 692 q 297 710 293 708 q 301 711 300 711 q 303 710 303 711 q 306 706 306 708 q 308 707 307 704 q 306 712 308 708 q 306 718 304 715 q 308 722 307 721 q 313 722 308 724 q 317 718 317 719 l 317 710 q 315 701 317 706 q 314 690 314 696 q 316 687 314 685 q 319 692 318 689 q 320 698 319 694 q 321 706 321 701 q 322 715 322 711 q 325 721 322 719 l 326 721 q 329 719 328 719 q 332 717 332 717 q 340 692 342 710 q 339 672 339 675 q 336 667 336 669 l 336 664 q 333 644 333 656 q 321 596 332 632 q 317 578 318 588 q 313 558 315 569 q 292 484 303 522 q 269 410 281 446 q 383 437 325 425 q 493 457 442 449 q 513 517 504 489 q 528 567 521 544 q 544 615 536 594 q 560 653 551 635 q 578 690 568 671 q 600 738 588 710 q 601 739 600 738 q 603 747 601 744 q 606 756 603 749 q 613 770 608 763 q 622 784 617 778 q 636 790 628 790 q 663 785 660 790 q 665 778 664 781 q 671 769 667 776 q 681 755 676 764 q 682 739 685 746 q 678 729 681 735 q 675 721 675 721 q 665 699 672 714 q 651 674 657 685 q 647 660 647 664 q 644 654 646 657 q 641 647 643 651 q 633 632 639 643 q 617 594 625 615 q 594 535 606 567 q 571 469 582 504 q 597 472 586 471 q 614 474 607 474 q 640 475 629 475 q 658 473 650 475 q 667 464 665 471 q 689 463 679 464 q 703 458 697 461 q 708 449 710 456 q 685 437 706 438 q 624 429 664 436 q 601 425 619 428 q 554 417 582 422 q 541 374 547 396 q 528 331 535 353 q 497 226 515 290 q 458 88 478 163 q 458 85 458 86 q 457 83 457 85 q 449 51 453 68 q 440 18 444 35 q 428 -79 428 -44 q 429 -114 426 -99 q 436 -128 429 -124 q 443 -139 443 -133 q 445 -151 444 -146 q 439 -160 446 -156 q 424 -160 432 -165 l 415 -154 q 410 -148 413 -151 q 406 -142 408 -144 q 388 -76 392 -118 q 386 9 385 -33 q 392 85 388 51 q 397 125 396 118 l 397 126 l 397 125 q 402 149 400 138 q 407 168 404 160 q 413 193 410 178 q 421 219 417 208 q 446 312 432 265 q 475 403 460 358 q 356 379 417 392 q 250 353 294 367 q 224 275 236 311 q 204 211 213 239 q 188 163 196 183 q 172 126 181 143 q 155 89 164 108 q 133 43 146 69 q 132 42 133 43 q 131 33 132 36 q 128 25 131 32 q 121 10 125 18 q 111 -5 117 1 q 97 -11 106 -11 q 74 -8 86 -11 q 54 0 63 -4 m 475 274 q 469 271 472 274 l 469 268 q 474 267 471 267 q 475 268 475 267 l 476 269 l 476 271 l 476 272 q 475 274 476 272 m 469 247 q 469 250 469 247 q 469 256 472 253 l 468 256 q 464 251 464 256 l 464 247 q 465 246 464 246 l 467 246 q 469 247 469 246 m 454 188 q 461 215 458 206 q 465 229 464 225 q 465 235 465 233 q 464 236 465 236 l 463 236 q 458 230 461 236 q 449 188 456 224 l 447 186 q 442 163 444 176 q 439 144 442 156 q 434 126 436 133 q 431 110 432 118 q 430 106 429 107 q 431 104 431 106 l 431 103 q 432 101 431 101 q 437 106 435 101 q 439 113 439 110 q 444 140 442 124 q 446 149 446 144 q 447 160 446 154 q 450 170 449 163 q 454 188 451 178 m 413 72 q 415 94 414 83 q 419 115 417 104 q 421 122 421 118 q 422 128 421 125 l 422 133 q 424 138 424 135 q 429 154 425 144 q 434 169 432 161 q 436 183 436 176 q 443 211 438 196 q 446 225 444 218 q 449 239 447 232 q 453 254 451 246 q 458 269 456 263 q 465 293 461 281 q 471 318 468 306 q 469 319 471 318 l 468 319 q 466 317 467 319 q 460 299 465 314 q 455 283 457 290 q 451 275 453 276 q 447 261 449 268 q 443 247 446 254 q 440 236 443 244 l 432 207 l 428 190 q 422 175 425 185 q 421 158 419 165 q 418 151 418 156 q 417 142 418 146 l 417 136 q 415 132 415 135 q 414 122 414 129 q 410 102 411 111 q 407 83 410 93 q 406 74 407 76 l 406 64 q 404 63 406 64 q 404 49 401 51 l 406 49 l 407 49 q 410 60 408 50 q 413 72 411 69 m 460 138 q 460 146 460 146 l 458 147 q 454 141 456 147 q 453 133 453 135 l 453 131 l 454 131 q 458 133 456 131 l 458 135 q 460 138 458 135 m 464 161 q 463 163 464 161 q 458 161 461 164 l 458 160 l 458 158 l 458 157 l 458 156 q 460 153 458 156 l 461 153 l 463 154 q 464 158 463 157 l 464 161 m 467 172 q 468 175 468 174 q 467 176 468 176 l 467 178 l 465 178 l 464 178 l 463 176 l 463 175 l 463 174 q 464 171 463 172 l 465 171 q 467 172 467 171 m 475 203 q 476 206 475 204 q 476 208 476 207 l 476 210 l 476 211 l 474 211 q 470 206 471 211 q 469 199 469 200 l 469 196 q 471 194 469 194 q 475 199 472 194 l 475 203 m 479 222 q 481 226 481 224 q 479 228 481 228 l 478 228 q 475 225 475 228 q 474 223 475 224 q 474 221 474 222 q 476 218 474 218 q 478 219 478 218 q 479 222 478 219 m 483 238 q 484 239 483 239 q 485 240 485 239 l 483 242 l 482 242 q 481 242 482 242 q 479 240 479 242 l 479 239 q 479 236 476 239 l 481 235 q 482 236 481 235 l 483 238 m 490 264 l 488 264 q 485 261 485 264 q 486 258 485 258 q 488 257 486 257 l 489 257 q 490 258 489 258 l 490 260 l 490 261 l 490 264 m 496 279 q 494 281 496 281 q 490 281 492 282 q 489 278 490 281 q 488 276 489 276 q 488 274 488 275 q 492 271 490 271 l 493 271 q 494 272 493 272 q 494 274 494 272 l 494 275 l 494 276 q 496 278 494 276 l 496 279 m 500 296 q 499 299 500 297 l 497 300 q 494 297 494 300 l 494 294 l 494 293 q 497 292 494 292 l 499 293 l 499 294 q 500 296 500 294 m 28 90 q 31 89 29 89 l 33 89 q 35 90 35 89 l 35 92 l 35 93 l 33 94 l 33 96 q 32 97 33 96 l 31 97 q 28 96 31 97 l 28 93 l 28 90 m 564 435 q 565 438 564 435 q 564 439 564 438 l 563 439 l 561 439 l 558 439 q 557 438 557 439 q 556 436 556 438 q 558 433 556 433 l 560 433 l 563 433 q 564 435 564 433 m 582 440 q 579 442 581 442 l 574 442 q 570 440 572 440 q 569 439 568 440 q 572 435 569 436 q 576 435 575 435 q 582 439 582 435 l 582 440 m 601 443 l 600 443 l 597 443 l 596 443 l 594 442 q 596 440 594 440 q 597 439 596 439 l 599 439 q 601 442 599 439 l 601 443 m 614 444 q 613 446 614 444 q 606 444 607 446 l 606 442 q 607 440 606 440 l 608 440 l 610 440 q 614 442 613 440 l 614 443 l 614 444 m 621 447 q 619 446 619 447 q 619 443 618 444 q 622 442 619 442 q 632 444 629 442 l 632 446 l 632 447 q 624 447 628 449 l 621 447 m 394 425 q 396 424 394 425 l 397 424 q 401 425 400 424 l 404 425 q 407 426 406 425 q 411 426 408 426 q 434 430 428 429 q 443 432 440 431 l 443 433 l 446 433 l 447 433 l 449 433 q 453 435 450 435 q 461 436 457 435 q 467 438 464 438 q 474 439 471 438 q 498 442 486 440 q 522 446 510 443 l 543 450 q 560 453 551 453 q 579 454 569 453 l 586 456 l 593 456 q 608 456 600 456 q 618 460 615 457 q 619 461 619 460 q 618 463 619 461 q 611 465 615 465 q 594 463 606 465 q 588 461 589 463 q 556 457 569 461 l 547 457 q 485 447 500 450 q 468 443 471 444 q 462 442 465 443 q 456 442 458 442 q 449 440 451 440 q 443 439 446 440 q 432 436 440 439 q 403 429 414 431 l 400 429 l 397 429 q 394 426 397 429 l 394 425 m 344 415 l 344 414 q 347 413 346 414 q 350 413 347 413 q 357 413 353 413 q 363 417 361 414 l 364 417 l 365 417 q 371 418 367 418 q 379 419 376 418 l 381 419 q 383 421 382 421 q 385 422 383 421 l 385 425 l 383 425 l 379 425 q 375 424 376 425 l 374 424 q 368 422 371 424 l 367 422 l 365 421 q 363 419 365 421 q 360 421 363 421 q 352 419 357 421 q 344 417 347 418 l 344 415 m 333 411 q 335 410 333 410 q 336 411 335 410 l 338 411 l 339 411 l 340 411 q 343 413 342 411 l 343 415 q 342 416 342 415 q 340 417 342 417 q 338 415 340 417 q 333 413 333 415 l 333 411 m 328 392 q 326 389 326 390 q 332 388 328 388 q 348 390 338 388 q 364 394 358 393 q 367 396 365 394 q 385 400 376 396 q 399 403 396 403 q 428 408 414 406 q 456 414 442 411 q 474 418 465 417 q 492 421 483 419 q 506 424 499 421 q 511 424 508 424 q 517 425 514 425 l 519 425 q 522 426 519 425 q 527 427 524 426 q 532 429 531 428 l 533 429 q 540 431 535 431 q 547 431 544 431 l 549 432 l 550 432 q 551 433 551 432 l 551 435 q 544 436 550 436 q 523 434 538 436 q 506 431 508 432 q 501 429 503 429 q 497 428 500 429 q 485 426 490 426 q 474 425 479 425 l 469 425 q 454 424 460 425 q 444 422 451 424 q 435 419 438 421 q 428 418 432 418 q 422 417 425 418 q 418 415 419 415 q 414 414 417 415 l 411 414 q 397 410 404 411 q 382 406 389 408 q 369 403 375 404 q 357 400 364 401 q 338 394 346 397 q 329 393 333 393 q 328 392 328 393 m 314 407 q 315 406 314 406 q 317 407 315 406 l 318 407 l 319 407 q 321 408 319 407 l 322 410 q 319 411 321 411 l 318 411 q 314 408 315 411 l 314 407 m 294 406 q 293 404 293 406 q 292 403 293 403 l 293 401 l 294 401 l 296 401 q 304 404 303 401 l 304 406 q 301 407 304 407 l 299 407 q 294 406 296 407 m 281 401 q 272 401 278 401 q 265 397 267 400 q 264 396 264 397 l 265 394 l 268 394 q 276 396 274 394 q 282 397 279 397 l 283 399 l 283 400 q 281 401 282 401 m 99 285 q 81 245 92 274 q 63 185 71 217 q 53 127 56 154 q 61 90 51 100 q 71 86 65 86 q 76 98 74 93 q 82 107 79 103 q 87 120 86 117 q 89 126 88 124 q 92 133 90 128 q 100 149 94 138 q 108 166 104 157 q 117 185 113 175 q 141 250 128 215 q 165 322 154 285 q 128 306 147 315 q 99 285 108 297 m 49 46 q 46 43 46 43 q 44 42 44 43 q 46 40 44 40 q 47 39 46 39 q 49 38 47 38 l 50 39 q 53 42 53 39 q 51 43 53 43 q 51 44 51 44 q 50 46 50 44 l 49 46 m 43 60 q 39 57 39 57 l 38 57 l 36 57 l 36 54 l 36 53 l 38 53 l 38 51 l 38 50 l 39 50 l 40 50 q 44 51 43 50 q 46 54 46 53 l 46 56 l 46 57 l 44 58 l 43 60 m 38 68 q 35 67 35 68 q 33 65 33 67 l 33 64 l 35 63 q 36 61 35 63 l 38 63 q 40 64 40 63 l 40 65 l 40 67 q 39 68 40 67 l 38 68 m 35 85 l 33 85 q 29 82 31 85 l 29 81 q 31 79 29 81 q 32 78 31 79 q 34 78 33 78 q 36 79 35 79 q 36 81 36 79 l 36 82 l 36 83 l 35 85 m 26 154 q 29 151 26 151 q 32 149 29 149 l 33 150 q 35 151 33 151 l 35 157 l 35 160 l 35 161 q 31 163 33 163 l 29 163 q 26 158 26 163 l 26 154 m 26 139 q 31 136 26 136 l 32 136 q 33 138 32 136 l 33 139 l 33 140 l 33 142 l 33 143 l 32 144 l 29 144 q 26 143 28 144 l 26 142 l 26 139 m 25 128 q 29 126 26 126 l 31 126 q 32 128 32 126 l 32 129 l 32 131 l 32 132 l 31 132 l 29 132 l 26 132 q 25 131 26 131 l 25 129 l 25 128 m 24 110 q 25 107 24 108 l 25 104 q 26 101 25 101 q 28 100 26 100 q 33 106 33 100 l 33 108 l 33 111 q 29 114 31 114 q 24 110 28 114 z "},"I":{"ha":499,"x_min":-1,"x_max":669,"o":"m 200 -7 q 145 -14 172 -11 q 94 -15 118 -17 q 50 -7 69 -14 q 21 14 31 0 q 6 40 11 26 q 0 65 1 51 q 7 93 -1 79 q 22 111 15 107 q 34 114 29 115 q 42 106 39 113 q 44 93 44 100 q 42 78 43 86 q 44 65 40 71 q 59 55 47 58 q 97 54 71 51 q 136 56 117 56 q 175 60 156 57 q 177 101 172 83 q 183 126 182 119 l 183 128 q 189 151 186 140 q 194 171 192 161 q 200 194 197 179 q 207 221 203 210 q 234 317 219 268 q 263 413 249 367 q 292 499 278 458 q 314 569 306 539 q 329 615 322 596 q 344 650 336 633 q 361 684 353 667 q 379 725 369 701 q 297 712 335 718 q 239 701 258 706 q 232 700 236 701 q 218 697 224 697 q 212 693 214 696 q 204 688 210 690 q 185 694 197 683 q 171 711 174 704 q 168 726 168 718 q 171 738 168 735 l 172 738 q 174 740 171 739 q 181 744 176 742 q 189 747 185 746 l 197 750 q 401 801 308 783 q 480 815 440 810 q 553 819 519 819 q 611 811 586 818 q 647 789 636 804 q 663 763 657 776 q 668 737 667 751 q 661 710 669 722 q 646 692 653 696 q 634 689 639 688 q 626 697 629 690 q 624 710 624 703 q 626 724 625 717 q 624 738 628 732 q 609 747 621 744 q 571 749 597 750 q 526 744 553 747 q 467 738 499 742 q 464 731 464 732 q 461 722 461 725 q 451 701 460 715 q 438 675 443 686 q 433 663 433 665 q 431 657 432 660 q 427 650 429 654 q 419 635 425 646 q 413 617 417 626 q 404 597 408 608 q 358 474 381 543 q 314 333 336 406 q 283 228 301 292 q 244 90 264 165 q 244 88 244 89 q 243 86 243 88 q 242 80 242 83 q 240 74 242 76 q 239 67 239 71 q 269 72 254 69 q 297 76 283 74 q 306 78 300 76 q 313 79 308 79 q 322 81 318 79 q 330 88 325 83 q 338 90 335 92 q 344 89 340 90 q 351 79 349 88 l 354 63 q 356 49 356 56 q 354 38 357 42 l 351 35 q 342 29 343 31 l 340 28 q 308 18 325 24 q 274 8 293 14 q 232 -1 254 3 q 226 -12 232 -8 q 213 -15 221 -15 q 206 -14 208 -15 q 200 -7 201 -10 m 493 794 q 492 794 492 794 q 493 793 492 793 q 494 792 493 793 l 499 792 q 516 792 507 792 q 533 793 525 793 q 547 794 540 794 q 560 796 553 794 l 564 796 q 579 797 579 796 q 579 800 579 797 q 576 802 578 801 q 568 803 575 803 l 558 803 q 546 802 551 803 q 535 801 540 801 l 529 801 l 522 801 q 503 799 511 800 q 493 794 496 799 m 485 767 l 486 767 q 524 769 504 768 q 565 772 544 771 l 568 772 l 582 772 l 592 772 q 597 774 597 772 l 597 775 q 594 776 596 776 q 581 776 592 776 l 535 776 l 531 776 q 485 769 486 775 l 485 767 m 213 718 q 214 714 213 715 l 214 713 l 215 713 q 222 714 218 713 q 225 718 225 715 l 225 719 l 224 721 q 221 722 222 722 q 213 718 214 722 m 238 719 q 238 724 239 721 l 238 725 l 236 725 l 235 725 l 233 725 l 232 725 l 232 724 l 231 724 q 229 722 231 724 q 232 718 229 721 l 233 718 l 235 718 q 238 719 238 718 m 249 722 q 249 726 249 722 q 246 728 249 728 l 244 728 l 244 726 l 243 726 l 243 725 q 246 721 243 721 l 247 721 q 249 722 247 721 m 235 736 q 247 740 242 739 q 258 742 253 740 q 280 747 269 744 q 300 754 290 750 q 305 756 303 756 q 310 757 307 756 q 324 762 317 760 q 338 764 331 764 q 345 765 342 764 q 353 767 349 765 q 356 767 356 767 q 360 768 357 768 q 365 769 361 769 q 373 772 369 771 q 378 779 376 772 l 378 781 l 376 781 q 371 779 374 779 q 366 778 368 778 q 363 776 364 778 q 318 765 343 771 q 268 753 293 760 l 210 736 q 199 732 207 735 q 183 726 188 726 l 182 725 q 183 724 182 724 l 183 722 l 185 722 q 199 724 192 722 q 214 729 207 726 q 235 736 228 735 m 368 746 q 370 747 369 746 q 372 747 371 747 q 381 750 379 747 q 382 754 382 751 q 381 756 382 756 l 379 756 q 374 754 375 756 l 367 754 q 352 752 360 753 q 340 749 344 751 l 339 749 l 338 749 q 329 747 336 747 l 328 747 l 326 747 l 325 747 q 322 746 325 747 q 321 744 322 746 q 318 744 319 744 q 315 743 317 743 l 314 743 q 310 742 311 743 q 299 739 307 739 l 297 740 l 296 740 q 294 739 294 740 l 293 739 q 288 736 290 736 q 286 738 288 736 l 285 738 l 285 736 l 283 736 q 282 736 283 738 l 281 736 l 279 735 q 274 733 279 733 l 271 733 q 263 731 264 733 q 263 728 263 731 l 263 726 l 264 725 l 267 725 q 274 726 271 725 q 282 728 276 728 l 283 728 q 305 733 294 731 q 326 738 315 735 q 340 740 333 739 q 354 743 347 742 q 365 746 363 746 l 368 746 m 99 6 q 98 7 99 7 q 97 8 97 7 q 93 9 94 8 q 89 10 92 10 q 86 8 86 10 q 79 10 82 8 q 74 7 74 10 q 79 1 74 1 l 85 1 q 92 2 88 1 q 99 6 97 3 m 239 18 q 239 19 240 18 l 239 21 l 236 21 l 231 21 l 226 21 l 225 21 q 222 19 225 21 l 219 19 q 210 17 219 19 l 204 17 q 203 18 204 18 q 201 17 203 18 l 200 17 l 189 17 q 185 15 188 15 q 179 14 183 14 q 164 13 178 13 q 153 11 157 11 q 146 11 149 11 l 144 11 l 143 11 q 142 10 143 11 l 140 10 l 124 10 l 122 10 l 121 10 l 119 10 l 118 10 l 117 10 q 107 7 117 10 l 106 7 l 106 6 q 107 4 106 4 q 119 3 110 3 q 128 1 124 3 l 129 1 l 135 1 q 142 2 138 1 q 149 3 146 3 q 158 4 153 4 q 168 6 165 4 q 181 6 175 6 q 192 7 186 6 q 199 8 193 8 q 229 13 221 11 q 239 18 238 15 m 286 28 q 286 31 288 29 q 283 32 286 31 l 282 31 q 274 31 279 32 q 264 28 268 29 q 256 26 258 28 q 250 24 253 24 l 250 25 l 247 25 l 246 25 l 244 24 l 243 24 q 242 22 242 24 q 243 18 242 19 l 246 18 l 249 18 q 264 21 250 18 q 276 24 269 22 q 279 25 278 25 l 279 24 q 281 25 281 24 l 282 25 l 283 25 l 285 25 q 286 28 286 25 m 314 36 q 311 39 314 39 l 310 39 l 307 39 q 300 36 301 39 q 299 33 300 35 q 300 29 299 32 l 301 29 q 303 28 301 29 l 304 28 l 304 29 l 306 29 l 307 29 l 308 29 l 310 31 l 311 31 l 313 31 l 313 32 q 314 35 314 32 l 314 36 m 340 40 q 342 43 342 42 l 342 44 q 339 46 340 46 l 336 46 q 332 44 333 46 q 333 40 332 42 l 333 39 l 335 39 l 336 39 l 338 39 q 339 40 338 39 l 340 40 m 193 90 q 194 89 193 90 l 196 89 q 197 88 196 89 l 199 89 q 200 92 200 90 q 196 96 200 96 q 194 94 196 96 l 194 93 l 193 93 l 193 92 l 193 90 m 299 425 q 299 419 297 421 q 300 418 299 418 q 306 425 306 418 q 311 440 308 432 l 315 453 q 318 464 318 461 q 324 479 321 468 l 326 485 q 329 494 328 489 q 331 501 331 500 l 331 503 l 331 504 l 329 504 q 322 496 325 504 l 319 488 l 318 481 q 299 425 307 450 m 297 357 q 289 329 293 343 q 281 300 285 315 q 269 258 275 279 q 257 215 264 236 q 251 195 254 208 q 247 169 249 182 l 247 164 l 249 164 q 253 171 251 164 l 254 171 q 256 175 254 174 q 256 178 256 178 q 257 182 257 179 q 262 201 260 192 q 267 219 264 210 l 271 236 q 274 250 274 244 q 275 257 275 251 q 278 265 276 261 q 281 274 279 269 q 286 293 283 288 l 288 300 q 293 322 290 311 q 299 343 296 332 l 299 344 q 308 376 307 372 q 308 382 310 381 q 307 383 308 382 q 305 380 306 383 q 297 357 304 376 m 261 299 q 261 286 260 288 q 234 178 243 215 q 221 122 225 140 q 215 97 215 101 l 217 96 l 218 96 q 219 97 218 96 q 222 103 219 97 q 226 120 224 108 q 235 154 229 132 q 244 195 240 176 q 250 217 249 214 q 255 238 253 228 q 260 257 257 247 q 267 287 263 272 q 275 317 271 301 q 278 328 275 317 q 290 370 286 356 q 295 392 293 385 q 297 400 297 399 q 296 401 296 401 l 294 401 q 292 397 293 401 q 281 363 290 392 q 275 341 278 351 q 269 324 272 331 q 268 322 268 324 l 268 321 q 267 317 268 318 q 267 314 267 315 l 267 313 q 264 306 267 311 q 263 300 263 304 q 261 299 263 300 m 240 261 q 239 257 239 260 q 238 251 239 254 l 239 251 l 238 250 q 240 249 238 250 q 244 253 243 249 q 246 260 246 257 l 246 263 q 244 265 244 264 l 243 265 q 240 264 242 265 q 242 263 240 263 q 240 261 240 263 m 233 238 q 232 232 232 236 q 235 231 232 231 l 236 231 l 238 231 l 239 232 l 239 235 l 239 236 l 239 238 q 239 240 240 239 q 236 242 238 242 l 235 240 l 233 240 l 233 238 m 229 222 q 228 218 228 221 l 228 217 q 230 216 229 217 q 232 215 231 215 q 233 217 233 215 q 235 218 235 217 l 235 219 l 235 221 l 235 222 l 232 222 q 229 222 232 225 m 218 185 q 218 182 217 183 q 221 181 218 181 q 224 182 224 181 q 226 188 226 183 q 228 194 228 189 q 226 197 228 196 q 225 196 226 197 l 224 196 q 219 192 219 196 q 218 189 218 190 l 218 185 m 214 169 q 214 165 214 165 l 214 164 q 217 163 214 163 l 218 163 q 219 164 219 163 q 221 167 219 165 l 221 168 l 221 171 q 218 172 221 172 q 214 171 215 172 l 214 169 m 210 151 q 213 149 210 149 l 214 149 q 217 150 215 149 l 217 151 l 217 153 l 217 154 l 215 154 q 214 155 214 154 q 213 156 214 156 l 211 156 q 210 154 211 154 l 210 151 m 203 126 l 203 125 l 206 125 l 207 125 q 208 126 207 125 q 210 128 210 126 l 210 129 q 206 132 210 132 l 204 132 l 203 131 l 203 129 l 203 128 l 203 126 m 197 111 l 197 110 l 197 108 q 201 107 199 107 q 206 108 204 107 l 206 110 q 207 114 207 111 l 207 115 q 201 117 206 117 l 201 118 l 200 118 q 199 117 199 118 l 199 115 l 199 114 l 197 114 l 197 113 l 197 111 m 64 33 q 70 31 65 32 q 103 31 75 31 l 164 31 q 209 36 185 33 q 263 44 233 39 q 267 46 265 46 q 272 47 269 46 q 311 57 294 50 q 325 61 318 57 q 328 62 328 61 q 332 63 329 63 q 338 64 335 63 q 344 68 343 67 q 346 69 346 68 q 344 71 346 71 q 333 71 340 72 q 319 67 326 69 q 317 66 318 67 q 315 65 317 65 q 294 60 304 63 q 278 56 285 58 q 261 53 269 54 q 244 49 253 51 q 233 47 239 47 q 222 44 228 46 q 208 42 215 43 q 194 40 201 42 q 165 38 179 39 q 136 35 151 36 l 132 35 l 115 35 q 97 36 104 35 q 87 37 92 36 q 78 38 82 38 q 71 37 74 38 q 65 36 68 36 q 64 35 65 36 l 64 33 z "},"J":{"ha":350,"x_min":-362,"x_max":551,"o":"m 67 35 q 71 48 69 42 q 74 60 72 54 q 79 79 76 68 l 79 81 q 92 123 86 103 q 104 163 97 143 q 114 190 107 171 q 124 218 121 210 l 124 221 q 124 223 124 222 q 125 225 125 224 l 126 226 q 165 338 146 278 q 203 460 183 397 q 217 504 211 488 q 229 533 224 521 q 240 560 235 546 q 253 599 246 575 q 256 608 254 603 q 258 617 257 613 q 270 665 263 636 q 282 710 278 693 q 289 729 283 715 q 190 715 236 722 q 122 701 144 707 q 115 700 119 701 q 100 697 107 697 q 95 693 97 696 q 88 688 93 690 q 68 694 81 683 q 53 711 56 704 q 51 726 50 718 q 54 738 51 735 q 57 740 54 739 q 64 744 60 742 q 71 747 68 746 l 79 750 q 283 801 190 783 q 362 815 322 810 q 435 819 401 819 q 494 811 469 818 q 531 789 519 804 q 546 763 540 776 q 551 737 550 751 q 544 710 551 722 q 529 692 536 696 q 517 689 522 688 q 510 697 513 690 q 507 710 507 703 q 510 724 508 717 q 508 738 511 732 q 492 747 504 744 q 454 749 481 750 q 408 744 436 747 q 349 738 381 742 q 348 734 349 735 q 347 732 347 733 q 344 726 347 729 l 344 724 q 336 679 342 715 q 318 607 331 643 q 314 590 315 599 q 310 569 313 581 q 284 476 299 524 q 255 385 269 429 q 227 301 240 342 q 204 231 214 261 q 203 228 204 229 q 203 224 203 226 q 201 222 203 224 q 197 205 200 217 q 190 178 194 193 q 182 151 186 164 q 175 129 178 138 q 172 124 175 129 l 168 111 q 172 114 171 114 q 235 162 211 144 q 274 190 258 179 q 301 206 290 200 q 326 218 311 211 q 333 224 326 219 q 340 224 340 224 q 342 214 346 221 l 339 211 q 340 208 340 210 q 342 208 342 208 q 343 207 342 207 l 343 204 l 343 203 l 343 201 q 343 199 343 199 q 344 194 344 197 q 343 188 344 190 q 335 174 338 178 q 324 164 332 171 q 317 160 321 163 q 307 153 314 157 q 248 111 279 133 q 174 58 217 89 q 160 48 167 53 q 146 38 153 43 q 142 27 143 32 q 139 17 142 22 q 112 -78 126 -28 q 81 -174 97 -128 q 46 -257 64 -219 q 10 -317 28 -294 q -44 -378 -14 -344 q -113 -439 -75 -411 q -198 -483 -151 -467 q -300 -494 -244 -500 q -360 -417 -353 -465 q -357 -369 -362 -396 q -330 -308 -351 -342 q -269 -234 -308 -275 q -167 -144 -231 -193 q -47 -53 -101 -96 q 56 26 8 -10 q 67 35 64 32 m -206 -471 q -198 -467 -206 -471 q -181 -459 -190 -464 q -165 -450 -172 -454 q -158 -446 -158 -446 q -158 -444 -157 -444 q -161 -443 -158 -443 q -174 -447 -164 -443 q -194 -458 -183 -451 q -201 -462 -201 -462 q -219 -468 -208 -462 q -229 -471 -225 -469 q -237 -474 -233 -472 q -249 -475 -244 -474 q -268 -478 -254 -475 q -272 -478 -271 -478 q -275 -479 -274 -479 l -276 -481 q -267 -486 -276 -486 l -265 -486 q -237 -481 -250 -485 q -210 -472 -225 -476 l -206 -471 m -257 -460 q -256 -461 -257 -461 q -251 -462 -256 -462 q -240 -460 -246 -462 q -233 -457 -235 -457 q -232 -453 -232 -456 q -233 -452 -233 -453 q -236 -451 -233 -451 q -242 -453 -239 -451 q -246 -454 -244 -454 l -247 -456 q -256 -458 -253 -456 l -257 -460 m -219 -450 q -218 -451 -219 -451 q -206 -446 -207 -449 q -206 -443 -206 -446 q -207 -442 -206 -443 q -209 -442 -208 -442 q -212 -443 -210 -443 q -218 -446 -218 -446 q -219 -447 -219 -446 l -219 -449 l -219 -450 m -192 -436 q -193 -437 -193 -436 l -192 -437 q -187 -440 -192 -440 q -185 -437 -185 -440 l -183 -437 q -185 -433 -183 -435 q -187 -433 -186 -432 l -189 -433 l -190 -433 l -190 -435 q -192 -436 -192 -435 m -142 -435 l -144 -432 q -147 -433 -146 -432 q -150 -435 -149 -435 q -151 -439 -151 -436 l -151 -440 q -150 -442 -151 -440 l -149 -442 l -147 -442 l -146 -440 q -144 -439 -144 -440 q -142 -437 -143 -439 l -142 -435 m -149 -419 q -142 -414 -146 -417 q -136 -408 -137 -411 q -135 -407 -135 -408 q -136 -406 -135 -407 q -144 -409 -139 -406 q -153 -415 -150 -412 q -156 -419 -156 -418 q -153 -421 -156 -419 q -151 -419 -151 -421 l -149 -419 m -128 -425 q -131 -422 -131 -422 q -133 -424 -132 -422 q -135 -425 -135 -424 q -135 -428 -135 -425 l -133 -429 l -133 -431 l -132 -431 q -131 -429 -131 -431 l -129 -429 l -129 -428 l -128 -428 l -128 -425 m -111 -393 q -110 -392 -110 -393 q -111 -392 -110 -392 q -114 -389 -111 -389 q -118 -392 -118 -389 q -124 -396 -124 -396 l -124 -399 q -122 -400 -124 -400 l -121 -400 q -111 -393 -114 -399 m -93 -378 q -92 -377 -92 -378 q -93 -376 -92 -376 q -94 -374 -93 -374 q -97 -375 -97 -374 q -99 -376 -99 -375 q -100 -378 -99 -376 q -100 -381 -100 -381 q -99 -382 -100 -382 q -96 -381 -97 -382 q -93 -378 -94 -381 m -79 -331 l -81 -329 q -87 -332 -83 -329 q -104 -350 -90 -335 q -106 -351 -106 -350 q -107 -351 -106 -351 q -112 -356 -110 -354 q -118 -361 -115 -358 q -128 -369 -122 -368 q -140 -378 -135 -374 q -151 -386 -144 -382 q -196 -414 -174 -403 l -199 -415 q -209 -420 -204 -418 q -219 -425 -214 -422 l -232 -429 l -233 -429 q -243 -435 -242 -431 q -242 -437 -243 -435 l -240 -437 q -222 -432 -236 -437 q -205 -426 -215 -429 q -186 -417 -194 -422 q -181 -415 -183 -415 q -176 -412 -179 -414 q -167 -408 -172 -410 q -158 -403 -162 -407 q -144 -393 -151 -397 q -131 -382 -137 -389 q -105 -360 -119 -372 q -81 -335 -90 -349 l -81 -333 q -79 -332 -81 -333 l -79 -331 m -67 -354 q -66 -353 -67 -353 q -65 -351 -65 -353 l -65 -350 q -72 -350 -68 -346 q -74 -354 -74 -353 l -74 -356 q -71 -357 -74 -356 l -69 -357 l -68 -356 q -67 -354 -68 -354 m -46 -328 l -47 -328 q -50 -325 -47 -325 q -53 -326 -50 -325 q -54 -329 -54 -328 q -58 -335 -58 -332 q -54 -339 -58 -339 l -51 -339 l -51 -337 l -51 -336 l -50 -336 l -50 -335 q -49 -333 -49 -335 l -46 -331 l -46 -328 m -31 -306 q -31 -303 -31 -306 q -36 -303 -32 -299 q -37 -305 -36 -304 q -37 -308 -39 -306 q -36 -310 -37 -310 l -35 -310 l -33 -310 l -32 -308 l -32 -307 l -31 -307 l -31 -306 m -31 -235 q 13 -125 -6 -175 q 46 -35 32 -75 q -96 -142 -29 -89 q -201 -231 -162 -194 q -274 -314 -251 -279 q -303 -372 -297 -349 q -303 -410 -308 -396 q -292 -429 -297 -424 q -252 -422 -286 -435 q -175 -383 -218 -410 q -91 -319 -132 -357 q -31 -235 -50 -281 m 331 213 q 332 210 331 211 l 333 210 l 335 211 l 336 211 q 337 213 336 213 q 338 215 338 214 q 336 217 338 215 q 331 214 333 217 l 331 213 m 392 793 q 393 792 392 793 l 397 792 q 415 792 406 792 q 432 793 424 793 q 446 794 439 794 q 460 796 453 794 l 464 796 q 478 797 478 796 q 478 800 479 799 q 467 803 478 803 l 457 803 q 444 802 450 803 q 433 801 439 801 l 428 801 l 421 801 q 402 799 410 800 q 392 794 394 799 l 392 793 m 383 769 q 383 767 382 768 l 385 767 q 424 770 404 769 q 464 772 444 771 l 467 772 l 490 772 l 496 772 l 496 774 l 496 775 q 494 776 496 775 l 493 776 l 488 776 l 472 776 l 444 776 q 401 774 415 776 q 383 769 386 772 m 131 719 q 125 721 129 721 l 122 721 q 119 719 121 721 q 118 718 119 719 q 118 715 117 717 q 122 713 118 713 q 131 718 131 713 l 131 719 m 143 719 q 144 721 144 719 q 143 725 143 722 l 142 725 l 140 725 l 139 725 q 138 724 139 725 l 136 724 q 135 722 135 724 q 135 720 135 721 q 136 718 136 719 l 139 718 l 140 718 q 143 719 143 718 m 154 724 l 154 726 q 151 728 153 728 l 150 728 l 150 726 l 149 726 l 147 725 q 151 721 147 721 l 153 721 q 154 722 153 721 l 154 724 m 143 739 q 156 743 150 742 q 164 744 161 744 q 269 771 221 763 l 272 771 q 276 772 275 772 q 281 774 278 772 l 282 774 l 282 776 q 275 781 278 781 q 271 779 272 781 l 268 779 q 261 775 263 779 q 226 767 254 774 q 165 751 197 760 q 108 736 133 743 q 81 726 82 729 l 81 724 q 83 722 81 724 q 106 728 88 722 q 143 739 125 733 m 269 747 q 283 748 274 747 q 294 751 292 749 l 294 753 q 290 758 294 758 l 288 758 q 270 753 281 756 q 250 750 260 751 q 231 747 236 747 q 228 746 229 747 l 226 746 q 214 743 225 746 q 201 739 204 742 q 200 739 201 740 q 197 738 199 739 q 193 738 194 738 l 192 738 l 190 738 l 190 736 l 189 736 q 188 736 189 738 q 184 735 186 736 q 181 735 182 735 q 168 731 169 735 q 168 726 165 728 q 172 725 168 725 q 179 728 178 725 q 186 730 181 729 q 196 731 192 731 q 203 732 199 732 q 207 733 206 733 q 211 735 208 733 q 228 738 222 738 l 229 738 l 231 738 l 232 738 l 233 738 l 233 739 l 235 739 q 240 741 236 740 q 246 742 244 742 l 247 742 q 254 743 249 743 q 263 744 258 744 q 269 747 267 744 m 307 197 q 310 194 307 194 l 311 194 l 313 194 q 314 196 313 196 l 315 197 l 317 197 q 318 199 317 199 q 319 203 319 200 q 318 203 318 203 q 317 204 318 204 q 307 199 310 204 l 307 197 m 293 188 q 294 185 293 185 l 296 185 l 297 185 l 297 186 l 299 186 q 300 190 301 189 q 299 192 300 190 q 294 189 297 192 l 293 188 m 271 174 q 268 169 268 171 l 269 169 q 271 168 269 168 q 276 171 276 171 l 276 174 q 274 175 275 175 q 271 174 271 175 m 251 158 q 251 156 250 157 l 253 156 q 254 157 254 156 q 257 158 254 157 q 261 161 258 158 l 261 163 q 260 165 261 164 q 257 164 258 165 q 256 163 256 164 q 251 158 251 161 m 233 147 q 227 143 228 144 q 226 140 226 142 q 229 139 226 140 q 231 140 231 139 l 232 142 q 237 145 235 144 q 242 149 239 146 q 243 150 243 149 q 242 153 243 153 q 233 147 239 153 m 201 121 q 203 119 201 119 q 208 122 208 122 l 208 125 q 207 126 207 125 q 206 126 207 126 l 204 126 q 201 122 203 125 l 201 121 m 183 108 l 183 107 l 185 107 l 186 107 l 189 110 q 193 113 193 110 q 194 114 194 113 q 193 115 194 114 l 190 115 q 188 114 188 115 q 186 113 188 113 q 183 110 183 110 l 183 108 m 175 103 q 168 99 172 101 q 163 94 164 97 l 163 93 q 161 89 160 90 l 163 89 l 164 89 q 167 90 164 89 q 171 93 169 93 q 174 97 172 96 q 176 100 175 97 l 176 101 q 175 103 176 103 m 204 338 q 206 340 206 338 q 201 343 206 343 l 200 343 l 199 342 l 199 340 l 199 339 l 197 338 q 199 336 197 338 q 200 335 199 335 l 203 335 l 204 335 l 204 336 l 204 338 m 210 350 q 204 354 210 354 l 203 353 l 203 351 l 203 350 l 203 349 l 204 349 l 204 347 l 206 347 q 207 349 207 347 q 210 350 208 349 m 275 496 q 278 504 278 504 q 275 506 276 506 q 274 504 275 506 q 273 501 274 503 q 272 497 272 500 q 270 492 271 494 q 268 486 269 489 q 264 478 264 479 l 256 453 q 253 446 254 450 q 251 439 253 442 q 248 428 249 433 q 244 418 247 424 q 240 401 242 410 q 233 386 238 393 q 229 373 231 379 q 225 360 228 367 q 221 351 222 356 q 217 342 219 346 l 217 339 q 215 331 213 333 q 217 329 215 329 l 218 329 q 224 340 221 331 q 225 343 225 342 q 227 350 226 346 q 231 358 228 354 l 235 371 l 238 382 q 242 394 240 389 q 246 406 243 400 q 249 413 249 411 q 252 421 251 417 q 254 428 253 425 q 265 460 260 443 q 275 496 271 478 m 286 532 l 285 532 q 281 529 283 532 q 279 526 279 528 l 279 525 q 278 521 278 524 l 281 518 q 283 524 283 518 q 285 526 285 525 q 286 529 285 528 l 286 532 m 293 556 q 292 557 293 557 q 289 556 290 557 q 288 553 289 554 q 288 550 288 551 q 289 549 288 550 l 290 549 q 293 551 293 549 l 293 554 l 293 556 m 257 556 q 256 551 256 554 l 257 551 q 258 550 257 550 l 260 550 l 261 551 l 261 553 l 261 554 l 261 556 l 261 557 q 258 558 261 557 q 257 556 258 558 m 249 536 q 249 535 247 536 q 247 531 247 533 q 249 528 247 529 l 250 528 l 251 528 l 253 528 l 253 529 l 254 531 l 254 532 l 254 533 l 256 533 l 256 535 q 250 538 256 538 q 249 536 250 538 m 243 515 q 243 514 243 514 l 243 513 l 244 513 l 246 513 q 247 514 247 513 q 248 515 247 515 q 249 517 249 515 q 247 519 249 517 l 246 519 q 243 517 246 519 l 243 515 m 233 490 q 235 489 233 489 q 236 488 235 488 q 238 489 238 488 q 239 493 242 493 q 236 496 239 496 l 236 494 l 235 494 l 235 493 l 235 492 q 233 490 235 492 m 228 471 l 228 469 l 229 469 q 232 471 231 469 q 233 474 232 472 q 234 476 233 475 q 235 478 235 476 q 232 481 235 481 q 229 476 229 481 q 228 474 228 475 l 228 472 l 228 471 m 219 446 q 222 444 219 444 q 224 446 222 444 q 228 457 228 450 q 228 460 231 460 q 226 461 228 461 q 224 458 225 461 q 221 454 222 456 q 219 449 219 453 l 219 447 l 219 446 m 219 403 q 218 397 219 399 q 215 386 215 392 q 214 384 214 385 q 213 382 214 383 l 213 381 q 211 379 213 381 l 211 378 l 211 376 q 210 374 211 375 q 210 372 210 374 q 207 364 207 367 q 206 356 206 357 l 208 356 q 213 363 213 356 q 214 364 214 363 q 215 365 215 364 l 215 367 l 215 368 q 217 371 215 368 l 217 374 l 218 374 q 219 375 219 374 l 221 376 l 221 378 l 221 379 q 219 381 221 379 q 221 383 219 382 q 222 386 221 385 q 222 389 222 388 l 224 389 l 224 390 l 225 392 l 225 393 q 226 404 224 397 q 232 418 229 411 q 235 424 233 421 q 236 429 236 426 l 240 438 q 246 446 243 440 l 250 458 q 251 463 250 461 q 251 467 251 464 l 272 533 q 276 547 275 540 q 281 561 278 554 q 285 578 283 568 q 290 594 288 588 q 289 596 290 594 l 288 596 q 276 578 282 594 q 271 556 271 561 q 268 543 271 551 q 261 522 265 532 q 249 488 254 506 q 238 454 243 471 q 232 438 235 446 q 226 421 229 429 q 225 417 225 418 q 224 414 225 417 q 219 403 221 406 m 210 418 q 213 417 211 417 q 214 418 213 417 q 215 421 214 418 l 215 422 q 214 424 215 424 q 213 425 214 425 l 211 424 q 210 422 211 422 l 210 421 l 210 419 l 210 418 m 204 399 l 206 399 q 207 400 206 399 q 210 407 211 404 q 208 410 210 408 q 204 406 206 410 l 204 403 l 203 401 l 203 400 l 204 399 m 201 390 q 197 385 199 390 q 194 376 194 379 q 195 375 194 375 q 196 374 196 375 l 197 374 q 199 375 199 374 q 203 385 200 376 q 203 386 203 386 q 204 388 204 386 l 204 389 q 203 390 203 389 q 201 390 203 390 m 194 329 q 192 322 192 326 q 193 319 192 321 q 197 317 196 317 q 200 319 200 317 l 200 321 q 201 323 200 322 q 201 326 201 324 q 201 329 203 328 q 194 329 197 332 m 186 301 l 188 300 l 190 300 l 192 300 l 192 301 q 193 303 192 301 q 190 306 193 303 l 189 306 l 189 307 q 186 306 188 307 l 186 304 l 186 303 l 186 301 m 181 290 l 182 289 q 185 288 183 288 l 186 288 q 188 290 188 288 q 189 293 189 290 q 185 296 189 296 l 183 296 l 182 294 l 182 293 l 182 292 l 182 290 l 181 290 m 182 283 q 178 281 179 283 q 176 275 176 278 q 179 271 176 271 q 183 272 182 271 q 185 276 185 274 q 185 281 185 279 l 185 282 q 182 283 183 283 z "},"K":{"ha":557,"x_min":6,"x_max":606,"o":"m 232 478 q 332 531 288 499 q 410 597 376 564 q 465 658 443 629 q 494 703 486 688 q 520 753 506 722 q 549 810 535 785 q 546 822 556 825 q 540 827 543 821 q 553 844 538 833 q 579 843 567 853 q 586 836 583 840 q 590 833 589 835 q 592 831 590 832 q 593 828 592 831 q 598 815 596 822 q 603 796 600 807 q 603 765 606 781 q 600 749 601 757 q 522 608 565 667 q 431 512 478 550 q 339 451 385 474 q 254 417 293 428 q 271 371 263 393 q 289 325 279 349 q 328 223 304 285 q 382 90 351 161 q 383 88 382 89 q 383 86 383 88 q 397 55 390 71 q 411 24 404 39 q 438 -24 425 -4 q 461 -58 451 -44 q 482 -86 472 -74 q 497 -94 489 -94 q 510 -99 506 -94 q 517 -106 513 -103 q 519 -117 522 -108 q 506 -126 517 -124 q 496 -126 500 -128 q 481 -124 492 -126 q 427 -83 456 -114 q 374 -17 399 -51 q 331 47 349 18 q 311 82 314 76 l 311 83 q 301 104 306 94 q 293 124 296 114 q 282 146 289 132 q 272 171 275 160 q 231 272 250 219 q 194 372 211 324 q 163 272 178 322 q 147 228 154 244 q 135 199 140 211 q 124 172 129 186 q 111 133 118 157 q 108 124 110 129 q 106 115 106 119 q 99 92 101 96 q 92 72 97 88 q 85 53 89 63 q 78 39 81 44 q 77 36 78 38 q 76 32 76 35 q 75 28 75 29 q 74 24 75 26 l 74 22 q 69 13 72 14 q 64 11 65 11 l 63 11 q 59 16 60 14 q 57 15 58 18 q 58 10 56 14 q 60 4 61 7 q 58 0 58 1 q 51 0 57 -1 q 49 4 49 1 l 49 13 q 49 19 49 15 q 50 25 50 22 q 51 28 51 26 l 51 32 q 49 35 51 38 q 46 31 47 33 q 44 29 46 31 l 44 28 q 43 27 43 28 q 44 26 43 26 l 43 26 l 43 25 l 44 24 l 44 17 q 40 1 42 3 l 38 1 q 35 3 38 3 q 32 6 35 3 q 25 17 26 10 q 24 31 24 24 q 25 43 24 38 q 26 50 26 49 q 29 56 29 53 q 30 57 29 57 q 31 58 31 57 q 33 78 32 67 q 44 126 33 90 q 49 144 47 135 q 54 163 51 153 q 90 283 69 222 q 128 399 110 344 q 113 399 121 399 q 96 400 104 399 q 76 405 85 403 q 58 410 67 407 q 45 415 51 413 q 32 419 39 417 q 10 472 6 440 q 36 541 14 504 q 93 615 58 578 q 163 685 128 653 q 226 742 197 718 q 265 774 254 765 q 289 792 275 792 q 314 785 313 792 q 318 779 317 782 q 324 771 319 776 q 332 755 328 764 q 333 739 336 746 q 331 734 332 736 q 329 729 331 732 q 326 721 326 721 q 317 699 325 714 q 303 674 308 685 q 289 625 296 654 q 271 572 282 596 q 254 535 263 556 q 243 508 249 522 q 232 478 238 493 m 58 47 q 57 51 58 50 l 54 51 q 51 53 53 51 l 50 53 q 49 51 50 53 l 49 50 l 49 49 l 47 49 l 47 47 l 47 46 l 47 44 l 47 43 q 53 42 50 42 q 56 43 54 42 q 57 44 56 43 q 58 47 57 46 m 60 64 q 56 67 60 67 l 54 67 l 54 65 l 54 64 l 53 64 l 53 63 l 53 61 l 54 60 l 56 60 l 57 60 q 58 61 58 60 q 60 63 60 61 l 60 64 m 67 89 l 65 90 l 63 90 q 61 89 63 90 q 60 86 60 88 l 60 85 q 65 83 61 83 l 67 83 l 67 85 l 67 86 l 67 88 l 67 89 m 71 104 l 72 106 l 71 107 q 68 108 69 108 q 65 107 67 108 l 65 104 q 64 100 64 103 q 67 97 64 97 l 68 97 l 69 97 l 71 99 l 71 101 l 71 103 l 71 104 m 76 122 q 78 129 78 124 l 78 132 l 75 132 l 74 131 q 69 126 71 131 q 68 124 68 125 l 68 119 l 68 117 q 71 115 68 115 q 75 117 74 115 q 76 122 76 118 m 85 157 l 83 157 q 79 157 81 158 q 78 156 79 156 q 78 154 78 156 l 78 153 q 81 151 78 151 q 82 150 82 151 q 83 151 83 150 l 85 151 l 85 153 l 85 154 l 85 156 l 85 157 m 89 171 q 90 174 90 172 q 85 175 86 176 q 83 172 83 175 q 82 169 82 171 l 82 168 q 83 167 82 168 q 86 165 85 165 l 88 165 l 89 167 l 89 169 l 90 171 l 89 171 m 90 183 q 94 188 93 183 q 96 194 96 192 l 96 197 q 94 200 94 199 l 93 200 q 92 199 92 200 l 92 197 l 90 196 q 89 192 89 194 q 89 186 89 189 l 89 185 q 90 183 89 185 m 190 668 q 182 660 186 664 q 175 651 178 656 q 168 646 172 650 l 164 642 q 158 636 161 639 q 153 631 154 633 l 153 629 q 140 618 144 621 q 125 603 132 613 q 111 586 118 593 l 111 585 l 90 556 l 78 539 q 73 532 78 539 q 63 517 68 525 q 54 501 58 508 q 50 492 50 493 q 51 490 50 490 l 51 489 q 65 507 56 489 q 76 525 71 514 q 81 532 78 526 q 88 543 85 538 q 96 553 92 549 q 114 572 106 563 q 131 593 122 582 q 147 612 139 603 q 163 631 154 621 q 175 643 169 638 q 186 656 181 649 q 196 664 190 658 l 199 667 q 200 668 199 667 q 207 679 210 675 l 206 679 q 197 674 203 679 q 190 668 193 671 m 163 667 q 157 658 156 660 q 161 656 160 656 q 168 661 165 656 l 169 661 q 171 664 171 663 q 165 669 171 669 q 164 668 165 669 l 163 667 m 144 649 q 146 647 144 649 q 149 644 146 647 q 150 646 150 644 q 151 647 150 646 l 153 647 l 153 649 q 154 651 154 649 q 153 653 153 651 l 151 654 q 150 653 150 654 q 149 653 150 653 q 144 649 146 653 m 138 642 q 135 639 138 642 q 136 638 135 639 q 139 636 138 636 l 139 635 q 140 635 140 635 q 142 636 140 636 l 142 638 l 143 638 l 143 639 l 143 640 q 139 643 143 643 q 138 642 138 643 m 125 632 q 126 631 125 632 q 128 629 126 629 q 129 628 128 628 l 131 628 q 132 629 132 628 l 132 631 l 133 631 l 133 632 q 128 635 133 635 q 126 633 128 635 q 125 632 126 633 m 114 619 q 113 615 113 618 q 115 614 114 614 q 126 621 124 614 q 124 626 126 625 l 122 626 q 115 622 119 626 l 115 621 l 114 621 l 114 619 m 46 532 q 46 531 44 531 q 49 529 47 529 q 57 535 53 529 q 67 549 61 542 l 67 551 l 68 553 l 69 554 q 72 559 71 557 q 75 564 74 561 l 78 564 l 78 567 l 79 567 l 79 568 q 85 577 79 571 q 93 586 90 583 l 97 590 q 99 592 99 590 l 100 592 l 100 593 l 101 594 q 106 601 101 597 q 107 600 106 600 q 108 601 107 600 l 108 603 q 110 604 110 603 l 111 606 l 111 607 l 111 610 l 113 611 q 110 613 113 611 q 86 588 104 614 l 82 583 l 82 582 l 81 582 q 79 581 81 582 l 79 579 q 78 578 79 579 l 74 574 l 72 574 l 71 572 l 71 571 l 69 571 l 69 569 q 68 568 68 569 l 68 567 q 67 561 69 564 q 61 557 64 558 q 60 556 60 557 q 58 554 60 556 q 57 551 58 553 q 54 546 56 549 q 46 532 47 539 m 125 454 q 136 455 131 454 q 147 456 142 456 q 158 485 153 471 q 165 510 163 499 q 195 599 179 554 q 231 689 211 644 q 145 599 178 636 q 94 538 113 563 q 67 498 75 513 q 58 476 60 483 q 60 467 56 471 q 106 454 81 456 q 125 454 114 451 m 349 132 q 343 131 344 133 q 344 128 343 131 q 346 126 344 128 q 350 118 347 118 q 353 119 353 118 q 351 125 353 124 q 350 128 350 126 l 350 129 q 349 131 350 131 q 349 132 349 131 m 340 150 q 338 149 338 150 q 338 146 336 147 q 339 143 338 143 l 339 142 q 340 140 339 142 q 342 139 342 140 q 343 140 343 139 q 344 142 343 140 q 343 143 344 142 l 343 144 q 340 150 343 149 m 332 161 q 331 160 331 161 q 332 160 331 160 l 332 158 q 335 157 333 157 q 338 158 338 157 q 336 161 338 160 q 333 163 336 161 q 332 161 333 163 m 347 106 q 331 140 340 125 q 325 151 328 146 q 319 161 322 156 q 315 171 319 164 q 302 203 307 192 q 295 219 297 214 q 292 226 293 225 q 290 226 292 226 l 289 225 q 291 215 288 222 q 297 199 294 207 q 307 176 301 189 q 310 169 310 172 q 314 161 311 165 q 319 150 317 156 q 324 138 321 144 q 329 124 326 131 q 336 110 332 117 q 344 99 342 99 q 346 100 344 99 q 347 106 347 100 m 318 193 l 318 192 l 321 186 q 325 181 324 181 l 326 181 q 326 186 328 182 q 325 192 326 188 q 321 196 324 196 l 318 193 m 318 207 q 315 213 318 211 q 313 211 314 213 l 313 210 q 314 206 313 207 l 314 204 q 315 203 315 204 q 317 201 317 203 q 318 203 318 201 q 319 203 319 203 q 318 204 319 204 l 318 206 l 318 207 m 307 222 q 308 221 307 221 q 311 219 308 219 q 313 221 311 219 q 313 224 314 222 q 310 225 311 225 l 308 225 l 307 225 l 307 222 m 303 246 q 301 247 303 247 l 299 247 l 299 244 l 300 243 q 301 240 300 242 l 303 240 l 304 242 q 304 244 304 242 q 303 246 304 244 m 294 264 q 293 263 293 264 q 292 261 292 263 l 293 260 q 294 258 293 260 q 296 256 294 257 q 297 254 296 254 l 299 254 l 299 256 l 300 256 l 300 258 l 300 260 l 299 260 l 299 261 l 299 263 q 297 263 297 263 q 296 264 297 264 l 294 264 m 286 278 q 290 275 286 275 l 292 275 l 292 276 l 292 278 l 292 279 q 290 281 292 281 l 289 281 q 286 281 289 281 l 286 278 m 286 244 q 281 243 283 246 q 283 236 281 239 l 285 235 l 286 236 q 287 235 286 235 q 288 236 288 235 q 289 238 289 236 l 288 239 l 288 242 q 287 243 288 243 q 286 244 286 243 m 275 261 l 275 260 l 275 258 q 279 256 275 256 q 281 257 279 256 q 281 260 283 257 l 281 261 q 279 263 281 261 l 276 263 l 275 263 l 275 261 m 263 260 q 256 278 257 275 q 253 281 254 281 q 251 279 253 281 q 251 271 250 278 q 261 243 253 264 q 263 240 263 242 q 265 231 263 236 q 269 222 267 226 q 272 215 271 218 q 274 208 274 211 q 289 167 281 188 q 308 126 297 146 l 313 117 q 322 97 317 111 q 324 92 324 94 q 328 88 325 90 q 340 67 338 69 q 343 64 342 64 l 344 64 l 344 67 q 338 80 342 74 q 332 93 335 86 q 326 105 329 100 q 319 117 322 110 q 317 124 319 118 l 313 132 q 310 142 310 135 q 308 147 308 144 q 307 153 308 150 q 297 169 301 160 q 290 189 293 179 q 287 199 289 194 q 282 210 285 204 q 281 213 281 211 q 279 215 281 214 q 276 224 276 219 q 272 232 275 228 l 271 236 q 270 242 271 238 q 263 260 269 246 z "},"L":{"ha":724,"x_min":26,"x_max":1164,"o":"m 118 79 q 212 83 158 86 q 317 72 265 79 q 333 69 322 72 q 354 87 343 78 q 374 106 365 96 q 375 110 375 107 q 430 166 400 132 q 490 238 460 200 q 549 315 521 275 q 597 390 576 354 q 615 422 606 406 q 632 453 624 438 q 617 448 624 449 q 603 443 610 447 q 600 442 601 443 q 567 429 583 435 q 504 408 535 418 q 458 400 481 403 q 420 397 439 397 q 390 403 401 397 q 360 419 374 411 q 335 433 346 426 q 314 449 322 440 q 297 479 303 464 q 290 510 292 493 q 299 544 289 528 q 322 578 307 558 q 353 619 336 599 q 386 658 369 640 q 415 688 403 676 q 420 692 418 690 q 425 696 422 693 l 426 697 q 432 700 426 697 q 438 703 438 703 l 439 703 q 440 704 439 703 q 442 705 442 704 q 444 706 443 706 q 450 703 450 706 q 449 700 450 701 q 452 703 451 703 q 460 703 453 703 l 461 703 q 464 701 463 703 q 449 686 456 694 q 440 676 444 681 q 432 667 435 672 q 424 660 428 664 q 417 651 421 656 q 384 617 400 636 q 351 576 368 599 q 336 553 342 565 l 333 549 q 328 540 332 547 q 321 528 324 533 q 320 525 321 526 q 322 521 319 524 l 324 521 l 324 522 l 324 524 l 325 525 q 335 542 328 531 q 352 564 343 553 q 369 585 361 575 q 379 597 376 594 q 407 633 392 617 q 440 667 422 650 q 444 672 440 668 q 465 693 460 688 q 471 701 469 699 q 474 702 474 701 q 475 703 474 703 q 486 699 482 706 q 485 694 488 697 q 482 688 482 686 l 481 686 q 439 645 467 674 q 385 585 411 617 q 340 524 358 553 q 328 481 322 494 q 354 462 333 465 q 398 460 375 458 q 442 467 421 463 q 468 475 463 472 q 476 476 471 475 q 488 481 481 478 q 506 489 494 483 q 519 495 513 492 q 535 503 526 499 q 540 506 538 503 l 543 506 q 551 510 544 510 q 553 511 551 511 q 609 538 578 522 q 674 571 640 553 q 681 594 675 574 q 697 642 688 614 q 729 720 711 679 q 767 781 747 761 q 782 792 774 788 q 797 794 790 797 q 813 785 807 789 q 822 778 818 782 q 828 775 826 775 l 829 775 q 847 750 836 772 q 850 744 847 750 q 853 733 851 742 q 856 713 854 724 q 858 690 857 701 q 860 674 860 679 q 842 608 863 647 q 751 521 821 568 q 749 519 751 519 q 708 433 735 483 q 648 329 681 382 q 581 228 615 276 q 518 147 546 179 q 502 126 511 138 q 488 108 493 115 q 474 94 481 101 q 458 78 467 86 l 457 78 q 442 64 450 71 q 428 50 435 57 q 433 49 432 50 q 464 38 449 43 q 490 28 479 32 q 531 15 514 21 q 567 3 547 8 q 596 -8 579 -1 q 641 -24 613 -14 q 711 -49 669 -35 q 814 -86 753 -64 q 849 -99 829 -92 q 892 -115 868 -107 q 894 -117 893 -117 q 896 -118 894 -117 q 915 -125 904 -121 q 933 -132 926 -129 q 999 -155 969 -147 q 1050 -168 1028 -162 q 1076 -172 1065 -171 q 1094 -174 1086 -172 q 1111 -175 1103 -175 q 1126 -172 1121 -178 q 1138 -167 1131 -165 q 1148 -167 1143 -168 q 1158 -175 1153 -167 q 1158 -190 1164 -182 q 1153 -197 1156 -194 q 1142 -204 1147 -203 q 1122 -210 1136 -207 q 1072 -210 1101 -212 q 1010 -202 1043 -208 q 942 -187 976 -196 q 874 -167 907 -178 q 841 -156 857 -161 q 810 -144 825 -150 q 806 -143 807 -143 q 801 -142 804 -143 q 792 -139 797 -142 q 781 -135 788 -137 q 765 -129 774 -132 q 722 -115 747 -124 q 668 -97 697 -107 q 608 -78 639 -87 q 549 -58 578 -68 q 441 -21 492 -39 q 360 4 390 -3 q 321 -16 340 -7 q 281 -32 301 -25 q 265 -39 272 -37 q 273 -35 269 -36 q 279 -32 276 -35 q 230 -45 256 -40 q 178 -50 204 -50 l 175 -50 l 165 -50 l 163 -50 q 154 -49 157 -50 l 149 -49 l 144 -49 q 63 -25 97 -43 q 26 22 29 -7 q 38 48 26 38 q 66 65 50 58 q 97 75 82 72 q 118 79 113 78 m 819 -129 q 817 -125 819 -128 q 811 -124 814 -124 q 810 -125 808 -124 q 808 -128 810 -125 q 810 -129 810 -128 l 811 -129 l 813 -129 q 815 -131 814 -131 l 818 -131 q 819 -129 821 -131 m 853 -142 q 853 -139 853 -139 l 851 -137 l 850 -137 q 846 -135 849 -137 q 836 -132 838 -132 l 835 -132 l 833 -133 q 835 -136 835 -135 q 840 -139 838 -139 q 843 -140 842 -139 q 846 -141 844 -140 q 850 -142 847 -142 l 853 -142 m 899 -158 q 903 -154 903 -158 q 896 -150 899 -150 q 890 -147 893 -147 q 882 -146 886 -147 q 878 -145 879 -146 q 875 -144 878 -144 q 873 -143 874 -143 q 874 -144 872 -143 q 872 -147 872 -144 q 877 -151 874 -150 q 892 -156 881 -153 l 893 -157 q 896 -158 894 -157 q 899 -158 897 -158 m 918 -161 q 914 -157 918 -161 l 913 -157 q 910 -156 911 -157 q 907 -157 908 -156 q 908 -160 907 -157 q 910 -161 908 -161 l 911 -162 l 913 -162 l 914 -162 l 915 -162 q 918 -161 918 -162 m 961 -162 q 961 -164 961 -162 l 963 -165 l 964 -165 l 964 -167 l 965 -167 q 968 -165 967 -167 q 969 -164 969 -165 q 967 -162 968 -162 q 964 -160 967 -160 q 961 -162 961 -160 m 939 -153 q 940 -156 939 -153 l 940 -157 l 942 -157 l 943 -158 l 944 -158 l 946 -158 l 947 -158 q 950 -156 950 -158 q 947 -154 950 -156 q 946 -153 946 -154 q 939 -153 942 -150 m 939 -165 q 938 -168 938 -167 q 946 -172 940 -171 q 950 -173 947 -172 q 954 -174 953 -174 l 957 -174 l 957 -171 l 956 -169 l 954 -169 l 951 -168 l 950 -168 q 944 -165 947 -167 q 939 -165 942 -164 m 799 -101 q 801 -106 797 -103 q 809 -110 804 -108 q 818 -112 814 -111 q 822 -114 819 -114 q 840 -120 831 -117 q 858 -128 849 -124 q 906 -143 885 -139 q 908 -144 907 -144 q 929 -151 928 -151 q 931 -150 931 -151 q 928 -147 931 -149 q 918 -143 926 -146 l 917 -142 q 899 -135 907 -139 q 881 -129 890 -132 q 874 -126 878 -128 q 865 -124 871 -125 q 854 -119 861 -119 q 849 -117 849 -117 q 840 -114 844 -115 q 833 -111 836 -112 q 824 -108 828 -108 q 817 -104 821 -107 l 815 -104 q 800 -100 807 -100 q 799 -101 797 -100 m 788 -115 q 785 -117 786 -115 l 785 -118 q 793 -122 786 -122 l 794 -122 l 794 -121 q 794 -119 796 -121 q 793 -118 794 -118 q 792 -117 793 -117 l 790 -117 q 788 -115 789 -117 m 439 696 q 439 693 438 694 q 443 692 442 692 q 443 693 444 692 q 444 694 444 693 q 446 696 444 696 q 444 699 446 697 l 442 699 q 439 696 442 699 m 422 676 q 425 674 422 674 q 426 675 426 674 q 429 676 428 675 q 432 682 432 682 q 430 683 431 682 q 428 683 429 683 q 426 682 426 683 q 422 678 422 682 l 422 676 m 411 667 q 411 664 410 665 q 413 663 411 663 l 415 663 l 415 664 q 417 667 417 664 q 417 669 419 667 q 414 669 414 669 q 411 667 411 669 m 394 650 q 393 648 394 649 q 393 646 392 647 q 394 644 393 644 q 400 649 400 644 l 399 650 q 396 651 399 651 l 394 650 m 381 633 q 379 632 379 633 q 381 631 379 631 q 383 629 382 629 q 386 632 383 631 q 389 636 389 633 l 389 639 l 388 639 q 383 638 385 639 q 381 633 381 635 m 363 611 l 364 610 l 365 610 q 372 614 368 610 q 376 621 376 618 q 376 622 376 622 q 375 624 375 622 l 374 624 q 367 619 371 624 q 363 613 363 615 l 363 611 m 346 593 q 344 589 344 593 q 347 588 346 588 q 350 589 350 588 l 350 592 q 350 594 351 593 l 349 594 q 346 593 349 594 m 333 575 q 332 574 332 575 l 333 572 l 335 572 l 338 575 l 342 579 l 340 581 q 338 582 339 582 l 336 582 l 336 579 q 335 578 336 578 q 333 575 332 575 m 317 551 l 319 550 q 326 555 322 550 q 329 563 331 560 l 329 564 q 328 565 329 565 q 322 560 325 565 q 317 553 318 556 l 317 551 m 539 440 q 542 444 543 440 q 540 445 540 444 q 536 446 539 446 l 532 446 q 531 443 528 446 q 531 440 529 442 q 535 438 533 438 l 536 438 l 538 438 q 539 440 538 438 m 553 446 q 551 451 553 449 l 550 451 q 549 453 550 451 q 547 451 549 453 l 546 451 q 544 450 546 451 l 543 450 q 544 447 543 450 q 547 444 544 444 l 549 444 q 553 446 551 444 m 561 450 q 560 454 563 451 l 558 454 l 558 456 l 557 456 l 556 456 l 554 454 q 555 453 554 453 q 556 451 556 453 q 558 449 556 449 l 560 449 q 561 450 563 449 m 576 454 q 581 456 579 454 q 582 460 583 457 q 581 464 582 463 l 576 464 q 569 460 571 464 l 571 458 q 576 454 572 454 m 592 464 q 592 468 593 464 l 590 469 l 589 469 l 588 469 l 589 468 l 588 468 l 586 468 l 585 468 l 585 467 q 583 465 583 467 q 589 461 586 461 l 590 463 q 592 464 593 463 m 815 617 q 810 621 813 621 q 810 619 810 621 q 807 618 807 619 l 807 617 q 810 614 807 614 l 810 613 l 811 613 q 813 614 811 613 l 814 614 l 814 615 q 815 617 814 615 m 794 675 q 781 639 788 660 q 772 611 775 618 q 779 615 778 614 q 793 624 786 618 q 806 635 800 629 q 828 667 824 650 q 829 696 833 685 q 821 706 828 703 q 815 707 818 707 q 806 697 811 707 q 794 675 801 688 m 797 608 q 794 609 796 608 q 790 608 793 610 q 788 604 788 606 l 788 603 q 790 601 788 601 q 792 600 792 601 l 793 600 q 794 601 793 601 l 796 601 l 796 603 l 797 603 q 797 606 800 603 l 797 608 m 656 531 q 654 529 654 531 q 661 526 654 526 q 670 529 664 526 q 683 535 676 532 q 697 543 690 539 q 708 548 704 546 q 718 553 713 550 q 722 556 721 556 q 726 560 724 557 q 734 562 731 560 q 740 567 738 564 q 747 569 746 569 q 753 573 747 569 q 765 581 758 576 q 776 589 771 585 q 781 596 782 593 q 778 597 781 597 q 768 593 775 597 q 753 584 761 589 q 738 575 744 579 q 732 571 732 571 q 724 565 726 568 q 710 558 717 561 q 696 551 703 554 q 685 549 690 551 q 676 544 681 547 q 671 540 671 542 q 661 537 667 540 q 656 531 656 533 m 631 483 l 633 482 l 635 482 l 636 482 q 636 483 636 482 q 640 484 638 483 q 650 489 643 485 q 658 493 654 492 q 665 497 661 494 l 668 499 q 675 503 674 501 q 687 509 682 506 q 699 515 692 513 q 729 531 715 522 q 757 551 743 540 q 765 556 761 554 q 772 560 768 557 q 783 565 778 561 q 792 574 788 569 q 799 579 793 576 q 808 585 801 581 q 814 593 814 590 l 814 594 q 811 596 813 596 q 801 592 807 596 q 792 583 796 588 q 786 579 786 581 q 776 574 781 576 q 769 568 772 571 q 765 565 764 565 q 760 562 763 563 q 756 558 758 561 q 753 558 754 558 q 749 557 751 557 q 744 555 746 556 q 739 551 742 554 q 724 541 732 546 q 710 532 717 536 q 704 529 707 531 q 699 525 701 528 q 684 517 692 521 q 669 507 676 513 q 662 504 665 506 q 654 501 658 503 q 642 495 649 499 q 632 489 636 492 q 631 488 631 489 l 631 483 m 601 467 q 601 469 603 468 q 600 472 600 471 q 596 474 597 474 l 597 472 l 596 472 l 594 472 l 594 469 l 599 465 l 599 467 l 600 467 l 601 467 m 615 475 l 615 476 q 614 478 614 476 q 613 478 613 478 q 611 479 613 479 l 610 479 q 608 476 611 479 l 608 475 l 611 472 q 613 471 613 472 q 614 472 614 471 l 615 472 q 615 474 617 472 l 615 475 m 626 476 q 628 478 628 476 l 626 479 q 621 485 626 485 l 619 485 q 617 483 618 485 l 617 482 l 617 481 l 619 478 l 619 476 q 621 475 619 475 q 622 474 621 475 q 624 475 622 474 l 625 475 l 626 476 m 564 3 q 561 4 563 4 q 564 3 561 4 m 140 -8 q 268 26 207 -1 q 203 37 232 33 q 153 40 174 40 l 136 40 q 101 36 119 39 q 68 28 82 33 q 50 14 53 24 q 51 8 50 11 q 68 -3 53 1 q 85 -7 75 -6 q 104 -8 94 -8 q 127 -9 117 -10 q 140 -8 138 -8 z "}}}
